{"glyphs":{"0":{"ha":904,"x_min":60,"x_max":844,"o":"m 453 -25 q 153 93 247 -25 q 60 436 60 211 q 151 789 60 669 q 453 908 243 908 q 753 789 661 908 q 844 436 844 669 q 751 93 844 211 q 453 -25 657 -25 m 453 104 q 636 189 581 104 q 692 436 692 274 q 638 694 692 610 q 453 779 583 779 q 267 694 321 779 q 213 436 213 610 q 268 188 213 272 q 453 104 324 104 z "},"1":{"ha":443,"x_min":60,"x_max":354,"o":"m 204 761 l 60 736 l 60 863 l 354 908 l 354 0 l 204 0 l 204 761 z "},"2":{"ha":707,"x_min":60,"x_max":647,"o":"m 60 75 q 151 217 93 151 q 299 360 210 283 q 419 470 383 433 q 471 543 456 507 q 486 632 486 579 q 443 742 486 706 q 306 779 400 779 q 93 738 204 779 l 93 871 q 209 898 143 888 q 335 908 275 908 q 560 835 482 908 q 638 633 638 763 q 595 482 638 546 q 464 338 553 418 l 440 317 q 322 208 363 249 q 253 117 281 167 l 647 117 l 647 0 l 60 0 l 60 75 z "},"3":{"ha":721,"x_min":60,"x_max":660,"o":"m 314 -14 q 177 -2 251 -14 q 60 26 103 10 l 60 158 q 293 115 164 115 q 456 148 404 115 q 507 260 507 181 q 322 396 507 396 l 188 396 l 200 508 l 313 508 q 489 647 489 508 q 442 747 489 715 q 293 779 394 779 q 180 768 238 779 q 76 738 122 757 l 76 867 q 188 897 121 885 q 317 908 254 908 q 558 841 475 908 q 640 661 640 774 q 606 533 640 590 q 506 453 572 476 q 622 379 583 432 q 660 250 660 326 q 567 53 660 119 q 314 -14 475 -14 z "},"4":{"ha":754,"x_min":32,"x_max":721,"o":"m 479 196 l 32 196 l 32 303 l 497 894 l 629 894 l 629 318 l 721 318 l 721 196 l 629 196 l 629 0 l 479 0 l 479 196 m 503 314 l 503 722 l 179 314 l 503 314 z "},"5":{"ha":715,"x_min":60,"x_max":654,"o":"m 313 -14 q 178 -3 247 -14 q 64 26 108 7 l 64 158 q 173 126 111 138 q 293 115 235 115 q 451 153 401 115 q 501 274 501 190 q 463 390 501 354 q 324 426 425 426 l 60 426 l 60 518 l 83 894 l 592 894 l 579 778 l 211 778 l 196 543 l 347 543 q 580 476 506 543 q 654 271 654 408 q 567 61 654 136 q 313 -14 479 -14 z "},"6":{"ha":796,"x_min":60,"x_max":736,"o":"m 399 -14 q 144 70 229 -14 q 60 332 60 154 l 60 533 q 106 729 60 644 q 238 861 153 814 q 438 908 324 908 q 650 876 561 908 l 650 747 q 447 779 563 779 q 264 722 325 779 q 203 563 203 664 l 203 507 q 312 559 250 540 q 429 578 374 578 q 660 503 583 578 q 736 285 736 428 q 651 66 736 146 q 399 -14 567 -14 m 400 100 q 549 147 499 100 q 600 279 600 194 q 557 416 600 371 q 407 461 514 461 q 299 443 353 461 q 203 393 246 425 l 203 297 q 400 100 203 100 z "},"7":{"ha":692,"x_min":46,"x_max":644,"o":"m 482 778 l 46 778 l 46 894 l 644 894 l 644 797 l 307 0 l 153 0 l 482 778 z "},"8":{"ha":819,"x_min":60,"x_max":758,"o":"m 410 -14 q 148 51 236 -14 q 60 242 60 115 q 101 378 60 319 q 218 463 143 438 q 118 538 151 488 q 85 653 85 589 q 167 840 85 772 q 410 908 249 908 q 654 841 574 908 q 735 653 735 774 q 701 531 735 585 q 594 450 668 478 q 719 374 679 425 q 758 242 758 322 q 671 51 758 115 q 410 -14 583 -14 m 447 497 q 560 551 525 517 q 594 650 594 585 q 410 789 594 789 q 225 650 225 789 q 256 562 225 596 q 349 517 288 528 l 447 497 m 410 104 q 567 138 515 104 q 618 244 618 172 q 583 338 618 307 q 468 385 549 368 l 354 408 q 239 355 278 392 q 200 247 200 318 q 252 139 200 174 q 410 104 304 104 z "},"9":{"ha":796,"x_min":60,"x_max":736,"o":"m 358 -14 q 146 17 238 -14 l 146 147 q 349 114 231 114 q 532 172 471 114 q 593 332 593 229 l 593 388 q 484 335 546 354 q 367 317 422 317 q 136 392 213 317 q 60 610 60 467 q 144 828 60 747 q 397 908 229 908 q 651 824 567 908 q 736 563 736 739 l 736 361 q 690 165 736 250 q 558 33 643 81 q 358 -14 472 -14 m 389 432 q 496 451 443 432 q 593 500 549 469 l 593 597 q 396 793 593 793 q 247 746 297 793 q 196 614 196 699 q 239 478 196 524 q 389 432 282 432 z "},"\r":{"ha":556,"x_min":0,"x_max":0,"o":""}," ":{"ha":514,"x_min":0,"x_max":0,"o":""},"A":{"ha":972,"x_min":61,"x_max":911,"o":"m 403 894 l 572 894 l 911 0 l 756 0 l 667 231 l 307 231 l 218 0 l 61 0 l 403 894 m 642 347 l 486 757 l 331 347 l 642 347 z "},"Á":{"ha":972,"x_min":61,"x_max":911,"o":"m 535 1201 l 668 1201 l 551 956 l 431 956 l 535 1201 m 403 894 l 572 894 l 911 0 l 756 0 l 667 231 l 307 231 l 218 0 l 61 0 l 403 894 m 642 347 l 486 757 l 331 347 l 642 347 z "},"Ă":{"ha":972,"x_min":61,"x_max":911,"o":"m 485 956 q 341 1008 393 956 q 289 1151 289 1061 l 392 1151 q 416 1074 392 1103 q 485 1046 440 1046 q 556 1074 531 1046 q 582 1151 582 1103 l 685 1151 q 631 1008 685 1061 q 485 956 578 956 m 403 894 l 572 894 l 911 0 l 756 0 l 667 231 l 307 231 l 218 0 l 61 0 l 403 894 m 642 347 l 486 757 l 331 347 l 642 347 z "},"Ắ":{"ha":972,"x_min":61,"x_max":911,"o":"m 510 1303 l 626 1303 l 528 1118 l 421 1118 l 510 1303 m 486 956 q 329 1006 389 956 q 269 1161 269 1056 l 361 1161 q 394 1069 361 1101 q 486 1038 428 1038 q 578 1069 544 1038 q 611 1161 611 1101 l 703 1161 q 643 1006 703 1056 q 486 956 583 956 m 403 894 l 572 894 l 911 0 l 756 0 l 667 231 l 307 231 l 218 0 l 61 0 l 403 894 m 642 347 l 486 757 l 331 347 l 642 347 z "},"Ặ":{"ha":972,"x_min":61,"x_max":911,"o":"m 483 956 q 340 1008 392 956 q 288 1151 288 1061 l 390 1151 q 415 1074 390 1103 q 483 1046 439 1046 q 555 1074 529 1046 q 581 1151 581 1103 l 683 1151 q 630 1008 683 1061 q 483 956 576 956 m 403 894 l 572 894 l 911 0 l 756 0 l 667 231 l 307 231 l 218 0 l 61 0 l 403 894 m 642 347 l 486 757 l 331 347 l 642 347 m 421 -118 l 551 -118 l 551 -240 l 421 -240 l 421 -118 z "},"Ằ":{"ha":972,"x_min":61,"x_max":911,"o":"m 346 1303 l 463 1303 l 551 1118 l 444 1118 l 346 1303 m 486 956 q 329 1006 389 956 q 269 1161 269 1056 l 361 1161 q 394 1069 361 1101 q 486 1038 428 1038 q 578 1069 544 1038 q 611 1161 611 1101 l 703 1161 q 643 1006 703 1056 q 486 956 583 956 m 403 894 l 572 894 l 911 0 l 756 0 l 667 231 l 307 231 l 218 0 l 61 0 l 403 894 m 642 347 l 486 757 l 331 347 l 642 347 z "},"Ẳ":{"ha":972,"x_min":61,"x_max":911,"o":"m 425 1207 q 513 1224 489 1210 q 538 1267 538 1238 q 520 1303 538 1293 q 465 1313 503 1313 q 389 1296 426 1313 l 389 1367 q 501 1383 436 1383 q 603 1355 567 1383 q 639 1276 639 1326 q 614 1206 639 1231 q 531 1171 589 1181 l 531 1125 l 425 1125 l 425 1207 m 486 956 q 329 1006 389 956 q 269 1161 269 1056 l 361 1161 q 394 1069 361 1101 q 486 1038 428 1038 q 578 1069 544 1038 q 611 1161 611 1101 l 703 1161 q 643 1006 703 1056 q 486 956 583 956 m 403 894 l 572 894 l 911 0 l 756 0 l 667 231 l 307 231 l 218 0 l 61 0 l 403 894 m 642 347 l 486 757 l 331 347 l 642 347 z "},"Ẵ":{"ha":972,"x_min":61,"x_max":911,"o":"m 594 1190 q 544 1197 568 1190 q 483 1218 519 1204 q 447 1231 476 1221 q 390 1242 417 1242 q 275 1194 318 1242 l 275 1293 q 324 1322 293 1311 q 389 1333 356 1333 q 439 1326 415 1333 q 496 1306 463 1319 q 549 1287 529 1293 q 593 1281 569 1281 q 700 1331 665 1281 l 700 1231 q 658 1201 686 1213 q 594 1190 629 1190 m 486 956 q 329 1006 389 956 q 269 1161 269 1056 l 361 1161 q 394 1069 361 1101 q 486 1038 428 1038 q 578 1069 544 1038 q 611 1161 611 1101 l 703 1161 q 643 1006 703 1056 q 486 956 583 956 m 403 894 l 572 894 l 911 0 l 756 0 l 667 231 l 307 231 l 218 0 l 61 0 l 403 894 m 642 347 l 486 757 l 331 347 l 642 347 z "},"Ǎ":{"ha":972,"x_min":61,"x_max":911,"o":"m 258 1178 l 382 1178 l 485 1038 l 590 1178 l 711 1178 l 538 954 l 432 954 l 258 1178 m 403 894 l 572 894 l 911 0 l 756 0 l 667 231 l 307 231 l 218 0 l 61 0 l 403 894 m 642 347 l 486 757 l 331 347 l 642 347 z "},"Â":{"ha":972,"x_min":61,"x_max":911,"o":"m 432 1178 l 538 1178 l 711 954 l 590 954 l 485 1094 l 382 954 l 258 954 l 432 1178 m 403 894 l 572 894 l 911 0 l 756 0 l 667 231 l 307 231 l 218 0 l 61 0 l 403 894 m 642 347 l 486 757 l 331 347 l 642 347 z "},"Ấ":{"ha":972,"x_min":61,"x_max":911,"o":"m 694 1296 l 810 1296 l 713 1111 l 606 1111 l 694 1296 m 421 1131 l 538 1131 l 703 954 l 579 954 l 479 1068 l 382 954 l 256 954 l 421 1131 m 403 894 l 572 894 l 911 0 l 756 0 l 667 231 l 307 231 l 218 0 l 61 0 l 403 894 m 642 347 l 486 757 l 331 347 l 642 347 z "},"Ậ":{"ha":972,"x_min":61,"x_max":911,"o":"m 432 1178 l 538 1178 l 711 954 l 590 954 l 485 1094 l 382 954 l 258 954 l 432 1178 m 403 894 l 572 894 l 911 0 l 756 0 l 667 231 l 307 231 l 218 0 l 61 0 l 403 894 m 642 347 l 486 757 l 331 347 l 642 347 m 421 -118 l 551 -118 l 551 -240 l 421 -240 l 421 -118 z "},"Ầ":{"ha":972,"x_min":61,"x_max":911,"o":"m 151 1296 l 268 1296 l 357 1111 l 250 1111 l 151 1296 m 424 1131 l 542 1131 l 706 954 l 581 954 l 482 1068 l 383 954 l 260 954 l 424 1131 m 403 894 l 572 894 l 911 0 l 756 0 l 667 231 l 307 231 l 218 0 l 61 0 l 403 894 m 642 347 l 486 757 l 331 347 l 642 347 z "},"Ẩ":{"ha":972,"x_min":61,"x_max":911,"o":"m 622 1174 q 708 1189 686 1176 q 729 1228 729 1201 q 713 1260 729 1250 q 664 1271 697 1271 q 586 1254 624 1271 l 586 1328 q 693 1344 633 1344 q 798 1315 760 1344 q 836 1236 836 1286 q 810 1164 836 1190 q 729 1129 785 1138 l 729 1082 l 622 1082 l 622 1174 m 425 1131 l 543 1131 l 707 954 l 583 954 l 485 1068 l 386 954 l 261 954 l 425 1131 m 403 894 l 572 894 l 911 0 l 756 0 l 667 231 l 307 231 l 218 0 l 61 0 l 403 894 m 642 347 l 486 757 l 331 347 l 642 347 z "},"Ẫ":{"ha":972,"x_min":61,"x_max":911,"o":"m 600 1142 q 549 1149 574 1142 q 489 1169 525 1156 q 436 1188 456 1182 q 396 1194 417 1194 q 281 1146 324 1194 l 281 1244 q 330 1274 299 1263 q 394 1285 361 1285 q 442 1278 421 1285 q 501 1258 464 1272 q 555 1240 535 1246 q 599 1233 575 1233 q 706 1282 669 1233 l 706 1183 q 663 1153 692 1165 q 600 1142 635 1142 m 426 1131 l 544 1131 l 708 954 l 585 954 l 486 1068 l 388 954 l 263 954 l 426 1131 m 403 894 l 572 894 l 911 0 l 756 0 l 667 231 l 307 231 l 218 0 l 61 0 l 403 894 m 642 347 l 486 757 l 331 347 l 642 347 z "},"Ä":{"ha":972,"x_min":61,"x_max":911,"o":"m 292 1107 l 419 1107 l 419 988 l 292 988 l 292 1107 m 550 1107 l 678 1107 l 678 988 l 550 988 l 550 1107 m 403 894 l 572 894 l 911 0 l 756 0 l 667 231 l 307 231 l 218 0 l 61 0 l 403 894 m 642 347 l 486 757 l 331 347 l 642 347 z "},"Ạ":{"ha":972,"x_min":61,"x_max":911,"o":"m 403 894 l 572 894 l 911 0 l 756 0 l 667 231 l 307 231 l 218 0 l 61 0 l 403 894 m 642 347 l 486 757 l 331 347 l 642 347 m 421 -118 l 551 -118 l 551 -240 l 421 -240 l 421 -118 z "},"À":{"ha":972,"x_min":61,"x_max":911,"o":"m 299 1201 l 431 1201 l 536 956 l 414 956 l 299 1201 m 403 894 l 572 894 l 911 0 l 756 0 l 667 231 l 307 231 l 218 0 l 61 0 l 403 894 m 642 347 l 486 757 l 331 347 l 642 347 z "},"Ả":{"ha":972,"x_min":61,"x_max":911,"o":"m 428 1069 q 530 1088 504 1074 q 556 1139 556 1103 q 530 1183 556 1169 q 453 1197 504 1197 q 407 1192 432 1197 q 364 1181 382 1188 l 364 1263 q 422 1276 386 1271 q 493 1281 457 1281 q 623 1246 578 1281 q 668 1151 668 1211 q 640 1062 668 1093 q 546 1021 613 1031 l 546 956 l 428 956 l 428 1069 m 403 894 l 572 894 l 911 0 l 756 0 l 667 231 l 307 231 l 218 0 l 61 0 l 403 894 m 642 347 l 486 757 l 331 347 l 642 347 z "},"Ā":{"ha":972,"x_min":61,"x_max":911,"o":"m 278 1083 l 692 1083 l 692 985 l 278 985 l 278 1083 m 403 894 l 572 894 l 911 0 l 756 0 l 667 231 l 307 231 l 218 0 l 61 0 l 403 894 m 642 347 l 486 757 l 331 347 l 642 347 z "},"Ą":{"ha":972,"x_min":61,"x_max":924,"o":"m 854 -211 q 892 -207 872 -211 q 924 -196 911 -203 l 924 -287 q 876 -301 906 -296 q 817 -306 847 -306 q 710 -274 753 -306 q 668 -182 668 -243 q 696 -81 668 -129 q 771 0 724 -33 l 756 0 l 667 231 l 307 231 l 218 0 l 61 0 l 403 894 l 572 894 l 911 0 l 885 0 q 814 -75 839 -35 q 789 -156 789 -115 q 805 -199 789 -186 q 854 -211 821 -211 m 642 347 l 486 757 l 331 347 l 642 347 z "},"Å":{"ha":972,"x_min":61,"x_max":911,"o":"m 911 0 l 756 0 l 667 231 l 307 231 l 218 0 l 61 0 l 390 861 q 341 917 358 883 q 324 992 324 951 q 368 1105 324 1060 q 485 1150 413 1150 q 603 1105 558 1150 q 649 992 649 1060 q 631 918 649 951 q 583 864 614 885 l 911 0 m 485 1074 q 426 1050 449 1074 q 403 992 403 1026 q 426 933 403 957 q 485 910 449 910 q 546 933 522 910 q 569 992 569 957 q 546 1050 569 1026 q 485 1074 522 1074 m 642 347 l 486 757 l 331 347 l 642 347 z "},"Ǻ":{"ha":972,"x_min":61,"x_max":911,"o":"m 528 1185 l 407 1185 l 511 1431 l 644 1431 l 528 1185 m 911 0 l 756 0 l 667 231 l 307 231 l 218 0 l 61 0 l 390 861 q 341 917 358 883 q 324 992 324 951 q 368 1105 324 1060 q 485 1150 413 1150 q 603 1105 558 1150 q 649 992 649 1060 q 631 918 649 951 q 583 864 614 885 l 911 0 m 485 1074 q 426 1050 449 1074 q 403 992 403 1026 q 426 933 403 957 q 485 910 449 910 q 546 933 522 910 q 569 992 569 957 q 546 1050 569 1026 q 485 1074 522 1074 m 642 347 l 486 757 l 331 347 l 642 347 z "},"Ã":{"ha":972,"x_min":61,"x_max":911,"o":"m 597 965 q 547 972 571 965 q 482 994 524 979 q 427 1013 447 1007 q 386 1019 407 1019 q 265 969 310 1019 l 265 1081 q 316 1110 283 1099 q 383 1122 349 1122 q 435 1115 411 1122 q 494 1094 460 1108 q 549 1075 526 1082 q 596 1068 571 1068 q 707 1119 668 1068 l 707 1008 q 663 977 693 989 q 597 965 633 965 m 403 894 l 572 894 l 911 0 l 756 0 l 667 231 l 307 231 l 218 0 l 61 0 l 403 894 m 642 347 l 486 757 l 331 347 l 642 347 z "},"Æ":{"ha":1174,"x_min":61,"x_max":1114,"o":"m 403 894 l 1114 894 l 1114 776 l 715 776 l 715 506 l 1063 506 l 1063 389 l 715 389 l 715 117 l 1114 117 l 1114 0 l 565 0 l 565 232 l 313 232 l 224 0 l 61 0 l 403 894 m 565 349 l 565 779 l 511 779 l 351 349 l 565 349 z "},"Ǽ":{"ha":1174,"x_min":61,"x_max":1114,"o":"m 697 1201 l 831 1201 l 714 956 l 593 956 l 697 1201 m 403 894 l 1114 894 l 1114 776 l 715 776 l 715 506 l 1063 506 l 1063 389 l 715 389 l 715 117 l 1114 117 l 1114 0 l 565 0 l 565 232 l 313 232 l 224 0 l 61 0 l 403 894 m 565 349 l 565 779 l 511 779 l 351 349 l 565 349 z "},"B":{"ha":876,"x_min":88,"x_max":817,"o":"m 88 894 l 521 894 q 717 833 651 894 q 782 656 782 771 q 753 535 782 585 q 675 460 725 486 q 780 392 743 440 q 817 258 817 344 q 747 65 817 129 q 540 0 676 0 l 88 0 l 88 894 m 500 513 q 642 643 642 513 q 607 748 642 715 q 483 781 572 781 l 239 781 l 239 513 l 500 513 m 508 111 q 627 146 590 111 q 664 264 664 181 q 626 368 664 335 q 493 401 588 401 l 239 401 l 239 111 l 508 111 z "},"C":{"ha":829,"x_min":60,"x_max":769,"o":"m 507 -14 q 175 105 290 -14 q 60 433 60 224 q 171 784 60 660 q 506 908 282 908 q 768 865 646 908 l 768 733 q 517 779 650 779 q 283 693 354 779 q 213 433 213 607 q 288 194 213 275 q 519 114 364 114 q 769 157 657 114 l 769 24 q 507 -14 650 -14 z "},"Ć":{"ha":829,"x_min":60,"x_max":769,"o":"m 524 1201 l 657 1201 l 540 956 l 419 956 l 524 1201 m 507 -14 q 175 105 290 -14 q 60 433 60 224 q 171 784 60 660 q 506 908 282 908 q 768 865 646 908 l 768 733 q 517 779 650 779 q 283 693 354 779 q 213 433 213 607 q 288 194 213 275 q 519 114 364 114 q 769 157 657 114 l 769 24 q 507 -14 650 -14 z "},"Č":{"ha":829,"x_min":60,"x_max":769,"o":"m 279 1178 l 403 1178 l 506 1038 l 611 1178 l 732 1178 l 558 954 l 453 954 l 279 1178 m 507 -14 q 175 105 290 -14 q 60 433 60 224 q 171 784 60 660 q 506 908 282 908 q 768 865 646 908 l 768 733 q 517 779 650 779 q 283 693 354 779 q 213 433 213 607 q 288 194 213 275 q 519 114 364 114 q 769 157 657 114 l 769 24 q 507 -14 650 -14 z "},"Ç":{"ha":829,"x_min":60,"x_max":769,"o":"m 769 24 q 539 -14 661 -10 l 521 -65 q 633 -98 594 -65 q 672 -190 672 -131 q 467 -333 672 -333 q 413 -330 444 -333 q 365 -322 381 -326 l 365 -240 q 451 -251 406 -251 q 543 -239 517 -251 q 569 -189 569 -226 q 544 -142 569 -153 q 457 -132 518 -132 l 401 -132 l 439 -11 q 157 125 254 8 q 60 433 60 242 q 171 784 60 660 q 506 908 282 908 q 768 865 646 908 l 768 733 q 517 779 650 779 q 283 693 354 779 q 213 433 213 607 q 288 194 213 275 q 519 114 364 114 q 769 157 657 114 l 769 24 z "},"Ĉ":{"ha":829,"x_min":60,"x_max":769,"o":"m 414 1178 l 519 1178 l 693 954 l 572 954 l 467 1094 l 364 954 l 240 954 l 414 1178 m 507 -14 q 175 105 290 -14 q 60 433 60 224 q 171 784 60 660 q 506 908 282 908 q 768 865 646 908 l 768 733 q 517 779 650 779 q 283 693 354 779 q 213 433 213 607 q 288 194 213 275 q 519 114 364 114 q 769 157 657 114 l 769 24 q 507 -14 650 -14 z "},"Ċ":{"ha":829,"x_min":60,"x_max":769,"o":"m 428 1110 l 556 1110 l 556 988 l 428 988 l 428 1110 m 507 -14 q 175 105 290 -14 q 60 433 60 224 q 171 784 60 660 q 506 908 282 908 q 768 865 646 908 l 768 733 q 517 779 650 779 q 283 693 354 779 q 213 433 213 607 q 288 194 213 275 q 519 114 364 114 q 769 157 657 114 l 769 24 q 507 -14 650 -14 z "},"D":{"ha":901,"x_min":88,"x_max":840,"o":"m 88 894 l 450 894 q 746 788 651 894 q 840 442 840 681 q 746 106 840 213 q 450 0 651 0 l 88 0 l 88 894 m 426 117 q 576 144 519 117 q 660 242 632 171 q 689 442 689 313 q 663 644 689 572 q 580 747 636 717 q 426 776 524 776 l 239 776 l 239 117 l 426 117 z "},"Ð":{"ha":957,"x_min":46,"x_max":896,"o":"m 143 381 l 46 381 l 46 497 l 143 497 l 143 894 l 506 894 q 801 788 707 894 q 896 442 896 681 q 801 106 896 213 q 506 0 707 0 l 143 0 l 143 381 m 482 117 q 631 144 575 117 q 716 242 688 171 q 744 442 744 313 q 718 644 744 572 q 635 747 692 717 q 482 776 579 776 l 294 776 l 294 497 l 524 497 l 524 381 l 294 381 l 294 117 l 482 117 z "},"Ď":{"ha":901,"x_min":88,"x_max":840,"o":"m 193 1193 l 317 1193 l 419 1053 l 525 1193 l 646 1193 l 472 969 l 367 969 l 193 1193 m 88 894 l 450 894 q 746 788 651 894 q 840 442 840 681 q 746 106 840 213 q 450 0 651 0 l 88 0 l 88 894 m 426 117 q 576 144 519 117 q 660 242 632 171 q 689 442 689 313 q 663 644 689 572 q 580 747 636 717 q 426 776 524 776 l 239 776 l 239 117 l 426 117 z "},"Đ":{"ha":943,"x_min":32,"x_max":882,"o":"m 129 381 l 32 381 l 32 497 l 129 497 l 129 894 l 492 894 q 788 788 693 894 q 882 442 882 681 q 788 106 882 213 q 492 0 693 0 l 129 0 l 129 381 m 468 117 q 617 144 561 117 q 702 242 674 171 q 731 442 731 313 q 704 644 731 572 q 622 747 678 717 q 468 776 565 776 l 281 776 l 281 497 l 510 497 l 510 381 l 281 381 l 281 117 l 468 117 z "},"Ḍ":{"ha":901,"x_min":88,"x_max":840,"o":"m 88 894 l 450 894 q 746 788 651 894 q 840 442 840 681 q 746 106 840 213 q 450 0 651 0 l 88 0 l 88 894 m 426 117 q 576 144 519 117 q 660 242 632 171 q 689 442 689 313 q 663 644 689 572 q 580 747 636 717 q 426 776 524 776 l 239 776 l 239 117 l 426 117 m 376 -118 l 507 -118 l 507 -240 l 376 -240 l 376 -118 z "},"Ḏ":{"ha":901,"x_min":88,"x_max":840,"o":"m 88 894 l 450 894 q 746 788 651 894 q 840 442 840 681 q 746 106 840 213 q 450 0 651 0 l 88 0 l 88 894 m 426 117 q 576 144 519 117 q 660 242 632 171 q 689 442 689 313 q 663 644 689 572 q 580 747 636 717 q 426 776 524 776 l 239 776 l 239 117 l 426 117 m 182 -129 l 596 -129 l 596 -228 l 182 -228 l 182 -129 z "},"E":{"ha":764,"x_min":88,"x_max":711,"o":"m 88 894 l 711 894 l 711 776 l 239 776 l 239 506 l 660 506 l 660 389 l 239 389 l 239 117 l 711 117 l 711 0 l 88 0 l 88 894 z "},"É":{"ha":764,"x_min":88,"x_max":711,"o":"m 424 1201 l 557 1201 l 440 956 l 319 956 l 424 1201 m 88 894 l 711 894 l 711 776 l 239 776 l 239 506 l 660 506 l 660 389 l 239 389 l 239 117 l 711 117 l 711 0 l 88 0 l 88 894 z "},"Ĕ":{"ha":764,"x_min":88,"x_max":711,"o":"m 401 956 q 258 1008 310 956 q 206 1151 206 1061 l 308 1151 q 333 1074 308 1103 q 401 1046 357 1046 q 473 1074 447 1046 q 499 1151 499 1103 l 601 1151 q 548 1008 601 1061 q 401 956 494 956 m 88 894 l 711 894 l 711 776 l 239 776 l 239 506 l 660 506 l 660 389 l 239 389 l 239 117 l 711 117 l 711 0 l 88 0 l 88 894 z "},"Ě":{"ha":764,"x_min":88,"x_max":711,"o":"m 178 1178 l 301 1178 l 404 1038 l 510 1178 l 631 1178 l 457 954 l 351 954 l 178 1178 m 88 894 l 711 894 l 711 776 l 239 776 l 239 506 l 660 506 l 660 389 l 239 389 l 239 117 l 711 117 l 711 0 l 88 0 l 88 894 z "},"Ê":{"ha":764,"x_min":88,"x_max":711,"o":"m 336 1178 l 442 1178 l 615 954 l 494 954 l 389 1094 l 286 954 l 163 954 l 336 1178 m 88 894 l 711 894 l 711 776 l 239 776 l 239 506 l 660 506 l 660 389 l 239 389 l 239 117 l 711 117 l 711 0 l 88 0 l 88 894 z "},"Ế":{"ha":764,"x_min":88,"x_max":722,"o":"m 607 1294 l 722 1294 l 625 1110 l 518 1110 l 607 1294 m 333 1129 l 450 1129 l 615 953 l 492 953 l 392 1067 l 294 953 l 168 953 l 333 1129 m 88 894 l 711 894 l 711 776 l 239 776 l 239 506 l 660 506 l 660 389 l 239 389 l 239 117 l 711 117 l 711 0 l 88 0 l 88 894 z "},"Ệ":{"ha":764,"x_min":88,"x_max":711,"o":"m 331 1178 l 436 1178 l 610 954 l 489 954 l 383 1094 l 281 954 l 157 954 l 331 1178 m 88 894 l 711 894 l 711 776 l 239 776 l 239 506 l 660 506 l 660 389 l 239 389 l 239 117 l 711 117 l 711 0 l 88 0 l 88 894 m 318 -118 l 449 -118 l 449 -240 l 318 -240 l 318 -118 z "},"Ề":{"ha":764,"x_min":74,"x_max":711,"o":"m 74 1294 l 190 1294 l 279 1110 l 172 1110 l 74 1294 m 346 1129 l 464 1129 l 628 953 l 503 953 l 404 1067 l 306 953 l 182 953 l 346 1129 m 88 894 l 711 894 l 711 776 l 239 776 l 239 506 l 660 506 l 660 389 l 239 389 l 239 117 l 711 117 l 711 0 l 88 0 l 88 894 z "},"Ể":{"ha":764,"x_min":88,"x_max":747,"o":"m 533 1172 q 619 1188 597 1175 q 640 1226 640 1200 q 624 1259 640 1249 q 575 1269 608 1269 q 497 1253 535 1269 l 497 1326 q 604 1343 544 1343 q 709 1314 671 1343 q 747 1235 747 1285 q 722 1163 747 1189 q 640 1128 696 1136 l 640 1081 l 533 1081 l 533 1172 m 336 1129 l 454 1129 l 618 953 l 494 953 l 396 1067 l 297 953 l 172 953 l 336 1129 m 88 894 l 711 894 l 711 776 l 239 776 l 239 506 l 660 506 l 660 389 l 239 389 l 239 117 l 711 117 l 711 0 l 88 0 l 88 894 z "},"Ễ":{"ha":764,"x_min":88,"x_max":711,"o":"m 511 1142 q 460 1149 485 1142 q 400 1169 436 1156 q 347 1188 367 1182 q 307 1194 328 1194 q 192 1146 235 1194 l 192 1244 q 241 1274 210 1263 q 306 1285 272 1285 q 353 1278 332 1285 q 413 1258 375 1272 q 466 1240 446 1246 q 510 1233 486 1233 q 617 1282 581 1233 l 617 1183 q 574 1153 603 1165 q 511 1142 546 1142 m 338 1131 l 456 1131 l 619 954 l 496 954 l 397 1068 l 299 954 l 174 954 l 338 1131 m 88 894 l 711 894 l 711 776 l 239 776 l 239 506 l 660 506 l 660 389 l 239 389 l 239 117 l 711 117 l 711 0 l 88 0 l 88 894 z "},"Ë":{"ha":764,"x_min":88,"x_max":711,"o":"m 203 1108 l 331 1108 l 331 989 l 203 989 l 203 1108 m 461 1108 l 589 1108 l 589 989 l 461 989 l 461 1108 m 88 894 l 711 894 l 711 776 l 239 776 l 239 506 l 660 506 l 660 389 l 239 389 l 239 117 l 711 117 l 711 0 l 88 0 l 88 894 z "},"Ė":{"ha":764,"x_min":88,"x_max":711,"o":"m 329 1110 l 457 1110 l 457 988 l 329 988 l 329 1110 m 88 894 l 711 894 l 711 776 l 239 776 l 239 506 l 660 506 l 660 389 l 239 389 l 239 117 l 711 117 l 711 0 l 88 0 l 88 894 z "},"Ẹ":{"ha":764,"x_min":88,"x_max":711,"o":"m 88 894 l 711 894 l 711 776 l 239 776 l 239 506 l 660 506 l 660 389 l 239 389 l 239 117 l 711 117 l 711 0 l 88 0 l 88 894 m 324 -118 l 454 -118 l 454 -240 l 324 -240 l 324 -118 z "},"È":{"ha":764,"x_min":88,"x_max":711,"o":"m 235 1201 l 367 1201 l 472 956 l 350 956 l 235 1201 m 88 894 l 711 894 l 711 776 l 239 776 l 239 506 l 660 506 l 660 389 l 239 389 l 239 117 l 711 117 l 711 0 l 88 0 l 88 894 z "},"Ẻ":{"ha":764,"x_min":88,"x_max":711,"o":"m 329 1068 q 431 1087 406 1072 q 457 1138 457 1101 q 431 1182 457 1168 q 354 1196 406 1196 q 308 1191 333 1196 q 265 1179 283 1186 l 265 1261 q 323 1274 288 1269 q 394 1279 358 1279 q 524 1244 479 1279 q 569 1150 569 1210 q 542 1060 569 1092 q 447 1019 514 1029 l 447 954 l 329 954 l 329 1068 m 88 894 l 711 894 l 711 776 l 239 776 l 239 506 l 660 506 l 660 389 l 239 389 l 239 117 l 711 117 l 711 0 l 88 0 l 88 894 z "},"Ē":{"ha":764,"x_min":88,"x_max":711,"o":"m 178 1100 l 592 1100 l 592 1001 l 178 1001 l 178 1100 m 88 894 l 711 894 l 711 776 l 239 776 l 239 506 l 660 506 l 660 389 l 239 389 l 239 117 l 711 117 l 711 0 l 88 0 l 88 894 z "},"Ę":{"ha":764,"x_min":88,"x_max":711,"o":"m 239 776 l 239 506 l 660 506 l 660 389 l 239 389 l 239 117 l 711 117 l 711 0 l 654 0 q 583 -75 608 -35 q 558 -156 558 -115 q 574 -199 558 -186 q 624 -211 590 -211 q 661 -207 642 -211 q 693 -196 681 -203 l 693 -287 q 646 -301 675 -296 q 586 -306 617 -306 q 480 -274 522 -306 q 438 -182 438 -243 q 465 -81 438 -129 q 540 0 493 -33 l 88 0 l 88 894 l 711 894 l 711 776 l 239 776 z "},"Ẽ":{"ha":764,"x_min":88,"x_max":711,"o":"m 503 976 q 453 983 476 976 q 388 1006 429 990 q 333 1024 353 1018 q 292 1031 313 1031 q 171 981 215 1031 l 171 1092 q 222 1122 189 1110 q 289 1133 254 1133 q 341 1126 317 1133 q 400 1106 365 1119 q 454 1086 432 1093 q 501 1079 476 1079 q 613 1131 574 1079 l 613 1019 q 569 988 599 1000 q 503 976 539 976 m 88 894 l 711 894 l 711 776 l 239 776 l 239 506 l 660 506 l 660 389 l 239 389 l 239 117 l 711 117 l 711 0 l 88 0 l 88 894 z "},"F":{"ha":728,"x_min":88,"x_max":696,"o":"m 88 894 l 696 894 l 696 776 l 239 776 l 239 506 l 644 506 l 644 389 l 239 389 l 239 0 l 88 0 l 88 894 z "},"G":{"ha":890,"x_min":60,"x_max":831,"o":"m 504 -14 q 174 103 288 -14 q 60 429 60 221 q 172 782 60 656 q 508 908 285 908 q 774 868 657 908 l 774 738 q 521 779 658 779 q 284 692 356 779 q 213 429 213 606 q 508 114 213 114 q 701 142 628 114 l 701 392 l 478 392 l 478 490 l 831 490 l 831 60 q 699 7 781 28 q 504 -14 618 -14 z "},"Ğ":{"ha":890,"x_min":60,"x_max":831,"o":"m 497 956 q 353 1008 406 956 q 301 1151 301 1061 l 404 1151 q 428 1074 404 1103 q 497 1046 453 1046 q 569 1074 543 1046 q 594 1151 594 1103 l 697 1151 q 644 1008 697 1061 q 497 956 590 956 m 504 -14 q 174 103 288 -14 q 60 429 60 221 q 172 782 60 656 q 508 908 285 908 q 774 868 657 908 l 774 738 q 521 779 658 779 q 284 692 356 779 q 213 429 213 606 q 508 114 213 114 q 701 142 628 114 l 701 392 l 478 392 l 478 490 l 831 490 l 831 60 q 699 7 781 28 q 504 -14 618 -14 z "},"Ǧ":{"ha":890,"x_min":60,"x_max":831,"o":"m 271 1176 l 394 1176 l 497 1036 l 603 1176 l 724 1176 l 550 953 l 444 953 l 271 1176 m 504 -14 q 174 103 288 -14 q 60 429 60 221 q 172 782 60 656 q 508 908 285 908 q 774 868 657 908 l 774 738 q 521 779 658 779 q 284 692 356 779 q 213 429 213 606 q 508 114 213 114 q 701 142 628 114 l 701 392 l 478 392 l 478 490 l 831 490 l 831 60 q 699 7 781 28 q 504 -14 618 -14 z "},"Ĝ":{"ha":890,"x_min":60,"x_max":831,"o":"m 443 1178 l 549 1178 l 722 954 l 601 954 l 496 1094 l 393 954 l 269 954 l 443 1178 m 504 -14 q 174 103 288 -14 q 60 429 60 221 q 172 782 60 656 q 508 908 285 908 q 774 868 657 908 l 774 738 q 521 779 658 779 q 284 692 356 779 q 213 429 213 606 q 508 114 213 114 q 701 142 628 114 l 701 392 l 478 392 l 478 490 l 831 490 l 831 60 q 699 7 781 28 q 504 -14 618 -14 z "},"Ģ":{"ha":890,"x_min":60,"x_max":831,"o":"m 504 -14 q 174 103 288 -14 q 60 429 60 221 q 172 782 60 656 q 508 908 285 908 q 774 868 657 908 l 774 738 q 521 779 658 779 q 284 692 356 779 q 213 429 213 606 q 508 114 213 114 q 701 142 628 114 l 701 392 l 478 392 l 478 490 l 831 490 l 831 60 q 699 7 781 28 q 504 -14 618 -14 m 458 -58 l 583 -58 l 519 -321 l 418 -321 l 458 -58 z "},"Ġ":{"ha":890,"x_min":60,"x_max":831,"o":"m 440 1110 l 568 1110 l 568 988 l 440 988 l 440 1110 m 504 -14 q 174 103 288 -14 q 60 429 60 221 q 172 782 60 656 q 508 908 285 908 q 774 868 657 908 l 774 738 q 521 779 658 779 q 284 692 356 779 q 213 429 213 606 q 508 114 213 114 q 701 142 628 114 l 701 392 l 478 392 l 478 490 l 831 490 l 831 60 q 699 7 781 28 q 504 -14 618 -14 z "},"Ḡ":{"ha":890,"x_min":60,"x_max":831,"o":"m 294 1094 l 708 1094 l 708 996 l 294 996 l 294 1094 m 504 -14 q 174 103 288 -14 q 60 429 60 221 q 172 782 60 656 q 508 908 285 908 q 774 868 657 908 l 774 738 q 521 779 658 779 q 284 692 356 779 q 213 429 213 606 q 508 114 213 114 q 701 142 628 114 l 701 392 l 478 392 l 478 490 l 831 490 l 831 60 q 699 7 781 28 q 504 -14 618 -14 z "},"H":{"ha":908,"x_min":88,"x_max":821,"o":"m 88 894 l 239 894 l 239 506 l 669 506 l 669 894 l 821 894 l 821 0 l 669 0 l 669 389 l 239 389 l 239 0 l 88 0 l 88 894 z "},"Ħ":{"ha":908,"x_min":18,"x_max":890,"o":"m 88 635 l 18 635 l 18 753 l 88 753 l 88 894 l 239 894 l 239 753 l 669 753 l 669 894 l 821 894 l 821 753 l 890 753 l 890 635 l 821 635 l 821 0 l 669 0 l 669 389 l 239 389 l 239 0 l 88 0 l 88 635 m 669 506 l 669 635 l 239 635 l 239 506 l 669 506 z "},"Ḫ":{"ha":908,"x_min":88,"x_max":821,"o":"m 88 894 l 239 894 l 239 506 l 669 506 l 669 894 l 821 894 l 821 0 l 669 0 l 669 389 l 239 389 l 239 0 l 88 0 l 88 894 m 451 -287 q 308 -235 360 -287 q 256 -90 256 -182 l 358 -90 q 383 -169 358 -140 q 451 -197 407 -197 q 523 -169 497 -197 q 549 -90 549 -140 l 651 -90 q 598 -234 651 -181 q 451 -287 544 -287 z "},"Ĥ":{"ha":908,"x_min":88,"x_max":821,"o":"m 400 1178 l 506 1178 l 679 954 l 558 954 l 453 1094 l 350 954 l 226 954 l 400 1178 m 88 894 l 239 894 l 239 506 l 669 506 l 669 894 l 821 894 l 821 0 l 669 0 l 669 389 l 239 389 l 239 0 l 88 0 l 88 894 z "},"Ḥ":{"ha":908,"x_min":88,"x_max":821,"o":"m 88 894 l 239 894 l 239 506 l 669 506 l 669 894 l 821 894 l 821 0 l 669 0 l 669 389 l 239 389 l 239 0 l 88 0 l 88 894 m 389 -118 l 519 -118 l 519 -240 l 389 -240 l 389 -118 z "},"I":{"ha":326,"x_min":88,"x_max":239,"o":"m 88 894 l 239 894 l 239 0 l 88 0 l 88 894 z "},"Ĳ":{"ha":904,"x_min":88,"x_max":822,"o":"m 88 894 l 239 894 l 239 0 l 88 0 l 88 894 m 531 -14 q 336 18 417 -14 l 336 146 q 415 122 369 131 q 504 114 460 114 q 633 151 596 114 q 671 275 671 189 l 671 894 l 822 894 l 822 250 q 749 53 822 121 q 531 -14 675 -14 z "},"Í":{"ha":328,"x_min":88,"x_max":335,"o":"m 201 1201 l 335 1201 l 218 956 l 97 956 l 201 1201 m 88 894 l 239 894 l 239 0 l 88 0 l 88 894 z "},"Ĭ":{"ha":326,"x_min":-35,"x_max":361,"o":"m 161 969 q 17 1022 69 969 q -35 1165 -35 1075 l 68 1165 q 92 1088 68 1117 q 161 1060 117 1060 q 233 1088 207 1060 q 258 1165 258 1117 l 361 1165 q 308 1022 361 1075 q 161 969 254 969 m 88 894 l 239 894 l 239 0 l 88 0 l 88 894 z "},"Ǐ":{"ha":326,"x_min":-62,"x_max":390,"o":"m -62 1178 l 61 1178 l 164 1038 l 269 1178 l 390 1178 l 217 954 l 111 954 l -62 1178 m 88 894 l 239 894 l 239 0 l 88 0 l 88 894 z "},"Î":{"ha":326,"x_min":-64,"x_max":389,"o":"m 110 1178 l 215 1178 l 389 954 l 268 954 l 163 1094 l 60 954 l -64 954 l 110 1178 m 88 894 l 239 894 l 239 0 l 88 0 l 88 894 z "},"Ï":{"ha":326,"x_min":-31,"x_max":356,"o":"m -31 1113 l 97 1113 l 97 993 l -31 993 l -31 1113 m 228 1113 l 356 1113 l 356 993 l 228 993 l 228 1113 m 88 894 l 239 894 l 239 0 l 88 0 l 88 894 z "},"İ":{"ha":326,"x_min":88,"x_max":239,"o":"m 99 1114 l 226 1114 l 226 992 l 99 992 l 99 1114 m 88 894 l 239 894 l 239 0 l 88 0 l 88 894 z "},"Ị":{"ha":326,"x_min":88,"x_max":239,"o":"m 88 894 l 239 894 l 239 0 l 88 0 l 88 894 m 97 -118 l 228 -118 l 228 -240 l 97 -240 l 97 -118 z "},"Ì":{"ha":326,"x_min":-12,"x_max":239,"o":"m -12 1201 l 119 1201 l 225 956 l 103 956 l -12 1201 m 88 894 l 239 894 l 239 0 l 88 0 l 88 894 z "},"Ỉ":{"ha":326,"x_min":39,"x_max":343,"o":"m 103 1068 q 205 1087 179 1072 q 231 1138 231 1101 q 205 1182 231 1168 q 128 1196 179 1196 q 82 1191 107 1196 q 39 1179 57 1186 l 39 1261 q 97 1274 61 1269 q 168 1279 132 1279 q 298 1244 253 1279 q 343 1150 343 1210 q 315 1060 343 1092 q 221 1019 288 1029 l 221 954 l 103 954 l 103 1068 m 88 894 l 239 894 l 239 0 l 88 0 l 88 894 z "},"Ī":{"ha":326,"x_min":-44,"x_max":369,"o":"m -44 1100 l 369 1100 l 369 1001 l -44 1001 l -44 1100 m 88 894 l 239 894 l 239 0 l 88 0 l 88 894 z "},"Į":{"ha":326,"x_min":8,"x_max":264,"o":"m 194 -211 q 232 -207 213 -211 q 264 -196 251 -203 l 264 -287 q 217 -301 246 -296 q 157 -306 188 -306 q 51 -274 93 -306 q 8 -182 8 -243 q 36 -81 8 -129 q 111 0 64 -33 l 88 0 l 88 894 l 239 894 l 239 0 l 225 0 q 154 -75 179 -35 q 129 -156 129 -115 q 145 -199 129 -186 q 194 -211 161 -211 z "},"Ĩ":{"ha":326,"x_min":-58,"x_max":383,"o":"m 274 967 q 224 974 247 967 q 158 996 200 981 q 103 1015 124 1008 q 63 1021 83 1021 q -58 971 -14 1021 l -58 1082 q -8 1112 -40 1100 q 60 1124 25 1124 q 112 1117 88 1124 q 171 1096 136 1110 q 225 1076 203 1083 q 272 1069 247 1069 q 383 1121 344 1069 l 383 1010 q 340 978 369 990 q 274 967 310 967 m 88 894 l 239 894 l 239 0 l 88 0 l 88 894 z "},"J":{"ha":599,"x_min":32,"x_max":518,"o":"m 226 -14 q 32 18 113 -14 l 32 146 q 110 122 65 131 q 200 114 156 114 q 329 151 292 114 q 367 275 367 189 l 367 894 l 518 894 l 518 250 q 444 53 518 121 q 226 -14 371 -14 z "},"Ĵ":{"ha":599,"x_min":32,"x_max":668,"o":"m 389 1178 l 494 1178 l 668 954 l 547 954 l 442 1094 l 339 954 l 215 954 l 389 1178 m 226 -14 q 32 18 113 -14 l 32 146 q 110 122 65 131 q 200 114 156 114 q 329 151 292 114 q 367 275 367 189 l 367 894 l 518 894 l 518 250 q 444 53 518 121 q 226 -14 371 -14 z "},"K":{"ha":868,"x_min":88,"x_max":808,"o":"m 88 894 l 239 894 l 239 483 l 619 894 l 794 894 l 465 533 l 808 0 l 647 0 l 371 438 l 239 296 l 239 0 l 88 0 l 88 894 z "},"Ķ":{"ha":868,"x_min":88,"x_max":808,"o":"m 88 894 l 239 894 l 239 483 l 619 894 l 794 894 l 465 533 l 808 0 l 647 0 l 371 438 l 239 296 l 239 0 l 88 0 l 88 894 m 379 -51 l 504 -51 l 440 -314 l 339 -314 l 379 -51 z "},"L":{"ha":729,"x_min":88,"x_max":697,"o":"m 88 894 l 239 894 l 239 117 l 697 117 l 697 0 l 88 0 l 88 894 z "},"Ĺ":{"ha":729,"x_min":88,"x_max":697,"o":"m 203 1201 l 336 1201 l 219 956 l 99 956 l 203 1201 m 88 894 l 239 894 l 239 117 l 697 117 l 697 0 l 88 0 l 88 894 z "},"Ľ":{"ha":729,"x_min":88,"x_max":697,"o":"m 472 1049 l 597 1049 l 533 786 l 432 786 l 472 1049 m 88 894 l 239 894 l 239 117 l 697 117 l 697 0 l 88 0 l 88 894 z "},"Ļ":{"ha":729,"x_min":88,"x_max":697,"o":"m 88 894 l 239 894 l 239 117 l 697 117 l 697 0 l 88 0 l 88 894 m 343 -51 l 468 -51 l 404 -314 l 303 -314 l 343 -51 z "},"Ŀ":{"ha":729,"x_min":88,"x_max":697,"o":"m 88 894 l 239 894 l 239 117 l 697 117 l 697 0 l 88 0 l 88 894 m 439 493 l 567 493 l 567 371 l 439 371 l 439 493 z "},"Ḷ":{"ha":729,"x_min":88,"x_max":697,"o":"m 88 894 l 239 894 l 239 117 l 697 117 l 697 0 l 88 0 l 88 894 m 317 -118 l 447 -118 l 447 -240 l 317 -240 l 317 -118 z "},"Ḹ":{"ha":729,"x_min":-18,"x_max":697,"o":"m -18 1094 l 396 1094 l 396 996 l -18 996 l -18 1094 m 88 894 l 239 894 l 239 117 l 697 117 l 697 0 l 88 0 l 88 894 m 317 -118 l 447 -118 l 447 -240 l 317 -240 l 317 -118 z "},"Ḻ":{"ha":729,"x_min":88,"x_max":697,"o":"m 88 894 l 239 894 l 239 117 l 697 117 l 697 0 l 88 0 l 88 894 m 169 -104 l 583 -104 l 583 -203 l 169 -203 l 169 -104 z "},"Ł":{"ha":729,"x_min":-33,"x_max":697,"o":"m 88 371 l -33 318 l -33 435 l 88 488 l 88 894 l 239 894 l 239 554 l 418 633 l 418 517 l 239 438 l 239 117 l 697 117 l 697 0 l 88 0 l 88 371 z "},"M":{"ha":1051,"x_min":88,"x_max":964,"o":"m 88 894 l 243 894 l 526 315 l 808 894 l 964 894 l 964 0 l 814 0 l 814 649 l 572 154 l 481 154 l 238 649 l 238 0 l 88 0 l 88 894 z "},"Ṃ":{"ha":1051,"x_min":88,"x_max":964,"o":"m 88 894 l 243 894 l 526 315 l 808 894 l 964 894 l 964 0 l 814 0 l 814 649 l 572 154 l 481 154 l 238 649 l 238 0 l 88 0 l 88 894 m 463 -118 l 593 -118 l 593 -240 l 463 -240 l 463 -118 z "},"N":{"ha":926,"x_min":88,"x_max":838,"o":"m 88 894 l 221 894 l 688 236 l 688 894 l 838 894 l 838 0 l 704 0 l 239 657 l 239 0 l 88 0 l 88 894 z "},"Ń":{"ha":926,"x_min":88,"x_max":838,"o":"m 497 1201 l 631 1201 l 514 956 l 393 956 l 497 1201 m 88 894 l 221 894 l 688 236 l 688 894 l 838 894 l 838 0 l 704 0 l 239 657 l 239 0 l 88 0 l 88 894 z "},"Ň":{"ha":926,"x_min":88,"x_max":838,"o":"m 247 1178 l 371 1178 l 474 1038 l 579 1178 l 700 1178 l 526 954 l 421 954 l 247 1178 m 88 894 l 221 894 l 688 236 l 688 894 l 838 894 l 838 0 l 704 0 l 239 657 l 239 0 l 88 0 l 88 894 z "},"Ņ":{"ha":926,"x_min":88,"x_max":838,"o":"m 88 894 l 221 894 l 688 236 l 688 894 l 838 894 l 838 0 l 704 0 l 239 657 l 239 0 l 88 0 l 88 894 m 414 -51 l 539 -51 l 475 -314 l 374 -314 l 414 -51 z "},"Ṅ":{"ha":926,"x_min":88,"x_max":838,"o":"m 414 1110 l 542 1110 l 542 988 l 414 988 l 414 1110 m 88 894 l 221 894 l 688 236 l 688 894 l 838 894 l 838 0 l 704 0 l 239 657 l 239 0 l 88 0 l 88 894 z "},"Ṇ":{"ha":926,"x_min":88,"x_max":838,"o":"m 88 894 l 221 894 l 688 236 l 688 894 l 838 894 l 838 0 l 704 0 l 239 657 l 239 0 l 88 0 l 88 894 m 399 -118 l 529 -118 l 529 -240 l 399 -240 l 399 -118 z "},"Ŋ":{"ha":926,"x_min":88,"x_max":838,"o":"m 624 -325 q 486 -303 543 -325 l 486 -193 q 571 -207 529 -207 q 662 -184 636 -207 q 688 -106 688 -161 l 688 24 l 239 657 l 239 0 l 88 0 l 88 894 l 221 894 l 688 236 l 688 894 l 838 894 l 838 -119 q 783 -270 838 -215 q 624 -325 728 -325 z "},"Ṉ":{"ha":926,"x_min":88,"x_max":838,"o":"m 88 894 l 221 894 l 688 236 l 688 894 l 838 894 l 838 0 l 704 0 l 239 657 l 239 0 l 88 0 l 88 894 m 261 -100 l 675 -100 l 675 -199 l 261 -199 l 261 -100 z "},"Ñ":{"ha":926,"x_min":88,"x_max":838,"o":"m 578 976 q 528 983 551 976 q 463 1006 504 990 q 408 1024 428 1018 q 367 1031 388 1031 q 246 981 290 1031 l 246 1092 q 297 1122 264 1110 q 364 1133 329 1133 q 416 1126 392 1133 q 475 1106 440 1119 q 529 1086 507 1093 q 576 1079 551 1079 q 688 1131 649 1079 l 688 1019 q 644 988 674 1000 q 578 976 614 976 m 88 894 l 221 894 l 688 236 l 688 894 l 838 894 l 838 0 l 704 0 l 239 657 l 239 0 l 88 0 l 88 894 z "},"O":{"ha":968,"x_min":60,"x_max":907,"o":"m 483 -14 q 165 98 269 -14 q 60 444 60 210 q 164 797 60 686 q 483 908 268 908 q 803 797 699 908 q 907 444 907 686 q 802 98 907 210 q 483 -14 697 -14 m 483 114 q 690 192 625 114 q 756 444 756 269 q 691 703 756 626 q 483 779 626 779 q 277 703 342 779 q 213 444 213 626 q 278 192 213 271 q 483 114 343 114 z "},"Ó":{"ha":968,"x_min":60,"x_max":907,"o":"m 521 1201 l 654 1201 l 538 956 l 417 956 l 521 1201 m 483 -14 q 165 98 269 -14 q 60 444 60 210 q 164 797 60 686 q 483 908 268 908 q 803 797 699 908 q 907 444 907 686 q 802 98 907 210 q 483 -14 697 -14 m 483 114 q 690 192 625 114 q 756 444 756 269 q 691 703 756 626 q 483 779 626 779 q 277 703 342 779 q 213 444 213 626 q 278 192 213 271 q 483 114 343 114 z "},"Ŏ":{"ha":968,"x_min":60,"x_max":907,"o":"m 482 956 q 338 1008 390 956 q 286 1151 286 1061 l 389 1151 q 413 1074 389 1103 q 482 1046 438 1046 q 553 1074 528 1046 q 579 1151 579 1103 l 682 1151 q 628 1008 682 1061 q 482 956 575 956 m 483 -14 q 165 98 269 -14 q 60 444 60 210 q 164 797 60 686 q 483 908 268 908 q 803 797 699 908 q 907 444 907 686 q 802 98 907 210 q 483 -14 697 -14 m 483 114 q 690 192 625 114 q 756 444 756 269 q 691 703 756 626 q 483 779 626 779 q 277 703 342 779 q 213 444 213 626 q 278 192 213 271 q 483 114 343 114 z "},"Ǒ":{"ha":968,"x_min":60,"x_max":907,"o":"m 257 1178 l 381 1178 l 483 1038 l 589 1178 l 710 1178 l 536 954 l 431 954 l 257 1178 m 483 -14 q 165 98 269 -14 q 60 444 60 210 q 164 797 60 686 q 483 908 268 908 q 803 797 699 908 q 907 444 907 686 q 802 98 907 210 q 483 -14 697 -14 m 483 114 q 690 192 625 114 q 756 444 756 269 q 691 703 756 626 q 483 779 626 779 q 277 703 342 779 q 213 444 213 626 q 278 192 213 271 q 483 114 343 114 z "},"Ô":{"ha":968,"x_min":60,"x_max":907,"o":"m 431 1178 l 536 1178 l 710 954 l 589 954 l 483 1094 l 381 954 l 257 954 l 431 1178 m 483 -14 q 165 98 269 -14 q 60 444 60 210 q 164 797 60 686 q 483 908 268 908 q 803 797 699 908 q 907 444 907 686 q 802 98 907 210 q 483 -14 697 -14 m 483 114 q 690 192 625 114 q 756 444 756 269 q 691 703 756 626 q 483 779 626 779 q 277 703 342 779 q 213 444 213 626 q 278 192 213 271 q 483 114 343 114 z "},"Ố":{"ha":968,"x_min":60,"x_max":907,"o":"m 703 1296 l 818 1296 l 721 1111 l 614 1111 l 703 1296 m 429 1131 l 546 1131 l 711 954 l 588 954 l 488 1068 l 390 954 l 264 954 l 429 1131 m 483 -14 q 165 98 269 -14 q 60 444 60 210 q 164 797 60 686 q 483 908 268 908 q 803 797 699 908 q 907 444 907 686 q 802 98 907 210 q 483 -14 697 -14 m 483 114 q 690 192 625 114 q 756 444 756 269 q 691 703 756 626 q 483 779 626 779 q 277 703 342 779 q 213 444 213 626 q 278 192 213 271 q 483 114 343 114 z "},"Ộ":{"ha":968,"x_min":60,"x_max":907,"o":"m 431 1185 l 536 1185 l 710 961 l 589 961 l 483 1101 l 381 961 l 257 961 l 431 1185 m 483 -14 q 165 98 269 -14 q 60 444 60 210 q 164 797 60 686 q 483 908 268 908 q 803 797 699 908 q 907 444 907 686 q 802 98 907 210 q 483 -14 697 -14 m 483 114 q 690 192 625 114 q 756 444 756 269 q 691 703 756 626 q 483 779 626 779 q 277 703 342 779 q 213 444 213 626 q 278 192 213 271 q 483 114 343 114 m 418 -118 l 549 -118 l 549 -240 l 418 -240 l 418 -118 z "},"Ồ":{"ha":968,"x_min":60,"x_max":907,"o":"m 151 1296 l 268 1296 l 357 1111 l 250 1111 l 151 1296 m 424 1131 l 542 1131 l 706 954 l 581 954 l 482 1068 l 383 954 l 260 954 l 424 1131 m 483 -14 q 165 98 269 -14 q 60 444 60 210 q 164 797 60 686 q 483 908 268 908 q 803 797 699 908 q 907 444 907 686 q 802 98 907 210 q 483 -14 697 -14 m 483 114 q 690 192 625 114 q 756 444 756 269 q 691 703 756 626 q 483 779 626 779 q 277 703 342 779 q 213 444 213 626 q 278 192 213 271 q 483 114 343 114 z "},"Ổ":{"ha":968,"x_min":60,"x_max":907,"o":"m 618 1174 q 703 1189 682 1176 q 725 1228 725 1201 q 709 1260 725 1250 q 660 1271 693 1271 q 582 1254 619 1271 l 582 1328 q 689 1344 629 1344 q 794 1315 756 1344 q 832 1236 832 1286 q 806 1164 832 1190 q 725 1129 781 1138 l 725 1082 l 618 1082 l 618 1174 m 421 1131 l 539 1131 l 703 954 l 579 954 l 481 1068 l 382 954 l 257 954 l 421 1131 m 483 -14 q 165 98 269 -14 q 60 444 60 210 q 164 797 60 686 q 483 908 268 908 q 803 797 699 908 q 907 444 907 686 q 802 98 907 210 q 483 -14 697 -14 m 483 114 q 690 192 625 114 q 756 444 756 269 q 691 703 756 626 q 483 779 626 779 q 277 703 342 779 q 213 444 213 626 q 278 192 213 271 q 483 114 343 114 z "},"Ỗ":{"ha":968,"x_min":60,"x_max":907,"o":"m 592 1190 q 541 1197 565 1190 q 481 1218 517 1204 q 444 1231 474 1221 q 388 1242 414 1242 q 272 1194 315 1242 l 272 1293 q 322 1322 290 1311 q 386 1333 353 1333 q 436 1326 413 1333 q 493 1306 460 1319 q 547 1287 526 1293 q 590 1281 567 1281 q 697 1331 663 1281 l 697 1231 q 655 1201 683 1213 q 592 1190 626 1190 m 483 956 q 326 1006 386 956 q 267 1161 267 1056 l 358 1161 q 392 1069 358 1101 q 483 1038 425 1038 q 575 1069 542 1038 q 608 1161 608 1101 l 700 1161 q 640 1006 700 1056 q 483 956 581 956 m 483 -14 q 165 98 269 -14 q 60 444 60 210 q 164 797 60 686 q 483 908 268 908 q 803 797 699 908 q 907 444 907 686 q 802 98 907 210 q 483 -14 697 -14 m 483 114 q 690 192 625 114 q 756 444 756 269 q 691 703 756 626 q 483 779 626 779 q 277 703 342 779 q 213 444 213 626 q 278 192 213 271 q 483 114 343 114 z "},"Ö":{"ha":968,"x_min":60,"x_max":907,"o":"m 290 1108 l 418 1108 l 418 989 l 290 989 l 290 1108 m 549 1108 l 676 1108 l 676 989 l 549 989 l 549 1108 m 483 -14 q 165 98 269 -14 q 60 444 60 210 q 164 797 60 686 q 483 908 268 908 q 803 797 699 908 q 907 444 907 686 q 802 98 907 210 q 483 -14 697 -14 m 483 114 q 690 192 625 114 q 756 444 756 269 q 691 703 756 626 q 483 779 626 779 q 277 703 342 779 q 213 444 213 626 q 278 192 213 271 q 483 114 343 114 z "},"Ọ":{"ha":968,"x_min":60,"x_max":907,"o":"m 483 -14 q 165 98 269 -14 q 60 444 60 210 q 164 797 60 686 q 483 908 268 908 q 803 797 699 908 q 907 444 907 686 q 802 98 907 210 q 483 -14 697 -14 m 483 114 q 690 192 625 114 q 756 444 756 269 q 691 703 756 626 q 483 779 626 779 q 277 703 342 779 q 213 444 213 626 q 278 192 213 271 q 483 114 343 114 m 418 -118 l 549 -118 l 549 -240 l 418 -240 l 418 -118 z "},"Ò":{"ha":968,"x_min":60,"x_max":907,"o":"m 315 1201 l 447 1201 l 553 956 l 431 956 l 315 1201 m 483 -14 q 165 98 269 -14 q 60 444 60 210 q 164 797 60 686 q 483 908 268 908 q 803 797 699 908 q 907 444 907 686 q 802 98 907 210 q 483 -14 697 -14 m 483 114 q 690 192 625 114 q 756 444 756 269 q 691 703 756 626 q 483 779 626 779 q 277 703 342 779 q 213 444 213 626 q 278 192 213 271 q 483 114 343 114 z "},"Ỏ":{"ha":968,"x_min":60,"x_max":907,"o":"m 426 1068 q 528 1087 503 1072 q 554 1138 554 1101 q 528 1182 554 1168 q 451 1196 503 1196 q 406 1191 431 1196 q 363 1179 381 1186 l 363 1261 q 420 1274 385 1269 q 492 1279 456 1279 q 622 1244 576 1279 q 667 1150 667 1210 q 639 1060 667 1092 q 544 1019 611 1029 l 544 954 l 426 954 l 426 1068 m 483 -14 q 165 98 269 -14 q 60 444 60 210 q 164 797 60 686 q 483 908 268 908 q 803 797 699 908 q 907 444 907 686 q 802 98 907 210 q 483 -14 697 -14 m 483 114 q 690 192 625 114 q 756 444 756 269 q 691 703 756 626 q 483 779 626 779 q 277 703 342 779 q 213 444 213 626 q 278 192 213 271 q 483 114 343 114 z "},"Ơ":{"ha":1069,"x_min":60,"x_max":1046,"o":"m 483 -14 q 165 98 269 -14 q 60 444 60 210 q 164 797 60 686 q 483 908 268 908 q 796 801 693 908 q 901 835 872 803 q 929 956 929 868 l 1046 956 q 1001 772 1046 831 q 864 699 957 713 q 907 444 907 600 q 802 98 907 210 q 483 -14 697 -14 m 483 114 q 690 192 625 114 q 756 444 756 269 q 691 703 756 626 q 483 779 626 779 q 277 703 342 779 q 213 444 213 626 q 278 192 213 271 q 483 114 343 114 z "},"Ớ":{"ha":1069,"x_min":60,"x_max":1046,"o":"m 542 1201 l 675 1201 l 558 956 l 438 956 l 542 1201 m 483 -14 q 165 98 269 -14 q 60 444 60 210 q 164 797 60 686 q 483 908 268 908 q 796 801 693 908 q 901 835 872 803 q 929 956 929 868 l 1046 956 q 1001 772 1046 831 q 864 699 957 713 q 907 444 907 600 q 802 98 907 210 q 483 -14 697 -14 m 483 114 q 690 192 625 114 q 756 444 756 269 q 691 703 756 626 q 483 779 626 779 q 277 703 342 779 q 213 444 213 626 q 278 192 213 271 q 483 114 343 114 z "},"Ợ":{"ha":1069,"x_min":60,"x_max":1046,"o":"m 483 -14 q 165 98 269 -14 q 60 444 60 210 q 164 797 60 686 q 483 908 268 908 q 796 801 693 908 q 901 835 872 803 q 929 956 929 868 l 1046 956 q 1001 772 1046 831 q 864 699 957 713 q 907 444 907 600 q 802 98 907 210 q 483 -14 697 -14 m 483 114 q 690 192 625 114 q 756 444 756 269 q 691 703 756 626 q 483 779 626 779 q 277 703 342 779 q 213 444 213 626 q 278 192 213 271 q 483 114 343 114 m 424 -118 l 554 -118 l 554 -240 l 424 -240 l 424 -118 z "},"Ờ":{"ha":1069,"x_min":60,"x_max":1046,"o":"m 336 1201 l 468 1201 l 574 956 l 451 956 l 336 1201 m 483 -14 q 165 98 269 -14 q 60 444 60 210 q 164 797 60 686 q 483 908 268 908 q 796 801 693 908 q 901 835 872 803 q 929 956 929 868 l 1046 956 q 1001 772 1046 831 q 864 699 957 713 q 907 444 907 600 q 802 98 907 210 q 483 -14 697 -14 m 483 114 q 690 192 625 114 q 756 444 756 269 q 691 703 756 626 q 483 779 626 779 q 277 703 342 779 q 213 444 213 626 q 278 192 213 271 q 483 114 343 114 z "},"Ở":{"ha":1069,"x_min":60,"x_max":1046,"o":"m 433 1068 q 535 1087 510 1072 q 561 1138 561 1101 q 535 1182 561 1168 q 458 1196 510 1196 q 413 1191 438 1196 q 369 1179 388 1186 l 369 1261 q 427 1274 392 1269 q 499 1279 463 1279 q 628 1244 583 1279 q 674 1150 674 1210 q 646 1060 674 1092 q 551 1019 618 1029 l 551 954 l 433 954 l 433 1068 m 483 -14 q 165 98 269 -14 q 60 444 60 210 q 164 797 60 686 q 483 908 268 908 q 796 801 693 908 q 901 835 872 803 q 929 956 929 868 l 1046 956 q 1001 772 1046 831 q 864 699 957 713 q 907 444 907 600 q 802 98 907 210 q 483 -14 697 -14 m 483 114 q 690 192 625 114 q 756 444 756 269 q 691 703 756 626 q 483 779 626 779 q 277 703 342 779 q 213 444 213 626 q 278 192 213 271 q 483 114 343 114 z "},"Ỡ":{"ha":1069,"x_min":60,"x_max":1046,"o":"m 614 974 q 564 981 588 974 q 499 1003 540 988 q 444 1022 464 1015 q 403 1028 424 1028 q 282 978 326 1028 l 282 1089 q 333 1119 300 1107 q 400 1131 365 1131 q 452 1124 428 1131 q 511 1103 476 1117 q 565 1083 543 1090 q 613 1076 588 1076 q 724 1128 685 1076 l 724 1017 q 680 985 710 997 q 614 974 650 974 m 483 -14 q 165 98 269 -14 q 60 444 60 210 q 164 797 60 686 q 483 908 268 908 q 796 801 693 908 q 901 835 872 803 q 929 956 929 868 l 1046 956 q 1001 772 1046 831 q 864 699 957 713 q 907 444 907 600 q 802 98 907 210 q 483 -14 697 -14 m 483 114 q 690 192 625 114 q 756 444 756 269 q 691 703 756 626 q 483 779 626 779 q 277 703 342 779 q 213 444 213 626 q 278 192 213 271 q 483 114 343 114 z "},"Ő":{"ha":968,"x_min":60,"x_max":907,"o":"m 340 1182 l 478 1182 l 358 954 l 236 954 l 340 1182 m 642 1182 l 779 1182 l 660 954 l 538 954 l 642 1182 m 483 -14 q 165 98 269 -14 q 60 444 60 210 q 164 797 60 686 q 483 908 268 908 q 803 797 699 908 q 907 444 907 686 q 802 98 907 210 q 483 -14 697 -14 m 483 114 q 690 192 625 114 q 756 444 756 269 q 691 703 756 626 q 483 779 626 779 q 277 703 342 779 q 213 444 213 626 q 278 192 213 271 q 483 114 343 114 z "},"Ō":{"ha":968,"x_min":60,"x_max":907,"o":"m 274 1100 l 688 1100 l 688 1001 l 274 1001 l 274 1100 m 483 -14 q 165 98 269 -14 q 60 444 60 210 q 164 797 60 686 q 483 908 268 908 q 803 797 699 908 q 907 444 907 686 q 802 98 907 210 q 483 -14 697 -14 m 483 114 q 690 192 625 114 q 756 444 756 269 q 691 703 756 626 q 483 779 626 779 q 277 703 342 779 q 213 444 213 626 q 278 192 213 271 q 483 114 343 114 z "},"Ø":{"ha":968,"x_min":60,"x_max":907,"o":"m 267 25 q 111 176 163 72 q 60 444 60 281 q 164 797 60 686 q 483 908 268 908 q 593 900 542 908 l 617 963 l 719 963 l 686 875 q 853 725 799 831 q 907 444 907 619 q 802 98 907 210 q 483 -14 697 -14 q 358 -3 418 -14 l 332 -74 l 229 -74 l 267 25 m 546 775 q 483 779 517 779 q 277 703 342 779 q 213 444 213 626 q 238 264 213 335 q 315 157 263 193 l 546 775 m 483 114 q 690 192 625 114 q 756 444 756 269 q 726 639 756 565 q 638 746 697 713 l 404 121 q 483 114 443 114 z "},"Ǿ":{"ha":968,"x_min":60,"x_max":907,"o":"m 500 1201 l 633 1201 l 517 956 l 396 956 l 500 1201 m 267 25 q 111 176 163 72 q 60 444 60 281 q 164 797 60 686 q 483 908 268 908 q 593 900 542 908 l 617 963 l 719 963 l 686 875 q 853 725 799 831 q 907 444 907 619 q 802 98 907 210 q 483 -14 697 -14 q 358 -3 418 -14 l 332 -74 l 229 -74 l 267 25 m 546 775 q 483 779 517 779 q 277 703 342 779 q 213 444 213 626 q 238 264 213 335 q 315 157 263 193 l 546 775 m 483 114 q 690 192 625 114 q 756 444 756 269 q 726 639 756 565 q 638 746 697 713 l 404 121 q 483 114 443 114 z "},"Õ":{"ha":968,"x_min":60,"x_max":907,"o":"m 594 965 q 544 972 568 965 q 479 994 521 979 q 424 1013 444 1007 q 383 1019 404 1019 q 263 969 307 1019 l 263 1081 q 313 1110 281 1099 q 381 1122 346 1122 q 433 1115 408 1122 q 492 1094 457 1108 q 546 1075 524 1082 q 593 1068 568 1068 q 704 1119 665 1068 l 704 1008 q 660 977 690 989 q 594 965 631 965 m 483 -14 q 165 98 269 -14 q 60 444 60 210 q 164 797 60 686 q 483 908 268 908 q 803 797 699 908 q 907 444 907 686 q 802 98 907 210 q 483 -14 697 -14 m 483 114 q 690 192 625 114 q 756 444 756 269 q 691 703 756 626 q 483 779 626 779 q 277 703 342 779 q 213 444 213 626 q 278 192 213 271 q 483 114 343 114 z "},"Œ":{"ha":1440,"x_min":60,"x_max":1379,"o":"m 907 776 l 907 506 l 1328 506 l 1328 389 l 907 389 l 907 117 l 1379 117 l 1379 0 l 756 0 l 756 57 q 483 -14 654 -14 q 165 98 269 -14 q 60 444 60 210 q 164 797 60 686 q 483 908 268 908 q 756 839 656 908 l 756 894 l 1379 894 l 1379 776 l 907 776 m 483 114 q 690 192 625 114 q 756 444 756 269 q 691 703 756 626 q 483 779 626 779 q 277 703 342 779 q 213 444 213 626 q 278 192 213 271 q 483 114 343 114 z "},"P":{"ha":819,"x_min":88,"x_max":786,"o":"m 88 894 l 486 894 q 710 813 635 894 q 786 596 786 731 q 703 382 786 463 q 481 301 621 301 l 239 301 l 239 0 l 88 0 l 88 894 m 453 421 q 588 467 540 421 q 635 596 635 514 q 590 729 635 682 q 460 776 546 776 l 239 776 l 239 421 l 453 421 z "},"Þ":{"ha":819,"x_min":88,"x_max":786,"o":"m 88 894 l 239 894 l 239 742 l 486 742 q 710 660 635 742 q 786 444 786 579 q 703 230 786 311 q 481 149 621 149 l 239 149 l 239 0 l 88 0 l 88 894 m 453 268 q 588 315 540 268 q 635 444 635 363 q 590 576 635 531 q 460 622 546 622 l 239 622 l 239 268 l 453 268 z "},"Q":{"ha":968,"x_min":60,"x_max":907,"o":"m 613 -239 q 407 -10 411 -239 q 146 121 232 10 q 60 444 60 232 q 164 797 60 686 q 483 908 268 908 q 803 797 699 908 q 907 444 907 686 q 817 115 907 226 q 542 -11 726 4 q 566 -99 543 -75 q 644 -124 589 -124 q 743 -110 694 -124 l 743 -222 q 683 -234 719 -229 q 613 -239 647 -239 m 483 114 q 690 192 625 114 q 756 444 756 269 q 691 703 756 626 q 483 779 626 779 q 277 703 342 779 q 213 444 213 626 q 278 192 213 271 q 483 114 343 114 z "},"R":{"ha":847,"x_min":88,"x_max":786,"o":"m 88 894 l 499 894 q 715 819 644 894 q 786 608 786 744 q 738 447 786 513 q 603 354 690 381 q 640 317 626 338 q 669 260 654 297 l 782 0 l 626 0 l 517 250 q 478 302 500 288 q 407 317 456 317 l 239 317 l 239 0 l 88 0 l 88 894 m 458 439 q 635 608 635 439 q 472 776 635 776 l 239 776 l 239 439 l 458 439 z "},"Ŕ":{"ha":847,"x_min":88,"x_max":786,"o":"m 436 1201 l 569 1201 l 453 956 l 332 956 l 436 1201 m 88 894 l 499 894 q 715 819 644 894 q 786 608 786 744 q 738 447 786 513 q 603 354 690 381 q 640 317 626 338 q 669 260 654 297 l 782 0 l 626 0 l 517 250 q 478 302 500 288 q 407 317 456 317 l 239 317 l 239 0 l 88 0 l 88 894 m 458 439 q 635 608 635 439 q 472 776 635 776 l 239 776 l 239 439 l 458 439 z "},"Ř":{"ha":847,"x_min":88,"x_max":786,"o":"m 182 1178 l 306 1178 l 408 1038 l 514 1178 l 635 1178 l 461 954 l 356 954 l 182 1178 m 88 894 l 499 894 q 715 819 644 894 q 786 608 786 744 q 738 447 786 513 q 603 354 690 381 q 640 317 626 338 q 669 260 654 297 l 782 0 l 626 0 l 517 250 q 478 302 500 288 q 407 317 456 317 l 239 317 l 239 0 l 88 0 l 88 894 m 458 439 q 635 608 635 439 q 472 776 635 776 l 239 776 l 239 439 l 458 439 z "},"Ŗ":{"ha":847,"x_min":88,"x_max":786,"o":"m 88 894 l 499 894 q 715 819 644 894 q 786 608 786 744 q 738 447 786 513 q 603 354 690 381 q 640 317 626 338 q 669 260 654 297 l 782 0 l 626 0 l 517 250 q 478 302 500 288 q 407 317 456 317 l 239 317 l 239 0 l 88 0 l 88 894 m 458 439 q 635 608 635 439 q 472 776 635 776 l 239 776 l 239 439 l 458 439 m 343 -51 l 468 -51 l 404 -314 l 303 -314 l 343 -51 z "},"Ṛ":{"ha":847,"x_min":88,"x_max":786,"o":"m 88 894 l 499 894 q 715 819 644 894 q 786 608 786 744 q 738 447 786 513 q 603 354 690 381 q 640 317 626 338 q 669 260 654 297 l 782 0 l 626 0 l 517 250 q 478 302 500 288 q 407 317 456 317 l 239 317 l 239 0 l 88 0 l 88 894 m 458 439 q 635 608 635 439 q 472 776 635 776 l 239 776 l 239 439 l 458 439 m 360 -118 l 490 -118 l 490 -240 l 360 -240 l 360 -118 z "},"Ṝ":{"ha":847,"x_min":88,"x_max":786,"o":"m 200 1094 l 614 1094 l 614 996 l 200 996 l 200 1094 m 88 894 l 499 894 q 715 819 644 894 q 786 608 786 744 q 738 447 786 513 q 603 354 690 381 q 640 317 626 338 q 669 260 654 297 l 782 0 l 626 0 l 517 250 q 478 302 500 288 q 407 317 456 317 l 239 317 l 239 0 l 88 0 l 88 894 m 458 439 q 635 608 635 439 q 472 776 635 776 l 239 776 l 239 439 l 458 439 m 360 -118 l 490 -118 l 490 -240 l 360 -240 l 360 -118 z "},"Ṟ":{"ha":847,"x_min":88,"x_max":786,"o":"m 88 894 l 499 894 q 715 819 644 894 q 786 608 786 744 q 738 447 786 513 q 603 354 690 381 q 640 317 626 338 q 669 260 654 297 l 782 0 l 626 0 l 517 250 q 478 302 500 288 q 407 317 456 317 l 239 317 l 239 0 l 88 0 l 88 894 m 458 439 q 635 608 635 439 q 472 776 635 776 l 239 776 l 239 439 l 458 439 m 201 -100 l 615 -100 l 615 -199 l 201 -199 l 201 -100 z "},"S":{"ha":771,"x_min":60,"x_max":711,"o":"m 358 -14 q 79 31 185 -14 l 79 164 q 344 114 208 114 q 508 140 457 114 q 558 239 558 167 q 537 312 558 285 q 467 358 515 339 q 321 403 418 378 q 118 498 176 440 q 60 657 60 556 q 147 842 60 776 q 403 908 235 908 q 545 898 476 908 q 657 872 614 888 l 657 739 q 424 779 551 779 q 265 751 318 779 q 213 657 213 724 q 232 592 213 617 q 297 549 251 568 q 432 508 342 531 q 650 404 589 468 q 711 239 711 340 q 622 53 711 119 q 358 -14 532 -14 z "},"Ś":{"ha":771,"x_min":60,"x_max":711,"o":"m 406 1206 l 539 1206 l 422 960 l 301 960 l 406 1206 m 358 -14 q 79 31 185 -14 l 79 164 q 344 114 208 114 q 508 140 457 114 q 558 239 558 167 q 537 312 558 285 q 467 358 515 339 q 321 403 418 378 q 118 498 176 440 q 60 657 60 556 q 147 842 60 776 q 403 908 235 908 q 545 898 476 908 q 657 872 614 888 l 657 739 q 424 779 551 779 q 265 751 318 779 q 213 657 213 724 q 232 592 213 617 q 297 549 251 568 q 432 508 342 531 q 650 404 589 468 q 711 239 711 340 q 622 53 711 119 q 358 -14 532 -14 z "},"Š":{"ha":771,"x_min":60,"x_max":711,"o":"m 176 1178 l 300 1178 l 403 1038 l 508 1178 l 629 1178 l 456 954 l 350 954 l 176 1178 m 358 -14 q 79 31 185 -14 l 79 164 q 344 114 208 114 q 508 140 457 114 q 558 239 558 167 q 537 312 558 285 q 467 358 515 339 q 321 403 418 378 q 118 498 176 440 q 60 657 60 556 q 147 842 60 776 q 403 908 235 908 q 545 898 476 908 q 657 872 614 888 l 657 739 q 424 779 551 779 q 265 751 318 779 q 213 657 213 724 q 232 592 213 617 q 297 549 251 568 q 432 508 342 531 q 650 404 589 468 q 711 239 711 340 q 622 53 711 119 q 358 -14 532 -14 z "},"Ş":{"ha":771,"x_min":60,"x_max":711,"o":"m 711 239 q 635 63 711 129 q 411 -12 560 -3 l 393 -65 q 506 -98 467 -65 q 544 -190 544 -131 q 339 -333 544 -333 q 285 -330 317 -333 q 238 -322 253 -326 l 238 -240 q 324 -251 278 -251 q 415 -239 389 -251 q 442 -189 442 -226 q 416 -142 442 -153 q 329 -132 390 -132 l 274 -132 l 310 -12 q 79 31 172 -8 l 79 164 q 344 114 208 114 q 508 140 457 114 q 558 239 558 167 q 537 312 558 285 q 467 358 515 339 q 321 403 418 378 q 118 498 176 440 q 60 657 60 556 q 147 842 60 776 q 403 908 235 908 q 545 898 476 908 q 657 872 614 888 l 657 739 q 424 779 551 779 q 265 751 318 779 q 213 657 213 724 q 232 592 213 617 q 297 549 251 568 q 432 508 342 531 q 650 404 589 468 q 711 239 711 340 z "},"Ŝ":{"ha":771,"x_min":60,"x_max":711,"o":"m 329 1189 l 435 1189 l 608 965 l 488 965 l 382 1106 l 279 965 l 156 965 l 329 1189 m 358 -14 q 79 31 185 -14 l 79 164 q 344 114 208 114 q 508 140 457 114 q 558 239 558 167 q 537 312 558 285 q 467 358 515 339 q 321 403 418 378 q 118 498 176 440 q 60 657 60 556 q 147 842 60 776 q 403 908 235 908 q 545 898 476 908 q 657 872 614 888 l 657 739 q 424 779 551 779 q 265 751 318 779 q 213 657 213 724 q 232 592 213 617 q 297 549 251 568 q 432 508 342 531 q 650 404 589 468 q 711 239 711 340 q 622 53 711 119 q 358 -14 532 -14 z "},"Ș":{"ha":771,"x_min":60,"x_max":711,"o":"m 358 -14 q 79 31 185 -14 l 79 164 q 344 114 208 114 q 508 140 457 114 q 558 239 558 167 q 537 312 558 285 q 467 358 515 339 q 321 403 418 378 q 118 498 176 440 q 60 657 60 556 q 147 842 60 776 q 403 908 235 908 q 545 898 476 908 q 657 872 614 888 l 657 739 q 424 779 551 779 q 265 751 318 779 q 213 657 213 724 q 232 592 213 617 q 297 549 251 568 q 432 508 342 531 q 650 404 589 468 q 711 239 711 340 q 622 53 711 119 q 358 -14 532 -14 m 317 -69 l 450 -69 l 393 -310 l 278 -310 l 317 -69 z "},"Ṡ":{"ha":771,"x_min":60,"x_max":711,"o":"m 318 1110 l 446 1110 l 446 988 l 318 988 l 318 1110 m 358 -14 q 79 31 185 -14 l 79 164 q 344 114 208 114 q 508 140 457 114 q 558 239 558 167 q 537 312 558 285 q 467 358 515 339 q 321 403 418 378 q 118 498 176 440 q 60 657 60 556 q 147 842 60 776 q 403 908 235 908 q 545 898 476 908 q 657 872 614 888 l 657 739 q 424 779 551 779 q 265 751 318 779 q 213 657 213 724 q 232 592 213 617 q 297 549 251 568 q 432 508 342 531 q 650 404 589 468 q 711 239 711 340 q 622 53 711 119 q 358 -14 532 -14 z "},"Ṣ":{"ha":771,"x_min":60,"x_max":711,"o":"m 358 -14 q 79 31 185 -14 l 79 164 q 344 114 208 114 q 508 140 457 114 q 558 239 558 167 q 537 312 558 285 q 467 358 515 339 q 321 403 418 378 q 118 498 176 440 q 60 657 60 556 q 147 842 60 776 q 403 908 235 908 q 545 898 476 908 q 657 872 614 888 l 657 739 q 424 779 551 779 q 265 751 318 779 q 213 657 213 724 q 232 592 213 617 q 297 549 251 568 q 432 508 342 531 q 650 404 589 468 q 711 239 711 340 q 622 53 711 119 q 358 -14 532 -14 m 308 -118 l 439 -118 l 439 -240 l 308 -240 l 308 -118 z "},"ẞ":{"ha":868,"x_min":81,"x_max":807,"o":"m 535 -14 q 335 17 417 -14 l 335 144 q 415 122 368 129 q 507 114 461 114 q 663 256 663 114 q 626 347 663 319 q 515 374 590 374 l 382 374 l 382 501 l 629 656 q 580 748 629 713 q 432 783 531 783 q 276 738 326 783 q 226 596 226 692 l 226 0 l 81 0 l 81 592 q 172 826 81 743 q 432 908 263 908 q 688 827 603 908 q 772 617 772 746 l 536 474 l 586 474 q 747 413 686 474 q 807 254 807 353 q 734 60 807 133 q 535 -14 661 -14 z "},"Ə":{"ha":936,"x_min":60,"x_max":876,"o":"m 451 -14 q 159 87 258 -14 q 60 360 60 188 l 60 514 l 738 514 q 695 676 732 615 q 582 764 658 736 q 378 792 506 792 q 241 777 314 792 q 114 739 168 763 l 114 854 q 255 893 176 878 q 410 908 333 908 q 876 436 876 908 q 773 103 876 219 q 451 -14 669 -14 m 451 99 q 667 175 596 99 q 738 406 738 251 l 193 406 l 193 331 q 261 159 193 219 q 451 99 329 99 z "},"T":{"ha":789,"x_min":33,"x_max":756,"o":"m 319 776 l 33 776 l 33 894 l 756 894 l 756 776 l 471 776 l 471 0 l 319 0 l 319 776 z "},"Ŧ":{"ha":789,"x_min":33,"x_max":756,"o":"m 319 425 l 128 425 l 128 538 l 319 538 l 319 776 l 33 776 l 33 894 l 756 894 l 756 776 l 471 776 l 471 538 l 636 538 l 636 425 l 471 425 l 471 0 l 319 0 l 319 425 z "},"Ť":{"ha":789,"x_min":33,"x_max":756,"o":"m 168 1189 l 292 1189 l 394 1049 l 500 1189 l 621 1189 l 447 965 l 342 965 l 168 1189 m 319 776 l 33 776 l 33 894 l 756 894 l 756 776 l 471 776 l 471 0 l 319 0 l 319 776 z "},"Ţ":{"ha":789,"x_min":33,"x_max":756,"o":"m 443 0 l 421 -65 q 533 -98 494 -65 q 572 -190 572 -131 q 367 -333 572 -333 q 313 -330 344 -333 q 265 -322 281 -326 l 265 -240 q 351 -251 306 -251 q 443 -239 417 -251 q 469 -189 469 -226 q 444 -142 469 -153 q 357 -132 418 -132 l 301 -132 l 342 0 l 319 0 l 319 776 l 33 776 l 33 894 l 756 894 l 756 776 l 471 776 l 471 0 l 443 0 z "},"Ț":{"ha":789,"x_min":33,"x_max":756,"o":"m 319 776 l 33 776 l 33 894 l 756 894 l 756 776 l 471 776 l 471 0 l 319 0 l 319 776 m 336 -62 l 461 -62 l 397 -325 l 296 -325 l 336 -62 z "},"Ṭ":{"ha":789,"x_min":33,"x_max":756,"o":"m 319 776 l 33 776 l 33 894 l 756 894 l 756 776 l 471 776 l 471 0 l 319 0 l 319 776 m 329 -108 l 460 -108 l 460 -231 l 329 -231 l 329 -108 z "},"Ṯ":{"ha":789,"x_min":33,"x_max":756,"o":"m 319 776 l 33 776 l 33 894 l 756 894 l 756 776 l 471 776 l 471 0 l 319 0 l 319 776 m 188 -90 l 601 -90 l 601 -189 l 188 -189 l 188 -90 z "},"U":{"ha":936,"x_min":81,"x_max":856,"o":"m 469 -14 q 182 75 283 -14 q 81 332 81 164 l 81 894 l 232 894 l 232 338 q 293 170 232 226 q 469 114 354 114 q 644 170 583 114 q 706 338 706 226 l 706 894 l 856 894 l 856 332 q 755 75 856 164 q 469 -14 654 -14 z "},"Ú":{"ha":936,"x_min":81,"x_max":856,"o":"m 504 1201 l 638 1201 l 521 956 l 400 956 l 504 1201 m 469 -14 q 182 75 283 -14 q 81 332 81 164 l 81 894 l 232 894 l 232 338 q 293 170 232 226 q 469 114 354 114 q 644 170 583 114 q 706 338 706 226 l 706 894 l 856 894 l 856 332 q 755 75 856 164 q 469 -14 654 -14 z "},"Ŭ":{"ha":936,"x_min":81,"x_max":856,"o":"m 450 956 q 306 1008 358 956 q 254 1151 254 1061 l 357 1151 q 381 1074 357 1103 q 450 1046 406 1046 q 522 1074 496 1046 q 547 1151 547 1103 l 650 1151 q 597 1008 650 1061 q 450 956 543 956 m 469 -14 q 182 75 283 -14 q 81 332 81 164 l 81 894 l 232 894 l 232 338 q 293 170 232 226 q 469 114 354 114 q 644 170 583 114 q 706 338 706 226 l 706 894 l 856 894 l 856 332 q 755 75 856 164 q 469 -14 654 -14 z "},"Ǔ":{"ha":936,"x_min":81,"x_max":856,"o":"m 242 1178 l 365 1178 l 468 1038 l 574 1178 l 694 1178 l 521 954 l 415 954 l 242 1178 m 469 -14 q 182 75 283 -14 q 81 332 81 164 l 81 894 l 232 894 l 232 338 q 293 170 232 226 q 469 114 354 114 q 644 170 583 114 q 706 338 706 226 l 706 894 l 856 894 l 856 332 q 755 75 856 164 q 469 -14 654 -14 z "},"Û":{"ha":936,"x_min":81,"x_max":856,"o":"m 415 1178 l 521 1178 l 694 954 l 574 954 l 468 1094 l 365 954 l 242 954 l 415 1178 m 469 -14 q 182 75 283 -14 q 81 332 81 164 l 81 894 l 232 894 l 232 338 q 293 170 232 226 q 469 114 354 114 q 644 170 583 114 q 706 338 706 226 l 706 894 l 856 894 l 856 332 q 755 75 856 164 q 469 -14 654 -14 z "},"Ü":{"ha":936,"x_min":81,"x_max":856,"o":"m 267 1108 l 394 1108 l 394 989 l 267 989 l 267 1108 m 525 1108 l 653 1108 l 653 989 l 525 989 l 525 1108 m 469 -14 q 182 75 283 -14 q 81 332 81 164 l 81 894 l 232 894 l 232 338 q 293 170 232 226 q 469 114 354 114 q 644 170 583 114 q 706 338 706 226 l 706 894 l 856 894 l 856 332 q 755 75 856 164 q 469 -14 654 -14 z "},"Ǘ":{"ha":936,"x_min":81,"x_max":856,"o":"m 496 1268 l 611 1268 l 518 1092 l 411 1092 l 496 1268 m 268 1072 l 393 1072 l 393 956 l 268 956 l 268 1072 m 544 1072 l 668 1072 l 668 956 l 544 956 l 544 1072 m 469 -14 q 182 75 283 -14 q 81 332 81 164 l 81 894 l 232 894 l 232 338 q 293 170 232 226 q 469 114 354 114 q 644 170 583 114 q 706 338 706 226 l 706 894 l 856 894 l 856 332 q 755 75 856 164 q 469 -14 654 -14 z "},"Ǚ":{"ha":936,"x_min":81,"x_max":856,"o":"m 258 1256 l 376 1256 l 469 1147 l 564 1256 l 679 1256 l 524 1089 l 414 1089 l 258 1256 m 265 1072 l 390 1072 l 390 956 l 265 956 l 265 1072 m 542 1072 l 665 1072 l 665 956 l 542 956 l 542 1072 m 469 -14 q 182 75 283 -14 q 81 332 81 164 l 81 894 l 232 894 l 232 338 q 293 170 232 226 q 469 114 354 114 q 644 170 583 114 q 706 338 706 226 l 706 894 l 856 894 l 856 332 q 755 75 856 164 q 469 -14 654 -14 z "},"Ǜ":{"ha":936,"x_min":81,"x_max":856,"o":"m 322 1268 l 439 1268 l 522 1092 l 415 1092 l 322 1268 m 265 1072 l 390 1072 l 390 956 l 265 956 l 265 1072 m 542 1072 l 665 1072 l 665 956 l 542 956 l 542 1072 m 469 -14 q 182 75 283 -14 q 81 332 81 164 l 81 894 l 232 894 l 232 338 q 293 170 232 226 q 469 114 354 114 q 644 170 583 114 q 706 338 706 226 l 706 894 l 856 894 l 856 332 q 755 75 856 164 q 469 -14 654 -14 z "},"Ǖ":{"ha":936,"x_min":81,"x_max":856,"o":"m 261 1283 l 675 1283 l 675 1185 l 261 1185 l 261 1283 m 275 1096 l 403 1096 l 403 976 l 275 976 l 275 1096 m 533 1096 l 661 1096 l 661 976 l 533 976 l 533 1096 m 469 -14 q 182 75 283 -14 q 81 332 81 164 l 81 894 l 232 894 l 232 338 q 293 170 232 226 q 469 114 354 114 q 644 170 583 114 q 706 338 706 226 l 706 894 l 856 894 l 856 332 q 755 75 856 164 q 469 -14 654 -14 z "},"Ụ":{"ha":936,"x_min":81,"x_max":856,"o":"m 469 -14 q 182 75 283 -14 q 81 332 81 164 l 81 894 l 232 894 l 232 338 q 293 170 232 226 q 469 114 354 114 q 644 170 583 114 q 706 338 706 226 l 706 894 l 856 894 l 856 332 q 755 75 856 164 q 469 -14 654 -14 m 403 -118 l 533 -118 l 533 -240 l 403 -240 l 403 -118 z "},"Ù":{"ha":936,"x_min":81,"x_max":856,"o":"m 311 1201 l 443 1201 l 549 956 l 426 956 l 311 1201 m 469 -14 q 182 75 283 -14 q 81 332 81 164 l 81 894 l 232 894 l 232 338 q 293 170 232 226 q 469 114 354 114 q 644 170 583 114 q 706 338 706 226 l 706 894 l 856 894 l 856 332 q 755 75 856 164 q 469 -14 654 -14 z "},"Ủ":{"ha":936,"x_min":81,"x_max":856,"o":"m 406 1068 q 508 1087 482 1072 q 533 1138 533 1101 q 508 1182 533 1168 q 431 1196 482 1196 q 385 1191 410 1196 q 342 1179 360 1186 l 342 1261 q 399 1274 364 1269 q 471 1279 435 1279 q 601 1244 556 1279 q 646 1150 646 1210 q 618 1060 646 1092 q 524 1019 590 1029 l 524 954 l 406 954 l 406 1068 m 469 -14 q 182 75 283 -14 q 81 332 81 164 l 81 894 l 232 894 l 232 338 q 293 170 232 226 q 469 114 354 114 q 644 170 583 114 q 706 338 706 226 l 706 894 l 856 894 l 856 332 q 755 75 856 164 q 469 -14 654 -14 z "},"Ư":{"ha":1140,"x_min":81,"x_max":1107,"o":"m 469 -14 q 182 75 283 -14 q 81 332 81 164 l 81 894 l 232 894 l 232 338 q 293 170 232 226 q 469 114 354 114 q 644 170 583 114 q 706 338 706 226 l 706 894 l 856 894 l 856 797 q 961 833 932 800 q 990 956 990 867 l 1107 956 q 1081 799 1107 857 q 999 717 1054 742 q 856 690 944 692 l 856 332 q 755 75 856 164 q 469 -14 654 -14 z "},"Ứ":{"ha":1140,"x_min":81,"x_max":1107,"o":"m 522 1201 l 656 1201 l 539 956 l 418 956 l 522 1201 m 469 -14 q 182 75 283 -14 q 81 332 81 164 l 81 894 l 232 894 l 232 338 q 293 170 232 226 q 469 114 354 114 q 644 170 583 114 q 706 338 706 226 l 706 894 l 856 894 l 856 797 q 961 833 932 800 q 990 956 990 867 l 1107 956 q 1081 799 1107 857 q 999 717 1054 742 q 856 690 944 692 l 856 332 q 755 75 856 164 q 469 -14 654 -14 z "},"Ự":{"ha":1140,"x_min":81,"x_max":1107,"o":"m 469 -14 q 182 75 283 -14 q 81 332 81 164 l 81 894 l 232 894 l 232 338 q 293 170 232 226 q 469 114 354 114 q 644 170 583 114 q 706 338 706 226 l 706 894 l 856 894 l 856 797 q 961 833 932 800 q 990 956 990 867 l 1107 956 q 1081 799 1107 857 q 999 717 1054 742 q 856 690 944 692 l 856 332 q 755 75 856 164 q 469 -14 654 -14 m 400 -118 l 531 -118 l 531 -240 l 400 -240 l 400 -118 z "},"Ừ":{"ha":1140,"x_min":81,"x_max":1107,"o":"m 306 1201 l 438 1201 l 543 956 l 421 956 l 306 1201 m 469 -14 q 182 75 283 -14 q 81 332 81 164 l 81 894 l 232 894 l 232 338 q 293 170 232 226 q 469 114 354 114 q 644 170 583 114 q 706 338 706 226 l 706 894 l 856 894 l 856 797 q 961 833 932 800 q 990 956 990 867 l 1107 956 q 1081 799 1107 857 q 999 717 1054 742 q 856 690 944 692 l 856 332 q 755 75 856 164 q 469 -14 654 -14 z "},"Ử":{"ha":1140,"x_min":81,"x_max":1107,"o":"m 417 1068 q 519 1087 493 1072 q 544 1138 544 1101 q 519 1182 544 1168 q 442 1196 493 1196 q 396 1191 421 1196 q 353 1179 371 1186 l 353 1261 q 410 1274 375 1269 q 482 1279 446 1279 q 612 1244 567 1279 q 657 1150 657 1210 q 629 1060 657 1092 q 535 1019 601 1029 l 535 954 l 417 954 l 417 1068 m 469 -14 q 182 75 283 -14 q 81 332 81 164 l 81 894 l 232 894 l 232 338 q 293 170 232 226 q 469 114 354 114 q 644 170 583 114 q 706 338 706 226 l 706 894 l 856 894 l 856 797 q 961 833 932 800 q 990 956 990 867 l 1107 956 q 1081 799 1107 857 q 999 717 1054 742 q 856 690 944 692 l 856 332 q 755 75 856 164 q 469 -14 654 -14 z "},"Ữ":{"ha":1140,"x_min":81,"x_max":1107,"o":"m 579 974 q 529 981 553 974 q 464 1003 506 988 q 409 1022 429 1015 q 368 1028 389 1028 q 247 978 292 1028 l 247 1089 q 298 1119 265 1107 q 365 1131 331 1131 q 417 1124 393 1131 q 476 1103 442 1117 q 531 1083 508 1090 q 578 1076 553 1076 q 689 1128 650 1076 l 689 1017 q 645 985 675 997 q 579 974 615 974 m 469 -14 q 182 75 283 -14 q 81 332 81 164 l 81 894 l 232 894 l 232 338 q 293 170 232 226 q 469 114 354 114 q 644 170 583 114 q 706 338 706 226 l 706 894 l 856 894 l 856 797 q 961 833 932 800 q 990 956 990 867 l 1107 956 q 1081 799 1107 857 q 999 717 1054 742 q 856 690 944 692 l 856 332 q 755 75 856 164 q 469 -14 654 -14 z "},"Ű":{"ha":936,"x_min":81,"x_max":856,"o":"m 318 1182 l 456 1182 l 336 954 l 214 954 l 318 1182 m 619 1182 l 757 1182 l 638 954 l 515 954 l 619 1182 m 469 -14 q 182 75 283 -14 q 81 332 81 164 l 81 894 l 232 894 l 232 338 q 293 170 232 226 q 469 114 354 114 q 644 170 583 114 q 706 338 706 226 l 706 894 l 856 894 l 856 332 q 755 75 856 164 q 469 -14 654 -14 z "},"Ū":{"ha":936,"x_min":81,"x_max":856,"o":"m 253 1100 l 667 1100 l 667 1001 l 253 1001 l 253 1100 m 469 -14 q 182 75 283 -14 q 81 332 81 164 l 81 894 l 232 894 l 232 338 q 293 170 232 226 q 469 114 354 114 q 644 170 583 114 q 706 338 706 226 l 706 894 l 856 894 l 856 332 q 755 75 856 164 q 469 -14 654 -14 z "},"Ų":{"ha":936,"x_min":81,"x_max":856,"o":"m 856 894 l 856 332 q 777 98 856 185 q 554 -8 699 11 q 469 -156 469 -79 q 485 -199 469 -186 q 535 -211 501 -211 q 572 -207 553 -211 q 604 -196 592 -203 l 604 -287 q 557 -301 586 -296 q 497 -306 528 -306 q 391 -274 433 -306 q 349 -182 349 -243 q 372 -90 349 -135 q 435 -12 394 -46 q 173 84 265 -4 q 81 332 81 172 l 81 894 l 232 894 l 232 338 q 293 170 232 226 q 469 114 354 114 q 644 170 583 114 q 706 338 706 226 l 706 894 l 856 894 z "},"Ů":{"ha":936,"x_min":81,"x_max":856,"o":"m 458 954 q 342 999 386 954 q 297 1111 297 1044 q 342 1224 297 1179 q 458 1269 386 1269 q 577 1224 532 1269 q 622 1111 622 1179 q 577 999 622 1044 q 458 954 532 954 m 458 1029 q 519 1053 496 1029 q 543 1111 543 1076 q 519 1169 543 1146 q 458 1193 496 1193 q 399 1169 422 1193 q 376 1111 376 1146 q 399 1053 376 1076 q 458 1029 422 1029 m 469 -14 q 182 75 283 -14 q 81 332 81 164 l 81 894 l 232 894 l 232 338 q 293 170 232 226 q 469 114 354 114 q 644 170 583 114 q 706 338 706 226 l 706 894 l 856 894 l 856 332 q 755 75 856 164 q 469 -14 654 -14 z "},"Ũ":{"ha":936,"x_min":81,"x_max":856,"o":"m 571 976 q 521 983 544 976 q 456 1006 497 990 q 401 1024 421 1018 q 360 1031 381 1031 q 239 981 283 1031 l 239 1092 q 290 1122 257 1110 q 357 1133 322 1133 q 409 1126 385 1133 q 468 1106 433 1119 q 522 1086 500 1093 q 569 1079 544 1079 q 681 1131 642 1079 l 681 1019 q 637 988 667 1000 q 571 976 607 976 m 469 -14 q 182 75 283 -14 q 81 332 81 164 l 81 894 l 232 894 l 232 338 q 293 170 232 226 q 469 114 354 114 q 644 170 583 114 q 706 338 706 226 l 706 894 l 856 894 l 856 332 q 755 75 856 164 q 469 -14 654 -14 z "},"V":{"ha":972,"x_min":61,"x_max":911,"o":"m 61 894 l 218 894 l 486 163 l 754 894 l 911 894 l 572 0 l 403 0 l 61 894 z "},"W":{"ha":1207,"x_min":61,"x_max":1146,"o":"m 61 894 l 210 894 l 361 224 l 531 786 l 531 894 l 654 894 l 844 224 l 999 894 l 1146 894 l 939 0 l 790 0 l 611 626 l 421 0 l 269 0 l 61 894 z "},"Ẃ":{"ha":1207,"x_min":61,"x_max":1146,"o":"m 643 1201 l 776 1201 l 660 956 l 539 956 l 643 1201 m 61 894 l 210 894 l 361 224 l 531 786 l 531 894 l 654 894 l 844 224 l 999 894 l 1146 894 l 939 0 l 790 0 l 611 626 l 421 0 l 269 0 l 61 894 z "},"Ŵ":{"ha":1207,"x_min":61,"x_max":1146,"o":"m 557 1178 l 663 1178 l 836 954 l 715 954 l 610 1094 l 507 954 l 383 954 l 557 1178 m 61 894 l 210 894 l 361 224 l 531 786 l 531 894 l 654 894 l 844 224 l 999 894 l 1146 894 l 939 0 l 790 0 l 611 626 l 421 0 l 269 0 l 61 894 z "},"Ẅ":{"ha":1207,"x_min":61,"x_max":1146,"o":"m 418 1106 l 546 1106 l 546 986 l 418 986 l 418 1106 m 676 1106 l 804 1106 l 804 986 l 676 986 l 676 1106 m 61 894 l 210 894 l 361 224 l 531 786 l 531 894 l 654 894 l 844 224 l 999 894 l 1146 894 l 939 0 l 790 0 l 611 626 l 421 0 l 269 0 l 61 894 z "},"Ẁ":{"ha":1207,"x_min":61,"x_max":1146,"o":"m 407 1201 l 539 1201 l 644 956 l 522 956 l 407 1201 m 61 894 l 210 894 l 361 224 l 531 786 l 531 894 l 654 894 l 844 224 l 999 894 l 1146 894 l 939 0 l 790 0 l 611 626 l 421 0 l 269 0 l 61 894 z "},"X":{"ha":940,"x_min":60,"x_max":879,"o":"m 379 446 l 67 894 l 242 894 l 469 563 l 697 894 l 874 894 l 560 446 l 879 0 l 701 0 l 469 328 l 238 0 l 60 0 l 379 446 z "},"Y":{"ha":911,"x_min":60,"x_max":851,"o":"m 381 332 l 60 894 l 217 894 l 456 460 l 694 894 l 851 894 l 531 332 l 531 0 l 381 0 l 381 332 z "},"Ý":{"ha":911,"x_min":60,"x_max":851,"o":"m 485 1201 l 618 1201 l 501 956 l 381 956 l 485 1201 m 381 332 l 60 894 l 217 894 l 456 460 l 694 894 l 851 894 l 531 332 l 531 0 l 381 0 l 381 332 z "},"Ŷ":{"ha":911,"x_min":60,"x_max":851,"o":"m 403 1178 l 508 1178 l 682 954 l 561 954 l 456 1094 l 353 954 l 229 954 l 403 1178 m 381 332 l 60 894 l 217 894 l 456 460 l 694 894 l 851 894 l 531 332 l 531 0 l 381 0 l 381 332 z "},"Ÿ":{"ha":911,"x_min":60,"x_max":851,"o":"m 263 1108 l 390 1108 l 390 989 l 263 989 l 263 1108 m 521 1108 l 649 1108 l 649 989 l 521 989 l 521 1108 m 381 332 l 60 894 l 217 894 l 456 460 l 694 894 l 851 894 l 531 332 l 531 0 l 381 0 l 381 332 z "},"Ẏ":{"ha":911,"x_min":60,"x_max":851,"o":"m 392 1110 l 519 1110 l 519 988 l 392 988 l 392 1110 m 381 332 l 60 894 l 217 894 l 456 460 l 694 894 l 851 894 l 531 332 l 531 0 l 381 0 l 381 332 z "},"Ỵ":{"ha":911,"x_min":60,"x_max":851,"o":"m 381 332 l 60 894 l 217 894 l 456 460 l 694 894 l 851 894 l 531 332 l 531 0 l 381 0 l 381 332 m 390 -101 l 521 -101 l 521 -224 l 390 -224 l 390 -101 z "},"Ỳ":{"ha":911,"x_min":60,"x_max":851,"o":"m 294 1201 l 426 1201 l 532 956 l 410 956 l 294 1201 m 381 332 l 60 894 l 217 894 l 456 460 l 694 894 l 851 894 l 531 332 l 531 0 l 381 0 l 381 332 z "},"Ỷ":{"ha":911,"x_min":60,"x_max":851,"o":"m 386 1068 q 488 1087 463 1072 q 514 1138 514 1101 q 488 1182 514 1168 q 411 1196 463 1196 q 365 1191 390 1196 q 322 1179 340 1186 l 322 1261 q 380 1274 344 1269 q 451 1279 415 1279 q 581 1244 536 1279 q 626 1150 626 1210 q 599 1060 626 1092 q 504 1019 571 1029 l 504 954 l 386 954 l 386 1068 m 381 332 l 60 894 l 217 894 l 456 460 l 694 894 l 851 894 l 531 332 l 531 0 l 381 0 l 381 332 z "},"Ỹ":{"ha":911,"x_min":60,"x_max":851,"o":"m 567 976 q 517 983 540 976 q 451 1006 493 990 q 397 1024 417 1018 q 356 1031 376 1031 q 235 981 279 1031 l 235 1092 q 285 1122 253 1110 q 353 1133 318 1133 q 405 1126 381 1133 q 464 1106 429 1119 q 518 1086 496 1093 q 565 1079 540 1079 q 676 1131 638 1079 l 676 1019 q 633 988 663 1000 q 567 976 603 976 m 381 332 l 60 894 l 217 894 l 456 460 l 694 894 l 851 894 l 531 332 l 531 0 l 381 0 l 381 332 z "},"Z":{"ha":799,"x_min":60,"x_max":742,"o":"m 60 81 l 540 771 l 83 771 l 83 894 l 735 894 l 735 801 l 258 117 l 742 117 l 742 0 l 60 0 l 60 81 z "},"Ź":{"ha":799,"x_min":60,"x_max":742,"o":"m 451 1201 l 585 1201 l 468 956 l 347 956 l 451 1201 m 60 81 l 540 771 l 83 771 l 83 894 l 735 894 l 735 801 l 258 117 l 742 117 l 742 0 l 60 0 l 60 81 z "},"Ž":{"ha":799,"x_min":60,"x_max":742,"o":"m 200 1178 l 324 1178 l 426 1038 l 532 1178 l 653 1178 l 479 954 l 374 954 l 200 1178 m 60 81 l 540 771 l 83 771 l 83 894 l 735 894 l 735 801 l 258 117 l 742 117 l 742 0 l 60 0 l 60 81 z "},"Ż":{"ha":799,"x_min":60,"x_max":742,"o":"m 351 1110 l 479 1110 l 479 988 l 351 988 l 351 1110 m 60 81 l 540 771 l 83 771 l 83 894 l 735 894 l 735 801 l 258 117 l 742 117 l 742 0 l 60 0 l 60 81 z "},"Ẓ":{"ha":799,"x_min":60,"x_max":742,"o":"m 60 81 l 540 771 l 83 771 l 83 894 l 735 894 l 735 801 l 258 117 l 742 117 l 742 0 l 60 0 l 60 81 m 356 -118 l 486 -118 l 486 -240 l 356 -240 l 356 -118 z "},"a":{"ha":760,"x_min":60,"x_max":679,"o":"m 293 -14 q 126 38 193 -14 q 60 188 60 90 q 126 341 60 285 q 324 397 192 397 l 535 397 l 535 426 q 520 502 535 475 q 467 542 506 529 q 356 554 428 554 q 138 519 239 554 l 138 632 q 249 661 185 650 q 383 672 313 672 q 605 613 531 672 q 679 424 679 553 l 679 0 l 550 0 l 540 67 q 439 6 499 26 q 293 -14 379 -14 m 333 94 q 450 117 399 94 q 535 179 501 139 l 535 294 l 326 294 q 230 269 260 294 q 200 190 200 244 q 233 117 200 140 q 333 94 267 94 z "},"á":{"ha":763,"x_min":60,"x_max":679,"o":"m 432 971 l 565 971 l 449 725 l 328 725 l 432 971 m 293 -14 q 126 38 193 -14 q 60 188 60 90 q 126 341 60 285 q 324 397 192 397 l 535 397 l 535 426 q 520 502 535 475 q 467 542 506 529 q 356 554 428 554 q 138 519 239 554 l 138 632 q 249 661 185 650 q 383 672 313 672 q 605 613 531 672 q 679 424 679 553 l 679 0 l 550 0 l 540 67 q 439 6 499 26 q 293 -14 379 -14 m 333 94 q 450 117 399 94 q 535 179 501 139 l 535 294 l 326 294 q 230 269 260 294 q 200 190 200 244 q 233 117 200 140 q 333 94 267 94 z "},"ă":{"ha":760,"x_min":60,"x_max":679,"o":"m 404 725 q 260 778 313 725 q 208 921 208 831 l 311 921 q 335 844 311 872 q 404 815 360 815 q 476 844 450 815 q 501 921 501 872 l 604 921 q 551 778 604 831 q 404 725 497 725 m 293 -14 q 126 38 193 -14 q 60 188 60 90 q 126 341 60 285 q 324 397 192 397 l 535 397 l 535 426 q 520 502 535 475 q 467 542 506 529 q 356 554 428 554 q 138 519 239 554 l 138 632 q 249 661 185 650 q 383 672 313 672 q 605 613 531 672 q 679 424 679 553 l 679 0 l 550 0 l 540 67 q 439 6 499 26 q 293 -14 379 -14 m 333 94 q 450 117 399 94 q 535 179 501 139 l 535 294 l 326 294 q 230 269 260 294 q 200 190 200 244 q 233 117 200 140 q 333 94 267 94 z "},"ắ":{"ha":760,"x_min":60,"x_max":679,"o":"m 432 1072 l 549 1072 l 450 888 l 343 888 l 432 1072 m 408 725 q 251 775 311 725 q 192 931 192 825 l 283 931 q 317 839 283 871 q 408 807 350 807 q 500 839 467 807 q 533 931 533 871 l 625 931 q 565 775 625 825 q 408 725 506 725 m 293 -14 q 126 38 193 -14 q 60 188 60 90 q 126 341 60 285 q 324 397 192 397 l 535 397 l 535 426 q 520 502 535 475 q 467 542 506 529 q 356 554 428 554 q 138 519 239 554 l 138 632 q 249 661 185 650 q 383 672 313 672 q 605 613 531 672 q 679 424 679 553 l 679 0 l 550 0 l 540 67 q 439 6 499 26 q 293 -14 379 -14 m 333 94 q 450 117 399 94 q 535 179 501 139 l 535 294 l 326 294 q 230 269 260 294 q 200 190 200 244 q 233 117 200 140 q 333 94 267 94 z "},"ặ":{"ha":760,"x_min":60,"x_max":679,"o":"m 401 725 q 258 778 310 725 q 206 921 206 831 l 308 921 q 333 844 308 872 q 401 815 357 815 q 473 844 447 815 q 499 921 499 872 l 601 921 q 548 778 601 831 q 401 725 494 725 m 293 -14 q 126 38 193 -14 q 60 188 60 90 q 126 341 60 285 q 324 397 192 397 l 535 397 l 535 426 q 520 502 535 475 q 467 542 506 529 q 356 554 428 554 q 138 519 239 554 l 138 632 q 249 661 185 650 q 383 672 313 672 q 605 613 531 672 q 679 424 679 553 l 679 0 l 550 0 l 540 67 q 439 6 499 26 q 293 -14 379 -14 m 333 94 q 450 117 399 94 q 535 179 501 139 l 535 294 l 326 294 q 230 269 260 294 q 200 190 200 244 q 233 117 200 140 q 333 94 267 94 m 338 -118 l 468 -118 l 468 -240 l 338 -240 l 338 -118 z "},"ằ":{"ha":760,"x_min":60,"x_max":679,"o":"m 246 1072 l 363 1072 l 451 888 l 344 888 l 246 1072 m 386 725 q 229 775 289 725 q 169 931 169 825 l 261 931 q 294 839 261 871 q 386 807 328 807 q 478 839 444 807 q 511 931 511 871 l 603 931 q 543 775 603 825 q 386 725 483 725 m 293 -14 q 126 38 193 -14 q 60 188 60 90 q 126 341 60 285 q 324 397 192 397 l 535 397 l 535 426 q 520 502 535 475 q 467 542 506 529 q 356 554 428 554 q 138 519 239 554 l 138 632 q 249 661 185 650 q 383 672 313 672 q 605 613 531 672 q 679 424 679 553 l 679 0 l 550 0 l 540 67 q 439 6 499 26 q 293 -14 379 -14 m 333 94 q 450 117 399 94 q 535 179 501 139 l 535 294 l 326 294 q 230 269 260 294 q 200 190 200 244 q 233 117 200 140 q 333 94 267 94 z "},"ẳ":{"ha":760,"x_min":60,"x_max":679,"o":"m 325 976 q 413 993 389 979 q 438 1036 438 1007 q 420 1072 438 1063 q 365 1082 403 1082 q 289 1065 326 1082 l 289 1136 q 401 1153 336 1153 q 503 1124 467 1153 q 539 1046 539 1096 q 514 975 539 1000 q 431 940 489 950 l 431 894 l 325 894 l 325 976 m 386 725 q 229 775 289 725 q 169 931 169 825 l 261 931 q 294 839 261 871 q 386 807 328 807 q 478 839 444 807 q 511 931 511 871 l 603 931 q 543 775 603 825 q 386 725 483 725 m 293 -14 q 126 38 193 -14 q 60 188 60 90 q 126 341 60 285 q 324 397 192 397 l 535 397 l 535 426 q 520 502 535 475 q 467 542 506 529 q 356 554 428 554 q 138 519 239 554 l 138 632 q 249 661 185 650 q 383 672 313 672 q 605 613 531 672 q 679 424 679 553 l 679 0 l 550 0 l 540 67 q 439 6 499 26 q 293 -14 379 -14 m 333 94 q 450 117 399 94 q 535 179 501 139 l 535 294 l 326 294 q 230 269 260 294 q 200 190 200 244 q 233 117 200 140 q 333 94 267 94 z "},"ẵ":{"ha":760,"x_min":60,"x_max":679,"o":"m 496 960 q 445 967 469 960 q 385 988 421 974 q 348 1001 378 990 q 292 1011 318 1011 q 176 964 219 1011 l 176 1063 q 226 1092 194 1081 q 290 1103 257 1103 q 340 1096 317 1103 q 397 1075 364 1089 q 451 1056 431 1063 q 494 1050 471 1050 q 601 1100 567 1050 l 601 1000 q 559 971 588 982 q 496 960 531 960 m 388 725 q 231 775 290 725 q 171 931 171 825 l 263 931 q 296 839 263 871 q 388 807 329 807 q 479 839 446 807 q 513 931 513 871 l 604 931 q 544 775 604 825 q 388 725 485 725 m 293 -14 q 126 38 193 -14 q 60 188 60 90 q 126 341 60 285 q 324 397 192 397 l 535 397 l 535 426 q 520 502 535 475 q 467 542 506 529 q 356 554 428 554 q 138 519 239 554 l 138 632 q 249 661 185 650 q 383 672 313 672 q 605 613 531 672 q 679 424 679 553 l 679 0 l 550 0 l 540 67 q 439 6 499 26 q 293 -14 379 -14 m 333 94 q 450 117 399 94 q 535 179 501 139 l 535 294 l 326 294 q 230 269 260 294 q 200 190 200 244 q 233 117 200 140 q 333 94 267 94 z "},"ǎ":{"ha":760,"x_min":60,"x_max":679,"o":"m 167 947 l 290 947 l 393 807 l 499 947 l 619 947 l 446 724 l 340 724 l 167 947 m 293 -14 q 126 38 193 -14 q 60 188 60 90 q 126 341 60 285 q 324 397 192 397 l 535 397 l 535 426 q 520 502 535 475 q 467 542 506 529 q 356 554 428 554 q 138 519 239 554 l 138 632 q 249 661 185 650 q 383 672 313 672 q 605 613 531 672 q 679 424 679 553 l 679 0 l 550 0 l 540 67 q 439 6 499 26 q 293 -14 379 -14 m 333 94 q 450 117 399 94 q 535 179 501 139 l 535 294 l 326 294 q 230 269 260 294 q 200 190 200 244 q 233 117 200 140 q 333 94 267 94 z "},"â":{"ha":760,"x_min":60,"x_max":679,"o":"m 343 947 l 449 947 l 622 724 l 501 724 l 396 864 l 293 724 l 169 724 l 343 947 m 293 -14 q 126 38 193 -14 q 60 188 60 90 q 126 341 60 285 q 324 397 192 397 l 535 397 l 535 426 q 520 502 535 475 q 467 542 506 529 q 356 554 428 554 q 138 519 239 554 l 138 632 q 249 661 185 650 q 383 672 313 672 q 605 613 531 672 q 679 424 679 553 l 679 0 l 550 0 l 540 67 q 439 6 499 26 q 293 -14 379 -14 m 333 94 q 450 117 399 94 q 535 179 501 139 l 535 294 l 326 294 q 230 269 260 294 q 200 190 200 244 q 233 117 200 140 q 333 94 267 94 z "},"ấ":{"ha":760,"x_min":60,"x_max":729,"o":"m 614 1065 l 729 1065 l 632 881 l 525 881 l 614 1065 m 340 900 l 457 900 l 622 724 l 499 724 l 399 838 l 301 724 l 175 724 l 340 900 m 293 -14 q 126 38 193 -14 q 60 188 60 90 q 126 341 60 285 q 324 397 192 397 l 535 397 l 535 426 q 520 502 535 475 q 467 542 506 529 q 356 554 428 554 q 138 519 239 554 l 138 632 q 249 661 185 650 q 383 672 313 672 q 605 613 531 672 q 679 424 679 553 l 679 0 l 550 0 l 540 67 q 439 6 499 26 q 293 -14 379 -14 m 333 94 q 450 117 399 94 q 535 179 501 139 l 535 294 l 326 294 q 230 269 260 294 q 200 190 200 244 q 233 117 200 140 q 333 94 267 94 z "},"ậ":{"ha":760,"x_min":60,"x_max":679,"o":"m 340 947 l 446 947 l 619 724 l 499 724 l 393 864 l 290 724 l 167 724 l 340 947 m 293 -14 q 126 38 193 -14 q 60 188 60 90 q 126 341 60 285 q 324 397 192 397 l 535 397 l 535 426 q 520 502 535 475 q 467 542 506 529 q 356 554 428 554 q 138 519 239 554 l 138 632 q 249 661 185 650 q 383 672 313 672 q 605 613 531 672 q 679 424 679 553 l 679 0 l 550 0 l 540 67 q 439 6 499 26 q 293 -14 379 -14 m 333 94 q 450 117 399 94 q 535 179 501 139 l 535 294 l 326 294 q 230 269 260 294 q 200 190 200 244 q 233 117 200 140 q 333 94 267 94 m 328 -118 l 458 -118 l 458 -240 l 328 -240 l 328 -118 z "},"ầ":{"ha":760,"x_min":53,"x_max":679,"o":"m 53 1065 l 169 1065 l 258 881 l 151 881 l 53 1065 m 325 900 l 443 900 l 607 724 l 482 724 l 383 838 l 285 724 l 161 724 l 325 900 m 293 -14 q 126 38 193 -14 q 60 188 60 90 q 126 341 60 285 q 324 397 192 397 l 535 397 l 535 426 q 520 502 535 475 q 467 542 506 529 q 356 554 428 554 q 138 519 239 554 l 138 632 q 249 661 185 650 q 383 672 313 672 q 605 613 531 672 q 679 424 679 553 l 679 0 l 550 0 l 540 67 q 439 6 499 26 q 293 -14 379 -14 m 333 94 q 450 117 399 94 q 535 179 501 139 l 535 294 l 326 294 q 230 269 260 294 q 200 190 200 244 q 233 117 200 140 q 333 94 267 94 z "},"ẩ":{"ha":760,"x_min":60,"x_max":740,"o":"m 526 942 q 612 957 590 944 q 633 996 633 969 q 617 1028 633 1018 q 568 1039 601 1039 q 490 1022 528 1039 l 490 1096 q 597 1113 538 1113 q 702 1083 664 1113 q 740 1004 740 1054 q 715 932 740 958 q 633 897 689 906 l 633 850 l 526 850 l 526 942 m 329 899 l 447 899 l 611 722 l 488 722 l 389 836 l 290 722 l 165 722 l 329 899 m 293 -14 q 126 38 193 -14 q 60 188 60 90 q 126 341 60 285 q 324 397 192 397 l 535 397 l 535 426 q 520 502 535 475 q 467 542 506 529 q 356 554 428 554 q 138 519 239 554 l 138 632 q 249 661 185 650 q 383 672 313 672 q 605 613 531 672 q 679 424 679 553 l 679 0 l 550 0 l 540 67 q 439 6 499 26 q 293 -14 379 -14 m 333 94 q 450 117 399 94 q 535 179 501 139 l 535 294 l 326 294 q 230 269 260 294 q 200 190 200 244 q 233 117 200 140 q 333 94 267 94 z "},"ẫ":{"ha":760,"x_min":60,"x_max":679,"o":"m 510 911 q 459 918 483 911 q 399 939 435 925 q 346 958 365 951 q 306 964 326 964 q 190 915 233 964 l 190 1014 q 240 1043 208 1032 q 304 1054 271 1054 q 352 1048 331 1054 q 411 1028 374 1042 q 465 1009 444 1015 q 508 1003 485 1003 q 615 1051 579 1003 l 615 953 q 573 923 601 935 q 510 911 544 911 m 336 900 l 454 900 l 618 724 l 494 724 l 396 838 l 297 724 l 172 724 l 336 900 m 293 -14 q 126 38 193 -14 q 60 188 60 90 q 126 341 60 285 q 324 397 192 397 l 535 397 l 535 426 q 520 502 535 475 q 467 542 506 529 q 356 554 428 554 q 138 519 239 554 l 138 632 q 249 661 185 650 q 383 672 313 672 q 605 613 531 672 q 679 424 679 553 l 679 0 l 550 0 l 540 67 q 439 6 499 26 q 293 -14 379 -14 m 333 94 q 450 117 399 94 q 535 179 501 139 l 535 294 l 326 294 q 230 269 260 294 q 200 190 200 244 q 233 117 200 140 q 333 94 267 94 z "},"ä":{"ha":760,"x_min":60,"x_max":679,"o":"m 211 878 l 339 878 l 339 758 l 211 758 l 211 878 m 469 878 l 597 878 l 597 758 l 469 758 l 469 878 m 293 -14 q 126 38 193 -14 q 60 188 60 90 q 126 341 60 285 q 324 397 192 397 l 535 397 l 535 426 q 520 502 535 475 q 467 542 506 529 q 356 554 428 554 q 138 519 239 554 l 138 632 q 249 661 185 650 q 383 672 313 672 q 605 613 531 672 q 679 424 679 553 l 679 0 l 550 0 l 540 67 q 439 6 499 26 q 293 -14 379 -14 m 333 94 q 450 117 399 94 q 535 179 501 139 l 535 294 l 326 294 q 230 269 260 294 q 200 190 200 244 q 233 117 200 140 q 333 94 267 94 z "},"ạ":{"ha":760,"x_min":60,"x_max":679,"o":"m 293 -14 q 126 38 193 -14 q 60 188 60 90 q 126 341 60 285 q 324 397 192 397 l 535 397 l 535 426 q 520 502 535 475 q 467 542 506 529 q 356 554 428 554 q 138 519 239 554 l 138 632 q 249 661 185 650 q 383 672 313 672 q 605 613 531 672 q 679 424 679 553 l 679 0 l 550 0 l 540 67 q 439 6 499 26 q 293 -14 379 -14 m 333 94 q 450 117 399 94 q 535 179 501 139 l 535 294 l 326 294 q 230 269 260 294 q 200 190 200 244 q 233 117 200 140 q 333 94 267 94 m 335 -118 l 465 -118 l 465 -240 l 335 -240 l 335 -118 z "},"à":{"ha":760,"x_min":60,"x_max":679,"o":"m 233 971 l 365 971 l 471 725 l 349 725 l 233 971 m 293 -14 q 126 38 193 -14 q 60 188 60 90 q 126 341 60 285 q 324 397 192 397 l 535 397 l 535 426 q 520 502 535 475 q 467 542 506 529 q 356 554 428 554 q 138 519 239 554 l 138 632 q 249 661 185 650 q 383 672 313 672 q 605 613 531 672 q 679 424 679 553 l 679 0 l 550 0 l 540 67 q 439 6 499 26 q 293 -14 379 -14 m 333 94 q 450 117 399 94 q 535 179 501 139 l 535 294 l 326 294 q 230 269 260 294 q 200 190 200 244 q 233 117 200 140 q 333 94 267 94 z "},"ả":{"ha":760,"x_min":60,"x_max":679,"o":"m 325 838 q 427 856 401 842 q 453 907 453 871 q 427 951 453 938 q 350 965 401 965 q 304 960 329 965 q 261 949 279 956 l 261 1031 q 319 1044 283 1039 q 390 1049 354 1049 q 520 1014 475 1049 q 565 919 565 979 q 538 830 565 861 q 443 789 510 799 l 443 724 l 325 724 l 325 838 m 293 -14 q 126 38 193 -14 q 60 188 60 90 q 126 341 60 285 q 324 397 192 397 l 535 397 l 535 426 q 520 502 535 475 q 467 542 506 529 q 356 554 428 554 q 138 519 239 554 l 138 632 q 249 661 185 650 q 383 672 313 672 q 605 613 531 672 q 679 424 679 553 l 679 0 l 550 0 l 540 67 q 439 6 499 26 q 293 -14 379 -14 m 333 94 q 450 117 399 94 q 535 179 501 139 l 535 294 l 326 294 q 230 269 260 294 q 200 190 200 244 q 233 117 200 140 q 333 94 267 94 z "},"ɑ":{"ha":810,"x_min":60,"x_max":721,"o":"m 360 -14 q 138 60 217 -14 q 60 303 60 133 q 101 499 60 415 q 216 628 143 583 q 378 672 289 672 q 482 658 438 672 q 569 613 526 644 l 569 658 l 721 658 l 721 0 l 592 0 l 582 65 q 483 5 536 24 q 360 -14 431 -14 m 400 100 q 569 169 501 100 l 569 496 q 501 542 536 526 q 418 557 465 557 q 265 491 317 557 q 213 301 213 425 q 256 144 213 188 q 400 100 300 100 z "},"ā":{"ha":760,"x_min":60,"x_max":679,"o":"m 192 853 l 606 853 l 606 754 l 192 754 l 192 853 m 293 -14 q 126 38 193 -14 q 60 188 60 90 q 126 341 60 285 q 324 397 192 397 l 535 397 l 535 426 q 520 502 535 475 q 467 542 506 529 q 356 554 428 554 q 138 519 239 554 l 138 632 q 249 661 185 650 q 383 672 313 672 q 605 613 531 672 q 679 424 679 553 l 679 0 l 550 0 l 540 67 q 439 6 499 26 q 293 -14 379 -14 m 333 94 q 450 117 399 94 q 535 179 501 139 l 535 294 l 326 294 q 230 269 260 294 q 200 190 200 244 q 233 117 200 140 q 333 94 267 94 z "},"ą":{"ha":772,"x_min":60,"x_max":703,"o":"m 633 -211 q 671 -207 651 -211 q 703 -196 690 -203 l 703 -287 q 656 -301 685 -296 q 596 -306 626 -306 q 490 -274 532 -306 q 447 -182 447 -243 q 475 -81 447 -129 q 550 0 503 -33 l 540 67 q 439 6 499 26 q 293 -14 379 -14 q 126 38 193 -14 q 60 188 60 90 q 126 341 60 285 q 324 397 192 397 l 535 397 l 535 426 q 520 502 535 475 q 467 542 506 529 q 356 554 428 554 q 138 519 239 554 l 138 632 q 249 661 185 650 q 383 672 313 672 q 605 613 531 672 q 679 424 679 553 l 679 0 l 664 0 q 593 -75 618 -35 q 568 -156 568 -115 q 584 -199 568 -186 q 633 -211 600 -211 m 535 294 l 326 294 q 230 269 260 294 q 200 190 200 244 q 233 117 200 140 q 333 94 267 94 q 450 117 399 94 q 535 179 501 139 l 535 294 z "},"å":{"ha":760,"x_min":60,"x_max":679,"o":"m 404 724 q 288 769 332 724 q 243 881 243 814 q 288 994 243 949 q 404 1039 332 1039 q 523 994 478 1039 q 568 881 568 949 q 523 769 568 814 q 404 724 478 724 m 404 799 q 465 822 442 799 q 489 881 489 846 q 465 939 489 915 q 404 963 442 963 q 345 939 368 963 q 322 881 322 915 q 345 822 322 846 q 404 799 368 799 m 293 -14 q 126 38 193 -14 q 60 188 60 90 q 126 341 60 285 q 324 397 192 397 l 535 397 l 535 426 q 520 502 535 475 q 467 542 506 529 q 356 554 428 554 q 138 519 239 554 l 138 632 q 249 661 185 650 q 383 672 313 672 q 605 613 531 672 q 679 424 679 553 l 679 0 l 550 0 l 540 67 q 439 6 499 26 q 293 -14 379 -14 m 333 94 q 450 117 399 94 q 535 179 501 139 l 535 294 l 326 294 q 230 269 260 294 q 200 190 200 244 q 233 117 200 140 q 333 94 267 94 z "},"ǻ":{"ha":760,"x_min":60,"x_max":679,"o":"m 431 1285 l 564 1285 l 447 1089 l 326 1089 l 431 1285 m 392 718 q 275 763 319 718 q 231 875 231 808 q 275 988 231 943 q 392 1033 319 1033 q 510 988 465 1033 q 556 875 556 943 q 510 763 556 808 q 392 718 465 718 m 392 793 q 453 817 429 793 q 476 875 476 840 q 453 933 476 910 q 392 957 429 957 q 333 933 356 957 q 310 875 310 910 q 333 817 310 840 q 392 793 356 793 m 293 -14 q 126 38 193 -14 q 60 188 60 90 q 126 341 60 285 q 324 397 192 397 l 535 397 l 535 426 q 520 502 535 475 q 467 542 506 529 q 356 554 428 554 q 138 519 239 554 l 138 632 q 249 661 185 650 q 383 672 313 672 q 605 613 531 672 q 679 424 679 553 l 679 0 l 550 0 l 540 67 q 439 6 499 26 q 293 -14 379 -14 m 333 94 q 450 117 399 94 q 535 179 501 139 l 535 294 l 326 294 q 230 269 260 294 q 200 190 200 244 q 233 117 200 140 q 333 94 267 94 z "},"ã":{"ha":760,"x_min":60,"x_max":679,"o":"m 511 746 q 461 753 485 746 q 396 775 438 760 q 341 794 361 788 q 300 800 321 800 q 179 750 224 800 l 179 861 q 230 891 197 879 q 297 903 263 903 q 349 896 325 903 q 408 875 374 889 q 463 856 440 863 q 510 849 485 849 q 621 900 582 849 l 621 789 q 577 758 607 769 q 511 746 547 746 m 293 -14 q 126 38 193 -14 q 60 188 60 90 q 126 341 60 285 q 324 397 192 397 l 535 397 l 535 426 q 520 502 535 475 q 467 542 506 529 q 356 554 428 554 q 138 519 239 554 l 138 632 q 249 661 185 650 q 383 672 313 672 q 605 613 531 672 q 679 424 679 553 l 679 0 l 550 0 l 540 67 q 439 6 499 26 q 293 -14 379 -14 m 333 94 q 450 117 399 94 q 535 179 501 139 l 535 294 l 326 294 q 230 269 260 294 q 200 190 200 244 q 233 117 200 140 q 333 94 267 94 z "},"æ":{"ha":1224,"x_min":60,"x_max":1164,"o":"m 301 -14 q 128 38 197 -14 q 60 188 60 90 q 126 341 60 285 q 324 397 192 397 l 535 397 l 535 426 q 520 502 535 475 q 467 542 506 529 q 356 554 428 554 q 138 519 239 554 l 138 632 q 249 661 185 650 q 383 672 313 672 q 624 585 553 672 q 725 649 664 626 q 863 672 786 672 q 1086 596 1008 672 q 1164 392 1164 519 l 1164 269 l 682 269 q 750 138 693 175 q 929 100 807 100 q 1033 109 981 100 q 1124 135 1085 118 l 1124 25 q 899 -14 1036 -14 q 733 15 806 -14 q 619 101 661 44 q 490 16 563 46 q 301 -14 418 -14 m 1031 368 l 1031 414 q 992 522 1031 485 q 867 558 953 558 q 723 514 764 558 q 682 368 682 469 l 1031 368 m 333 94 q 451 115 403 94 q 535 176 499 136 l 535 294 l 326 294 q 230 269 260 294 q 200 190 200 244 q 233 117 200 140 q 333 94 267 94 z "},"ǽ":{"ha":1224,"x_min":60,"x_max":1164,"o":"m 649 971 l 782 971 l 665 725 l 544 725 l 649 971 m 301 -14 q 128 38 197 -14 q 60 188 60 90 q 126 341 60 285 q 324 397 192 397 l 535 397 l 535 426 q 520 502 535 475 q 467 542 506 529 q 356 554 428 554 q 138 519 239 554 l 138 632 q 249 661 185 650 q 383 672 313 672 q 624 585 553 672 q 725 649 664 626 q 863 672 786 672 q 1086 596 1008 672 q 1164 392 1164 519 l 1164 269 l 682 269 q 750 138 693 175 q 929 100 807 100 q 1033 109 981 100 q 1124 135 1085 118 l 1124 25 q 899 -14 1036 -14 q 733 15 806 -14 q 619 101 661 44 q 490 16 563 46 q 301 -14 418 -14 m 1031 368 l 1031 414 q 992 522 1031 485 q 867 558 953 558 q 723 514 764 558 q 682 368 682 469 l 1031 368 m 333 94 q 451 115 403 94 q 535 176 499 136 l 535 294 l 326 294 q 230 269 260 294 q 200 190 200 244 q 233 117 200 140 q 333 94 267 94 z "},"b":{"ha":808,"x_min":88,"x_max":749,"o":"m 449 -14 q 325 5 378 -14 q 226 65 272 24 l 218 0 l 88 0 l 88 936 l 239 936 l 239 615 q 446 672 324 672 q 670 590 592 672 q 749 335 749 507 q 670 73 749 160 q 449 -14 592 -14 m 408 100 q 552 157 508 100 q 596 335 596 214 q 551 506 596 456 q 406 557 506 557 q 239 500 303 557 l 239 169 q 408 100 304 100 z "},"c":{"ha":685,"x_min":60,"x_max":625,"o":"m 411 -14 q 149 74 238 -14 q 60 329 60 161 q 156 585 60 499 q 419 672 251 672 q 533 663 486 672 q 624 632 579 653 l 624 519 q 449 556 551 556 q 272 503 331 556 q 213 329 213 450 q 267 156 213 210 q 446 101 322 101 q 625 139 544 101 l 625 24 q 411 -14 533 -14 z "},"ć":{"ha":685,"x_min":60,"x_max":625,"o":"m 419 971 l 553 971 l 436 725 l 315 725 l 419 971 m 411 -14 q 149 74 238 -14 q 60 329 60 161 q 156 585 60 499 q 419 672 251 672 q 533 663 486 672 q 624 632 579 653 l 624 519 q 449 556 551 556 q 272 503 331 556 q 213 329 213 450 q 267 156 213 210 q 446 101 322 101 q 625 139 544 101 l 625 24 q 411 -14 533 -14 z "},"č":{"ha":686,"x_min":60,"x_max":625,"o":"m 157 947 l 281 947 l 383 807 l 489 947 l 610 947 l 436 724 l 331 724 l 157 947 m 411 -14 q 149 74 238 -14 q 60 329 60 161 q 156 585 60 499 q 419 672 251 672 q 533 663 486 672 q 624 632 579 653 l 624 519 q 449 556 551 556 q 272 503 331 556 q 213 329 213 450 q 267 156 213 210 q 446 101 322 101 q 625 139 544 101 l 625 24 q 411 -14 533 -14 z "},"ç":{"ha":685,"x_min":60,"x_max":625,"o":"m 625 24 q 442 -14 543 -10 l 424 -65 q 536 -98 497 -65 q 575 -190 575 -131 q 369 -333 575 -333 q 315 -330 347 -333 q 268 -322 283 -326 l 268 -240 q 354 -251 308 -251 q 446 -239 419 -251 q 472 -189 472 -226 q 447 -142 472 -153 q 360 -132 421 -132 l 304 -132 l 342 -10 q 131 93 203 7 q 60 329 60 179 q 156 585 60 499 q 419 672 251 672 q 533 663 486 672 q 624 632 579 653 l 624 519 q 449 556 551 556 q 272 503 331 556 q 213 329 213 450 q 267 156 213 210 q 446 101 322 101 q 625 139 544 101 l 625 24 z "},"ĉ":{"ha":685,"x_min":60,"x_max":625,"o":"m 328 947 l 433 947 l 607 724 l 486 724 l 381 864 l 278 724 l 154 724 l 328 947 m 411 -14 q 149 74 238 -14 q 60 329 60 161 q 156 585 60 499 q 419 672 251 672 q 533 663 486 672 q 624 632 579 653 l 624 519 q 449 556 551 556 q 272 503 331 556 q 213 329 213 450 q 267 156 213 210 q 446 101 322 101 q 625 139 544 101 l 625 24 q 411 -14 533 -14 z "},"ċ":{"ha":685,"x_min":60,"x_max":625,"o":"m 326 879 l 454 879 l 454 757 l 326 757 l 326 879 m 411 -14 q 149 74 238 -14 q 60 329 60 161 q 156 585 60 499 q 419 672 251 672 q 533 663 486 672 q 624 632 579 653 l 624 519 q 449 556 551 556 q 272 503 331 556 q 213 329 213 450 q 267 156 213 210 q 446 101 322 101 q 625 139 544 101 l 625 24 q 411 -14 533 -14 z "},"d":{"ha":808,"x_min":60,"x_max":721,"o":"m 360 -14 q 138 62 217 -14 q 60 308 60 138 q 100 506 60 424 q 211 630 140 588 q 374 672 282 672 q 479 658 432 672 q 569 615 526 644 l 569 936 l 721 936 l 721 0 l 592 0 l 582 65 q 483 5 536 24 q 360 -14 431 -14 m 400 100 q 569 169 501 100 l 569 499 q 406 557 504 557 q 261 493 310 557 q 213 307 213 429 q 256 146 213 192 q 400 100 300 100 z "},"ð":{"ha":796,"x_min":60,"x_max":768,"o":"m 397 -14 q 144 62 228 -14 q 60 274 60 138 q 140 487 60 414 q 369 560 221 560 q 485 541 424 560 q 593 489 546 522 l 593 546 q 565 711 593 651 l 388 633 l 388 711 l 519 768 q 381 806 469 806 q 182 771 276 806 l 182 875 q 401 908 275 908 q 640 822 554 908 l 768 878 l 768 799 l 685 763 q 736 531 736 669 l 736 332 q 651 70 736 154 q 397 -14 567 -14 m 396 92 q 544 140 496 92 q 593 292 593 189 l 593 392 q 497 441 549 422 q 397 460 446 460 q 243 412 290 460 q 196 274 196 364 q 247 140 196 188 q 396 92 297 92 z "},"ď":{"ha":896,"x_min":60,"x_max":997,"o":"m 868 967 l 997 967 l 876 710 l 758 710 l 868 967 m 360 -14 q 140 70 219 -14 q 60 326 60 154 q 142 585 60 499 q 367 672 225 672 q 569 615 486 672 l 569 936 l 721 936 l 721 0 l 592 0 l 582 65 q 483 5 536 24 q 360 -14 431 -14 m 400 100 q 569 169 501 100 l 569 499 q 406 557 504 557 q 260 501 308 557 q 213 325 213 446 q 258 154 213 208 q 400 100 303 100 z "},"đ":{"ha":808,"x_min":60,"x_max":789,"o":"m 360 -14 q 140 70 219 -14 q 60 326 60 154 q 142 585 60 499 q 367 672 225 672 q 569 615 486 672 l 569 743 l 344 743 l 344 851 l 569 851 l 569 936 l 721 936 l 721 851 l 789 851 l 789 743 l 721 743 l 721 0 l 592 0 l 582 65 q 483 5 536 24 q 360 -14 431 -14 m 400 100 q 569 169 501 100 l 569 499 q 406 557 504 557 q 260 501 308 557 q 213 325 213 446 q 258 154 213 208 q 400 100 303 100 z "},"ḍ":{"ha":808,"x_min":60,"x_max":721,"o":"m 360 -14 q 138 62 217 -14 q 60 308 60 138 q 100 506 60 424 q 211 630 140 588 q 374 672 282 672 q 479 658 432 672 q 569 615 526 644 l 569 936 l 721 936 l 721 0 l 592 0 l 582 65 q 483 5 536 24 q 360 -14 431 -14 m 400 100 q 569 169 501 100 l 569 499 q 406 557 504 557 q 261 493 310 557 q 213 307 213 429 q 256 146 213 192 q 400 100 300 100 m 346 -118 l 476 -118 l 476 -240 l 346 -240 l 346 -118 z "},"ḏ":{"ha":808,"x_min":60,"x_max":721,"o":"m 360 -14 q 138 62 217 -14 q 60 308 60 138 q 100 506 60 424 q 211 630 140 588 q 374 672 282 672 q 479 658 432 672 q 569 615 526 644 l 569 936 l 721 936 l 721 0 l 592 0 l 582 65 q 483 5 536 24 q 360 -14 431 -14 m 400 100 q 569 169 501 100 l 569 499 q 406 557 504 557 q 261 493 310 557 q 213 307 213 429 q 256 146 213 192 q 400 100 300 100 m 210 -129 l 624 -129 l 624 -228 l 210 -228 l 210 -129 z "},"e":{"ha":746,"x_min":60,"x_max":686,"o":"m 421 -14 q 153 72 246 -14 q 60 331 60 158 q 142 583 60 493 q 385 672 224 672 q 608 596 531 672 q 686 392 686 519 l 686 269 l 204 269 q 272 138 215 175 q 451 101 329 101 q 553 111 501 101 q 646 136 606 121 l 646 25 q 421 -14 558 -14 m 553 368 l 553 414 q 514 522 553 485 q 389 558 475 558 q 245 514 286 558 q 204 368 204 469 l 553 368 z "},"é":{"ha":746,"x_min":60,"x_max":686,"o":"m 417 971 l 550 971 l 433 725 l 313 725 l 417 971 m 421 -14 q 153 72 246 -14 q 60 331 60 158 q 142 583 60 493 q 385 672 224 672 q 608 596 531 672 q 686 392 686 519 l 686 269 l 204 269 q 272 138 215 175 q 451 101 329 101 q 553 111 501 101 q 646 136 606 121 l 646 25 q 421 -14 558 -14 m 553 368 l 553 414 q 514 522 553 485 q 389 558 475 558 q 245 514 286 558 q 204 368 204 469 l 553 368 z "},"ĕ":{"ha":746,"x_min":60,"x_max":686,"o":"m 382 725 q 238 778 290 725 q 186 921 186 831 l 289 921 q 313 844 289 872 q 382 815 338 815 q 453 844 428 815 q 479 921 479 872 l 582 921 q 528 778 582 831 q 382 725 475 725 m 421 -14 q 153 72 246 -14 q 60 331 60 158 q 142 583 60 493 q 385 672 224 672 q 608 596 531 672 q 686 392 686 519 l 686 269 l 204 269 q 272 138 215 175 q 451 101 329 101 q 553 111 501 101 q 646 136 606 121 l 646 25 q 421 -14 558 -14 m 553 368 l 553 414 q 514 522 553 485 q 389 558 475 558 q 245 514 286 558 q 204 368 204 469 l 553 368 z "},"ě":{"ha":746,"x_min":60,"x_max":686,"o":"m 164 947 l 288 947 l 390 807 l 496 947 l 617 947 l 443 724 l 338 724 l 164 947 m 421 -14 q 153 72 246 -14 q 60 331 60 158 q 142 583 60 493 q 385 672 224 672 q 608 596 531 672 q 686 392 686 519 l 686 269 l 204 269 q 272 138 215 175 q 451 101 329 101 q 553 111 501 101 q 646 136 606 121 l 646 25 q 421 -14 558 -14 m 553 368 l 553 414 q 514 522 553 485 q 389 558 475 558 q 245 514 286 558 q 204 368 204 469 l 553 368 z "},"ê":{"ha":746,"x_min":60,"x_max":686,"o":"m 325 947 l 431 947 l 604 724 l 483 724 l 378 864 l 275 724 l 151 724 l 325 947 m 421 -14 q 153 72 246 -14 q 60 331 60 158 q 142 583 60 493 q 385 672 224 672 q 608 596 531 672 q 686 392 686 519 l 686 269 l 204 269 q 272 138 215 175 q 451 101 329 101 q 553 111 501 101 q 646 136 606 121 l 646 25 q 421 -14 558 -14 m 553 368 l 553 414 q 514 522 553 485 q 389 558 475 558 q 245 514 286 558 q 204 368 204 469 l 553 368 z "},"ế":{"ha":746,"x_min":60,"x_max":715,"o":"m 600 1064 l 715 1064 l 618 879 l 511 879 l 600 1064 m 326 899 l 443 899 l 608 722 l 485 722 l 385 836 l 288 722 l 161 722 l 326 899 m 421 -14 q 153 72 246 -14 q 60 331 60 158 q 142 583 60 493 q 385 672 224 672 q 608 596 531 672 q 686 392 686 519 l 686 269 l 204 269 q 272 138 215 175 q 451 101 329 101 q 553 111 501 101 q 646 136 606 121 l 646 25 q 421 -14 558 -14 m 553 368 l 553 414 q 514 522 553 485 q 389 558 475 558 q 245 514 286 558 q 204 368 204 469 l 553 368 z "},"ệ":{"ha":746,"x_min":60,"x_max":686,"o":"m 328 947 l 433 947 l 607 724 l 486 724 l 381 864 l 278 724 l 154 724 l 328 947 m 421 -14 q 153 72 246 -14 q 60 331 60 158 q 142 583 60 493 q 385 672 224 672 q 608 596 531 672 q 686 392 686 519 l 686 269 l 204 269 q 272 138 215 175 q 451 101 329 101 q 553 111 501 101 q 646 136 606 121 l 646 25 q 421 -14 558 -14 m 553 368 l 553 414 q 514 522 553 485 q 389 558 475 558 q 245 514 286 558 q 204 368 204 469 l 553 368 m 317 -118 l 447 -118 l 447 -240 l 317 -240 l 317 -118 z "},"ề":{"ha":746,"x_min":60,"x_max":686,"o":"m 63 1082 l 179 1082 l 268 897 l 161 897 l 63 1082 m 335 917 l 453 917 l 617 740 l 492 740 l 393 854 l 294 740 l 171 740 l 335 917 m 421 -14 q 153 72 246 -14 q 60 331 60 158 q 142 583 60 493 q 385 672 224 672 q 608 596 531 672 q 686 392 686 519 l 686 269 l 204 269 q 272 138 215 175 q 451 101 329 101 q 553 111 501 101 q 646 136 606 121 l 646 25 q 421 -14 558 -14 m 553 368 l 553 414 q 514 522 553 485 q 389 558 475 558 q 245 514 286 558 q 204 368 204 469 l 553 368 z "},"ể":{"ha":746,"x_min":60,"x_max":731,"o":"m 517 942 q 602 957 581 944 q 624 996 624 969 q 608 1028 624 1018 q 558 1039 592 1039 q 481 1022 518 1039 l 481 1096 q 588 1113 528 1113 q 692 1083 654 1113 q 731 1004 731 1054 q 705 932 731 958 q 624 897 679 906 l 624 850 l 517 850 l 517 942 m 319 899 l 438 899 l 601 722 l 478 722 l 379 836 l 281 722 l 156 722 l 319 899 m 421 -14 q 153 72 246 -14 q 60 331 60 158 q 142 583 60 493 q 385 672 224 672 q 608 596 531 672 q 686 392 686 519 l 686 269 l 204 269 q 272 138 215 175 q 451 101 329 101 q 553 111 501 101 q 646 136 606 121 l 646 25 q 421 -14 558 -14 m 553 368 l 553 414 q 514 522 553 485 q 389 558 475 558 q 245 514 286 558 q 204 368 204 469 l 553 368 z "},"ễ":{"ha":746,"x_min":60,"x_max":686,"o":"m 499 911 q 448 918 472 911 q 388 939 424 925 q 335 958 354 951 q 294 964 315 964 q 179 915 222 964 l 179 1014 q 228 1043 197 1032 q 293 1054 260 1054 q 341 1048 319 1054 q 400 1028 363 1042 q 453 1009 433 1015 q 497 1003 474 1003 q 604 1051 568 1003 l 604 953 q 562 923 590 935 q 499 911 533 911 m 325 900 l 443 900 l 607 724 l 483 724 l 385 838 l 286 724 l 161 724 l 325 900 m 421 -14 q 153 72 246 -14 q 60 331 60 158 q 142 583 60 493 q 385 672 224 672 q 608 596 531 672 q 686 392 686 519 l 686 269 l 204 269 q 272 138 215 175 q 451 101 329 101 q 553 111 501 101 q 646 136 606 121 l 646 25 q 421 -14 558 -14 m 553 368 l 553 414 q 514 522 553 485 q 389 558 475 558 q 245 514 286 558 q 204 368 204 469 l 553 368 z "},"ë":{"ha":746,"x_min":60,"x_max":686,"o":"m 183 878 l 311 878 l 311 758 l 183 758 l 183 878 m 442 878 l 569 878 l 569 758 l 442 758 l 442 878 m 421 -14 q 153 72 246 -14 q 60 331 60 158 q 142 583 60 493 q 385 672 224 672 q 608 596 531 672 q 686 392 686 519 l 686 269 l 204 269 q 272 138 215 175 q 451 101 329 101 q 553 111 501 101 q 646 136 606 121 l 646 25 q 421 -14 558 -14 m 553 368 l 553 414 q 514 522 553 485 q 389 558 475 558 q 245 514 286 558 q 204 368 204 469 l 553 368 z "},"ė":{"ha":746,"x_min":60,"x_max":686,"o":"m 317 879 l 444 879 l 444 757 l 317 757 l 317 879 m 421 -14 q 153 72 246 -14 q 60 331 60 158 q 142 583 60 493 q 385 672 224 672 q 608 596 531 672 q 686 392 686 519 l 686 269 l 204 269 q 272 138 215 175 q 451 101 329 101 q 553 111 501 101 q 646 136 606 121 l 646 25 q 421 -14 558 -14 m 553 368 l 553 414 q 514 522 553 485 q 389 558 475 558 q 245 514 286 558 q 204 368 204 469 l 553 368 z "},"ẹ":{"ha":746,"x_min":60,"x_max":686,"o":"m 421 -14 q 153 72 246 -14 q 60 331 60 158 q 142 583 60 493 q 385 672 224 672 q 608 596 531 672 q 686 392 686 519 l 686 269 l 204 269 q 272 138 215 175 q 451 101 329 101 q 553 111 501 101 q 646 136 606 121 l 646 25 q 421 -14 558 -14 m 553 368 l 553 414 q 514 522 553 485 q 389 558 475 558 q 245 514 286 558 q 204 368 204 469 l 553 368 m 317 -118 l 447 -118 l 447 -240 l 317 -240 l 317 -118 z "},"è":{"ha":746,"x_min":60,"x_max":686,"o":"m 203 971 l 335 971 l 440 725 l 318 725 l 203 971 m 421 -14 q 153 72 246 -14 q 60 331 60 158 q 142 583 60 493 q 385 672 224 672 q 608 596 531 672 q 686 392 686 519 l 686 269 l 204 269 q 272 138 215 175 q 451 101 329 101 q 553 111 501 101 q 646 136 606 121 l 646 25 q 421 -14 558 -14 m 553 368 l 553 414 q 514 522 553 485 q 389 558 475 558 q 245 514 286 558 q 204 368 204 469 l 553 368 z "},"ẻ":{"ha":746,"x_min":60,"x_max":686,"o":"m 324 838 q 426 856 400 842 q 451 907 451 871 q 426 951 451 938 q 349 965 400 965 q 303 960 328 965 q 260 949 278 956 l 260 1031 q 317 1044 282 1039 q 389 1049 353 1049 q 519 1014 474 1049 q 564 919 564 979 q 536 830 564 861 q 442 789 508 799 l 442 724 l 324 724 l 324 838 m 421 -14 q 153 72 246 -14 q 60 331 60 158 q 142 583 60 493 q 385 672 224 672 q 608 596 531 672 q 686 392 686 519 l 686 269 l 204 269 q 272 138 215 175 q 451 101 329 101 q 553 111 501 101 q 646 136 606 121 l 646 25 q 421 -14 558 -14 m 553 368 l 553 414 q 514 522 553 485 q 389 558 475 558 q 245 514 286 558 q 204 368 204 469 l 553 368 z "},"ē":{"ha":746,"x_min":60,"x_max":686,"o":"m 186 869 l 600 869 l 600 771 l 186 771 l 186 869 m 421 -14 q 153 72 246 -14 q 60 331 60 158 q 142 583 60 493 q 385 672 224 672 q 608 596 531 672 q 686 392 686 519 l 686 269 l 204 269 q 272 138 215 175 q 451 101 329 101 q 553 111 501 101 q 646 136 606 121 l 646 25 q 421 -14 558 -14 m 553 368 l 553 414 q 514 522 553 485 q 389 558 475 558 q 245 514 286 558 q 204 368 204 469 l 553 368 z "},"ę":{"ha":746,"x_min":60,"x_max":686,"o":"m 686 269 l 204 269 q 272 138 215 175 q 451 101 329 101 q 553 111 501 101 q 646 136 606 121 l 646 25 q 557 -1 600 6 q 488 -76 513 -36 q 464 -156 464 -115 q 480 -199 464 -186 q 529 -211 496 -211 q 567 -207 547 -211 q 599 -196 586 -203 l 599 -287 q 551 -301 581 -296 q 492 -306 522 -306 q 385 -274 428 -306 q 343 -182 343 -243 q 365 -90 343 -135 q 428 -14 388 -46 l 421 -14 q 153 72 246 -14 q 60 331 60 158 q 142 583 60 493 q 385 672 224 672 q 608 596 531 672 q 686 392 686 519 l 686 269 m 553 414 q 514 522 553 485 q 389 558 475 558 q 245 514 286 558 q 204 368 204 469 l 553 368 l 553 414 z "},"ẽ":{"ha":746,"x_min":60,"x_max":686,"o":"m 493 746 q 443 753 467 746 q 378 775 419 760 q 323 794 343 788 q 282 800 303 800 q 161 750 206 800 l 161 861 q 212 891 179 879 q 279 903 244 903 q 331 896 307 903 q 390 875 356 889 q 444 856 422 863 q 492 849 467 849 q 603 900 564 849 l 603 789 q 559 758 589 769 q 493 746 529 746 m 421 -14 q 153 72 246 -14 q 60 331 60 158 q 142 583 60 493 q 385 672 224 672 q 608 596 531 672 q 686 392 686 519 l 686 269 l 204 269 q 272 138 215 175 q 451 101 329 101 q 553 111 501 101 q 646 136 606 121 l 646 25 q 421 -14 558 -14 m 553 368 l 553 414 q 514 522 553 485 q 389 558 475 558 q 245 514 286 558 q 204 368 204 469 l 553 368 z "},"f":{"ha":486,"x_min":32,"x_max":481,"o":"m 128 540 l 32 540 l 32 658 l 128 658 l 128 739 q 184 899 128 839 q 346 958 240 958 q 481 935 417 958 l 481 826 q 393 842 438 842 q 303 819 328 842 q 278 738 278 796 l 278 658 l 450 658 l 443 540 l 278 540 l 278 0 l 128 0 l 128 540 z "},"g":{"ha":769,"x_min":63,"x_max":728,"o":"m 354 -244 q 205 -235 278 -244 q 82 -208 132 -225 l 82 -92 q 207 -119 135 -110 q 347 -129 279 -129 q 496 -117 453 -129 q 539 -68 539 -106 q 516 -27 539 -39 q 432 -15 493 -15 l 254 -15 q 121 17 167 -15 q 75 111 75 50 q 100 188 75 154 q 174 239 125 222 q 63 432 63 293 q 138 615 63 557 q 365 672 213 672 q 486 658 421 672 l 728 658 l 724 560 l 613 560 q 664 432 664 514 q 599 265 664 324 q 407 206 535 206 q 325 213 374 206 q 249 190 281 208 q 217 142 217 171 q 233 112 217 121 q 289 103 250 103 l 474 103 q 626 60 572 103 q 679 -62 679 18 q 598 -201 679 -158 q 354 -244 517 -244 m 365 301 q 491 331 456 301 q 526 436 526 361 q 490 544 526 511 q 365 576 454 576 q 241 544 279 576 q 203 436 203 511 q 240 333 203 364 q 365 301 276 301 z "},"ğ":{"ha":769,"x_min":63,"x_max":728,"o":"m 371 725 q 227 778 279 725 q 175 921 175 831 l 278 921 q 302 844 278 872 q 371 815 326 815 q 442 844 417 815 q 468 921 468 872 l 571 921 q 517 778 571 831 q 371 725 464 725 m 354 -244 q 205 -235 278 -244 q 82 -208 132 -225 l 82 -92 q 207 -119 135 -110 q 347 -129 279 -129 q 496 -117 453 -129 q 539 -68 539 -106 q 516 -27 539 -39 q 432 -15 493 -15 l 254 -15 q 121 17 167 -15 q 75 111 75 50 q 100 188 75 154 q 174 239 125 222 q 63 432 63 293 q 138 615 63 557 q 365 672 213 672 q 486 658 421 672 l 728 658 l 724 560 l 613 560 q 664 432 664 514 q 599 265 664 324 q 407 206 535 206 q 325 213 374 206 q 249 190 281 208 q 217 142 217 171 q 233 112 217 121 q 289 103 250 103 l 474 103 q 626 60 572 103 q 679 -62 679 18 q 598 -201 679 -158 q 354 -244 517 -244 m 365 301 q 491 331 456 301 q 526 436 526 361 q 490 544 526 511 q 365 576 454 576 q 241 544 279 576 q 203 436 203 511 q 240 333 203 364 q 365 301 276 301 z "},"ǧ":{"ha":769,"x_min":63,"x_max":728,"o":"m 171 947 l 294 947 l 397 807 l 503 947 l 624 947 l 450 724 l 344 724 l 171 947 m 354 -244 q 205 -235 278 -244 q 82 -208 132 -225 l 82 -92 q 207 -119 135 -110 q 347 -129 279 -129 q 496 -117 453 -129 q 539 -68 539 -106 q 516 -27 539 -39 q 432 -15 493 -15 l 254 -15 q 121 17 167 -15 q 75 111 75 50 q 100 188 75 154 q 174 239 125 222 q 63 432 63 293 q 138 615 63 557 q 365 672 213 672 q 486 658 421 672 l 728 658 l 724 560 l 613 560 q 664 432 664 514 q 599 265 664 324 q 407 206 535 206 q 325 213 374 206 q 249 190 281 208 q 217 142 217 171 q 233 112 217 121 q 289 103 250 103 l 474 103 q 626 60 572 103 q 679 -62 679 18 q 598 -201 679 -158 q 354 -244 517 -244 m 365 301 q 491 331 456 301 q 526 436 526 361 q 490 544 526 511 q 365 576 454 576 q 241 544 279 576 q 203 436 203 511 q 240 333 203 364 q 365 301 276 301 z "},"ĝ":{"ha":769,"x_min":63,"x_max":728,"o":"m 321 947 l 426 947 l 600 724 l 479 724 l 374 864 l 271 724 l 147 724 l 321 947 m 354 -244 q 205 -235 278 -244 q 82 -208 132 -225 l 82 -92 q 207 -119 135 -110 q 347 -129 279 -129 q 496 -117 453 -129 q 539 -68 539 -106 q 516 -27 539 -39 q 432 -15 493 -15 l 254 -15 q 121 17 167 -15 q 75 111 75 50 q 100 188 75 154 q 174 239 125 222 q 63 432 63 293 q 138 615 63 557 q 365 672 213 672 q 486 658 421 672 l 728 658 l 724 560 l 613 560 q 664 432 664 514 q 599 265 664 324 q 407 206 535 206 q 325 213 374 206 q 249 190 281 208 q 217 142 217 171 q 233 112 217 121 q 289 103 250 103 l 474 103 q 626 60 572 103 q 679 -62 679 18 q 598 -201 679 -158 q 354 -244 517 -244 m 365 301 q 491 331 456 301 q 526 436 526 361 q 490 544 526 511 q 365 576 454 576 q 241 544 279 576 q 203 436 203 511 q 240 333 203 364 q 365 301 276 301 z "},"ģ":{"ha":769,"x_min":63,"x_max":728,"o":"m 363 988 l 464 988 l 424 725 l 299 725 l 363 988 m 354 -244 q 205 -235 278 -244 q 82 -208 132 -225 l 82 -92 q 207 -119 135 -110 q 347 -129 279 -129 q 496 -117 453 -129 q 539 -68 539 -106 q 516 -27 539 -39 q 432 -15 493 -15 l 254 -15 q 121 17 167 -15 q 75 111 75 50 q 100 188 75 154 q 174 239 125 222 q 63 432 63 293 q 138 615 63 557 q 365 672 213 672 q 486 658 421 672 l 728 658 l 724 560 l 613 560 q 664 432 664 514 q 599 265 664 324 q 407 206 535 206 q 325 213 374 206 q 249 190 281 208 q 217 142 217 171 q 233 112 217 121 q 289 103 250 103 l 474 103 q 626 60 572 103 q 679 -62 679 18 q 598 -201 679 -158 q 354 -244 517 -244 m 365 301 q 491 331 456 301 q 526 436 526 361 q 490 544 526 511 q 365 576 454 576 q 241 544 279 576 q 203 436 203 511 q 240 333 203 364 q 365 301 276 301 z "},"ġ":{"ha":769,"x_min":63,"x_max":728,"o":"m 299 868 l 426 868 l 426 746 l 299 746 l 299 868 m 354 -244 q 205 -235 278 -244 q 82 -208 132 -225 l 82 -92 q 207 -119 135 -110 q 347 -129 279 -129 q 496 -117 453 -129 q 539 -68 539 -106 q 516 -27 539 -39 q 432 -15 493 -15 l 254 -15 q 121 17 167 -15 q 75 111 75 50 q 100 188 75 154 q 174 239 125 222 q 63 432 63 293 q 138 615 63 557 q 365 672 213 672 q 486 658 421 672 l 728 658 l 724 560 l 613 560 q 664 432 664 514 q 599 265 664 324 q 407 206 535 206 q 325 213 374 206 q 249 190 281 208 q 217 142 217 171 q 233 112 217 121 q 289 103 250 103 l 474 103 q 626 60 572 103 q 679 -62 679 18 q 598 -201 679 -158 q 354 -244 517 -244 m 365 301 q 491 331 456 301 q 526 436 526 361 q 490 544 526 511 q 365 576 454 576 q 241 544 279 576 q 203 436 203 511 q 240 333 203 364 q 365 301 276 301 z "},"ḡ":{"ha":769,"x_min":63,"x_max":728,"o":"m 182 864 l 596 864 l 596 765 l 182 765 l 182 864 m 354 -244 q 205 -235 278 -244 q 82 -208 132 -225 l 82 -92 q 207 -119 135 -110 q 347 -129 279 -129 q 496 -117 453 -129 q 539 -68 539 -106 q 516 -27 539 -39 q 432 -15 493 -15 l 254 -15 q 121 17 167 -15 q 75 111 75 50 q 100 188 75 154 q 174 239 125 222 q 63 432 63 293 q 138 615 63 557 q 365 672 213 672 q 486 658 421 672 l 728 658 l 724 560 l 613 560 q 664 432 664 514 q 599 265 664 324 q 407 206 535 206 q 325 213 374 206 q 249 190 281 208 q 217 142 217 171 q 233 112 217 121 q 289 103 250 103 l 474 103 q 626 60 572 103 q 679 -62 679 18 q 598 -201 679 -158 q 354 -244 517 -244 m 365 301 q 491 331 456 301 q 526 436 526 361 q 490 544 526 511 q 365 576 454 576 q 241 544 279 576 q 203 436 203 511 q 240 333 203 364 q 365 301 276 301 z "},"h":{"ha":803,"x_min":88,"x_max":721,"o":"m 88 936 l 239 936 l 239 594 q 344 651 283 631 q 476 672 404 672 q 661 613 601 672 q 721 426 721 553 l 721 0 l 571 0 l 571 419 q 538 526 571 496 q 425 557 506 557 q 324 535 375 557 q 239 479 272 514 l 239 0 l 88 0 l 88 936 z "},"ħ":{"ha":815,"x_min":25,"x_max":733,"o":"m 100 744 l 25 744 l 25 854 l 100 854 l 100 936 l 250 936 l 250 854 l 458 854 l 458 744 l 250 744 l 250 594 q 489 672 349 672 q 674 613 614 672 q 733 426 733 553 l 733 0 l 582 0 l 582 419 q 549 526 582 496 q 436 557 517 557 q 335 535 386 557 q 250 479 285 514 l 250 0 l 100 0 l 100 744 z "},"ḫ":{"ha":803,"x_min":88,"x_max":721,"o":"m 88 936 l 239 936 l 239 594 q 344 651 283 631 q 476 672 404 672 q 661 613 601 672 q 721 426 721 553 l 721 0 l 571 0 l 571 419 q 538 526 571 496 q 425 557 506 557 q 324 535 375 557 q 239 479 272 514 l 239 0 l 88 0 l 88 936 m 413 -287 q 269 -235 321 -287 q 217 -90 217 -182 l 319 -90 q 344 -169 319 -140 q 413 -197 368 -197 q 484 -169 458 -197 q 510 -90 510 -140 l 613 -90 q 559 -234 613 -181 q 413 -287 506 -287 z "},"ĥ":{"ha":803,"x_min":88,"x_max":721,"o":"m 268 1199 l 374 1199 l 547 975 l 426 975 l 321 1115 l 218 975 l 94 975 l 268 1199 m 88 936 l 239 936 l 239 594 q 344 651 283 631 q 476 672 404 672 q 661 613 601 672 q 721 426 721 553 l 721 0 l 571 0 l 571 419 q 538 526 571 496 q 425 557 506 557 q 324 535 375 557 q 239 479 272 514 l 239 0 l 88 0 l 88 936 z "},"ḥ":{"ha":803,"x_min":88,"x_max":721,"o":"m 88 936 l 239 936 l 239 594 q 344 651 283 631 q 476 672 404 672 q 661 613 601 672 q 721 426 721 553 l 721 0 l 571 0 l 571 419 q 538 526 571 496 q 425 557 506 557 q 324 535 375 557 q 239 479 272 514 l 239 0 l 88 0 l 88 936 m 344 -118 l 475 -118 l 475 -240 l 344 -240 l 344 -118 z "},"i":{"ha":428,"x_min":88,"x_max":340,"o":"m 175 921 l 340 921 l 340 796 l 175 796 l 175 921 m 188 543 l 88 543 l 101 658 l 339 658 l 339 0 l 188 0 l 188 543 z "},"ı":{"ha":428,"x_min":88,"x_max":339,"o":"m 188 543 l 88 543 l 101 658 l 339 658 l 339 0 l 188 0 l 188 543 z "},"í":{"ha":428,"x_min":88,"x_max":422,"o":"m 289 971 l 422 971 l 306 725 l 185 725 l 289 971 m 188 543 l 88 543 l 101 658 l 339 658 l 339 0 l 188 0 l 188 543 z "},"ĭ":{"ha":428,"x_min":29,"x_max":425,"o":"m 225 724 q 81 776 133 724 q 29 921 29 829 l 132 921 q 156 842 132 871 q 225 814 181 814 q 297 842 271 814 q 322 921 322 871 l 425 921 q 372 777 425 831 q 225 724 318 724 m 188 543 l 88 543 l 101 658 l 339 658 l 339 0 l 188 0 l 188 543 z "},"ǐ":{"ha":428,"x_min":3,"x_max":456,"o":"m 3 947 l 126 947 l 229 807 l 335 947 l 456 947 l 282 724 l 176 724 l 3 947 m 188 543 l 88 543 l 101 658 l 339 658 l 339 0 l 188 0 l 188 543 z "},"î":{"ha":428,"x_min":7,"x_max":460,"o":"m 181 947 l 286 947 l 460 724 l 339 724 l 233 864 l 131 724 l 7 724 l 181 947 m 188 543 l 88 543 l 101 658 l 339 658 l 339 0 l 188 0 l 188 543 z "},"ï":{"ha":428,"x_min":28,"x_max":414,"o":"m 28 878 l 156 878 l 156 758 l 28 758 l 28 878 m 286 878 l 414 878 l 414 758 l 286 758 l 286 878 m 188 543 l 88 543 l 101 658 l 339 658 l 339 0 l 188 0 l 188 543 z "},"ị":{"ha":428,"x_min":88,"x_max":340,"o":"m 175 921 l 340 921 l 340 796 l 175 796 l 175 921 m 188 543 l 88 543 l 101 658 l 339 658 l 339 0 l 188 0 l 188 543 m 199 -118 l 329 -118 l 329 -240 l 199 -240 l 199 -118 z "},"ì":{"ha":428,"x_min":86,"x_max":339,"o":"m 86 971 l 218 971 l 324 725 l 201 725 l 86 971 m 188 543 l 88 543 l 101 658 l 339 658 l 339 0 l 188 0 l 188 543 z "},"ỉ":{"ha":428,"x_min":88,"x_max":404,"o":"m 164 838 q 266 856 240 842 q 292 907 292 871 q 266 951 292 938 q 189 965 240 965 q 143 960 168 965 q 100 949 118 956 l 100 1031 q 158 1044 122 1039 q 229 1049 193 1049 q 359 1014 314 1049 q 404 919 404 979 q 376 830 404 861 q 282 789 349 799 l 282 724 l 164 724 l 164 838 m 188 543 l 88 543 l 101 658 l 339 658 l 339 0 l 188 0 l 188 543 z "},"ĳ":{"ha":756,"x_min":88,"x_max":667,"o":"m 175 921 l 340 921 l 340 796 l 175 796 l 175 921 m 501 921 l 667 921 l 667 796 l 501 796 l 501 921 m 188 543 l 88 543 l 101 658 l 339 658 l 339 0 l 188 0 l 188 543 m 453 -325 q 315 -303 372 -325 l 315 -193 q 400 -207 358 -207 q 491 -184 465 -207 q 517 -106 517 -161 l 517 543 l 417 543 l 431 658 l 667 658 l 667 -119 q 612 -270 667 -215 q 453 -325 557 -325 z "},"ī":{"ha":428,"x_min":8,"x_max":422,"o":"m 8 883 l 422 883 l 422 785 l 8 785 l 8 883 m 188 543 l 88 543 l 101 658 l 339 658 l 339 0 l 188 0 l 188 543 z "},"į":{"ha":428,"x_min":88,"x_max":358,"o":"m 340 796 l 175 796 l 175 921 l 340 921 l 340 796 m 289 -211 q 326 -207 307 -211 q 358 -196 346 -203 l 358 -287 q 311 -301 340 -296 q 251 -306 282 -306 q 145 -274 188 -306 q 103 -182 103 -243 q 131 -81 103 -129 q 206 0 158 -33 l 188 0 l 188 543 l 88 543 l 101 658 l 339 658 l 339 0 l 319 0 q 249 -75 274 -35 q 224 -156 224 -115 q 240 -199 224 -186 q 289 -211 256 -211 z "},"ĩ":{"ha":428,"x_min":-6,"x_max":436,"o":"m 326 735 q 276 742 300 735 q 211 764 253 749 q 156 783 176 776 q 115 789 136 789 q -6 739 39 789 l -6 850 q 45 880 13 868 q 113 892 78 892 q 165 885 140 892 q 224 864 189 878 q 278 844 256 851 q 325 838 300 838 q 436 889 397 838 l 436 778 q 392 747 422 758 q 326 735 363 735 m 188 543 l 88 543 l 101 658 l 339 658 l 339 0 l 188 0 l 188 543 z "},"j":{"ha":425,"x_min":-14,"x_max":338,"o":"m 172 921 l 338 921 l 338 796 l 172 796 l 172 921 m 124 -325 q -14 -303 43 -325 l -14 -193 q 71 -207 29 -207 q 162 -184 136 -207 q 188 -106 188 -161 l 188 543 l 88 543 l 101 658 l 338 658 l 338 -119 q 283 -270 338 -215 q 124 -325 228 -325 z "},"ȷ":{"ha":425,"x_min":-14,"x_max":338,"o":"m 124 -325 q -14 -303 43 -325 l -14 -193 q 71 -207 29 -207 q 162 -184 136 -207 q 188 -106 188 -161 l 188 543 l 88 543 l 101 658 l 338 658 l 338 -119 q 283 -270 338 -215 q 124 -325 228 -325 z "},"ĵ":{"ha":425,"x_min":-14,"x_max":463,"o":"m 183 947 l 289 947 l 463 724 l 342 724 l 236 864 l 133 724 l 10 724 l 183 947 m 124 -325 q -14 -303 43 -325 l -14 -193 q 71 -207 29 -207 q 162 -184 136 -207 q 188 -106 188 -161 l 188 543 l 88 543 l 101 658 l 338 658 l 338 -119 q 283 -270 338 -215 q 124 -325 228 -325 z "},"k":{"ha":764,"x_min":88,"x_max":704,"o":"m 88 936 l 239 936 l 239 394 l 515 658 l 689 658 l 421 393 l 704 0 l 544 0 l 326 313 l 239 229 l 239 0 l 88 0 l 88 936 z "},"ķ":{"ha":764,"x_min":88,"x_max":704,"o":"m 88 936 l 239 936 l 239 394 l 515 658 l 689 658 l 421 393 l 704 0 l 544 0 l 326 313 l 239 229 l 239 0 l 88 0 l 88 936 m 315 -51 l 440 -51 l 376 -314 l 275 -314 l 315 -51 z "},"ĸ":{"ha":764,"x_min":88,"x_max":704,"o":"m 88 658 l 239 658 l 239 369 l 515 658 l 689 658 l 421 375 l 704 0 l 544 0 l 328 293 l 239 201 l 239 0 l 88 0 l 88 658 z "},"l":{"ha":389,"x_min":88,"x_max":358,"o":"m 251 -14 q 128 26 168 -14 q 88 157 88 67 l 88 936 l 239 936 l 239 171 q 252 119 239 133 q 294 104 265 104 q 358 113 328 104 l 358 3 q 251 -14 313 -14 z "},"ĺ":{"ha":389,"x_min":88,"x_max":358,"o":"m 203 1263 l 336 1263 l 219 1017 l 99 1017 l 203 1263 m 251 -14 q 128 26 168 -14 q 88 157 88 67 l 88 936 l 239 936 l 239 171 q 252 119 239 133 q 294 104 265 104 q 358 113 328 104 l 358 3 q 251 -14 313 -14 z "},"ľ":{"ha":432,"x_min":88,"x_max":483,"o":"m 358 1164 l 483 1164 l 419 901 l 318 901 l 358 1164 m 251 -14 q 128 26 168 -14 q 88 157 88 67 l 88 936 l 239 936 l 239 171 q 252 119 239 133 q 294 104 265 104 q 358 113 328 104 l 358 3 q 251 -14 313 -14 z "},"ļ":{"ha":389,"x_min":88,"x_max":358,"o":"m 251 -14 q 128 26 168 -14 q 88 157 88 67 l 88 936 l 239 936 l 239 171 q 252 119 239 133 q 294 104 265 104 q 358 113 328 104 l 358 3 q 251 -14 313 -14 m 185 -51 l 310 -51 l 246 -314 l 144 -314 l 185 -51 z "},"ŀ":{"ha":424,"x_min":88,"x_max":456,"o":"m 251 -14 q 128 26 168 -14 q 88 157 88 67 l 88 936 l 239 936 l 239 171 q 252 119 239 133 q 294 104 265 104 q 358 113 328 104 l 358 3 q 251 -14 313 -14 m 328 501 l 456 501 l 456 379 l 328 379 l 328 501 z "},"ḷ":{"ha":389,"x_min":88,"x_max":358,"o":"m 251 -14 q 128 26 168 -14 q 88 157 88 67 l 88 936 l 239 936 l 239 171 q 252 119 239 133 q 294 104 265 104 q 358 113 328 104 l 358 3 q 251 -14 313 -14 m 138 -118 l 268 -118 l 268 -240 l 138 -240 l 138 -118 z "},"ḹ":{"ha":389,"x_min":-43,"x_max":371,"o":"m -43 1101 l 371 1101 l 371 1003 l -43 1003 l -43 1101 m 251 -14 q 128 26 168 -14 q 88 157 88 67 l 88 936 l 239 936 l 239 171 q 252 119 239 133 q 294 104 265 104 q 358 113 328 104 l 358 3 q 251 -14 313 -14 m 138 -118 l 268 -118 l 268 -240 l 138 -240 l 138 -118 z "},"ḻ":{"ha":389,"x_min":-7,"x_max":407,"o":"m 251 -14 q 128 26 168 -14 q 88 157 88 67 l 88 936 l 239 936 l 239 171 q 252 119 239 133 q 294 104 265 104 q 358 113 328 104 l 358 3 q 251 -14 313 -14 m -7 -104 l 407 -104 l 407 -203 l -7 -203 l -7 -104 z "},"ł":{"ha":389,"x_min":-47,"x_max":390,"o":"m 251 -14 q 128 26 168 -14 q 88 157 88 67 l 88 381 l -47 322 l -47 439 l 88 497 l 88 936 l 239 936 l 239 564 l 390 631 l 390 514 l 239 447 l 239 171 q 252 119 239 133 q 294 104 265 104 q 358 113 328 104 l 358 3 q 251 -14 313 -14 z "},"m":{"ha":1189,"x_min":88,"x_max":1107,"o":"m 88 658 l 226 658 l 233 589 q 465 672 339 672 q 574 651 533 672 q 636 586 614 629 q 747 649 686 626 q 885 672 807 672 q 1053 614 999 672 q 1107 435 1107 556 l 1107 0 l 958 0 l 958 419 q 926 526 958 494 q 822 557 894 557 q 732 540 775 557 q 660 490 689 524 q 667 422 667 464 l 667 0 l 526 0 l 526 418 q 501 525 526 493 q 407 557 475 557 q 236 479 319 557 l 236 0 l 88 0 l 88 658 z "},"ṃ":{"ha":1189,"x_min":88,"x_max":1107,"o":"m 88 658 l 226 658 l 233 589 q 465 672 339 672 q 574 651 533 672 q 636 586 614 629 q 747 649 686 626 q 885 672 807 672 q 1053 614 999 672 q 1107 435 1107 556 l 1107 0 l 958 0 l 958 419 q 926 526 958 494 q 822 557 894 557 q 732 540 775 557 q 660 490 689 524 q 667 422 667 464 l 667 0 l 526 0 l 526 418 q 501 525 526 493 q 407 557 475 557 q 236 479 319 557 l 236 0 l 88 0 l 88 658 m 528 -118 l 658 -118 l 658 -240 l 528 -240 l 528 -118 z "},"n":{"ha":803,"x_min":88,"x_max":721,"o":"m 88 658 l 226 658 l 233 589 q 343 649 281 626 q 476 672 406 672 q 663 613 604 672 q 721 426 721 553 l 721 0 l 571 0 l 571 419 q 539 526 571 496 q 422 557 507 557 q 322 536 371 557 q 239 482 272 515 l 239 0 l 88 0 l 88 658 z "},"ń":{"ha":803,"x_min":88,"x_max":721,"o":"m 424 971 l 557 971 l 440 725 l 319 725 l 424 971 m 88 658 l 226 658 l 233 589 q 343 649 281 626 q 476 672 406 672 q 663 613 604 672 q 721 426 721 553 l 721 0 l 571 0 l 571 419 q 539 526 571 496 q 422 557 507 557 q 322 536 371 557 q 239 482 272 515 l 239 0 l 88 0 l 88 658 z "},"ŉ":{"ha":881,"x_min":-24,"x_max":799,"o":"m 17 899 l 142 899 l 78 636 l -24 636 l 17 899 m 165 658 l 304 658 l 311 589 q 421 649 358 626 q 554 672 483 672 q 740 613 682 672 q 799 426 799 553 l 799 0 l 649 0 l 649 419 q 617 526 649 496 q 500 557 585 557 q 399 536 449 557 q 317 482 350 515 l 317 0 l 165 0 l 165 658 z "},"ň":{"ha":803,"x_min":88,"x_max":721,"o":"m 161 947 l 285 947 l 388 807 l 493 947 l 614 947 l 440 724 l 335 724 l 161 947 m 88 658 l 226 658 l 233 589 q 343 649 281 626 q 476 672 406 672 q 663 613 604 672 q 721 426 721 553 l 721 0 l 571 0 l 571 419 q 539 526 571 496 q 422 557 507 557 q 322 536 371 557 q 239 482 272 515 l 239 0 l 88 0 l 88 658 z "},"ņ":{"ha":803,"x_min":88,"x_max":721,"o":"m 88 658 l 226 658 l 233 589 q 343 649 281 626 q 476 672 406 672 q 663 613 604 672 q 721 426 721 553 l 721 0 l 571 0 l 571 419 q 539 526 571 496 q 422 557 507 557 q 322 536 371 557 q 239 482 272 515 l 239 0 l 88 0 l 88 658 m 357 -51 l 482 -51 l 418 -314 l 317 -314 l 357 -51 z "},"ṅ":{"ha":803,"x_min":88,"x_max":721,"o":"m 338 879 l 465 879 l 465 757 l 338 757 l 338 879 m 88 658 l 226 658 l 233 589 q 343 649 281 626 q 476 672 406 672 q 663 613 604 672 q 721 426 721 553 l 721 0 l 571 0 l 571 419 q 539 526 571 496 q 422 557 507 557 q 322 536 371 557 q 239 482 272 515 l 239 0 l 88 0 l 88 658 z "},"ṇ":{"ha":803,"x_min":88,"x_max":721,"o":"m 88 658 l 226 658 l 233 589 q 343 649 281 626 q 476 672 406 672 q 663 613 604 672 q 721 426 721 553 l 721 0 l 571 0 l 571 419 q 539 526 571 496 q 422 557 507 557 q 322 536 371 557 q 239 482 272 515 l 239 0 l 88 0 l 88 658 m 343 -118 l 474 -118 l 474 -240 l 343 -240 l 343 -118 z "},"ŋ":{"ha":803,"x_min":88,"x_max":721,"o":"m 507 -325 q 369 -303 426 -325 l 369 -193 q 454 -207 413 -207 q 545 -184 519 -207 q 571 -106 571 -161 l 571 419 q 539 526 571 496 q 422 557 507 557 q 322 536 371 557 q 239 482 272 515 l 239 0 l 88 0 l 88 658 l 226 658 l 233 589 q 343 649 281 626 q 476 672 406 672 q 663 613 604 672 q 721 426 721 553 l 721 -119 q 666 -270 721 -215 q 507 -325 611 -325 z "},"ṉ":{"ha":803,"x_min":88,"x_max":721,"o":"m 88 658 l 226 658 l 233 589 q 343 649 281 626 q 476 672 406 672 q 663 613 604 672 q 721 426 721 553 l 721 0 l 571 0 l 571 419 q 539 526 571 496 q 422 557 507 557 q 322 536 371 557 q 239 482 272 515 l 239 0 l 88 0 l 88 658 m 199 -100 l 613 -100 l 613 -199 l 199 -199 l 199 -100 z "},"ñ":{"ha":803,"x_min":88,"x_max":721,"o":"m 517 746 q 467 753 490 746 q 401 775 443 760 q 347 794 367 788 q 306 800 326 800 q 185 750 229 800 l 185 861 q 235 891 203 879 q 303 903 268 903 q 355 896 331 903 q 414 875 379 889 q 468 856 446 863 q 515 849 490 849 q 626 900 588 849 l 626 789 q 583 758 613 769 q 517 746 553 746 m 88 658 l 226 658 l 233 589 q 343 649 281 626 q 476 672 406 672 q 663 613 604 672 q 721 426 721 553 l 721 0 l 571 0 l 571 419 q 539 526 571 496 q 422 557 507 557 q 322 536 371 557 q 239 482 272 515 l 239 0 l 88 0 l 88 658 z "},"o":{"ha":807,"x_min":60,"x_max":747,"o":"m 403 -14 q 60 329 60 -14 q 403 672 60 672 q 747 329 747 672 q 403 -14 747 -14 m 403 114 q 551 164 507 114 q 594 329 594 214 q 551 493 594 443 q 403 543 507 543 q 256 493 300 543 q 213 329 213 443 q 256 164 213 214 q 403 114 300 114 z "},"ó":{"ha":807,"x_min":60,"x_max":747,"o":"m 440 971 l 574 971 l 457 725 l 336 725 l 440 971 m 403 -14 q 60 329 60 -14 q 403 672 60 672 q 747 329 747 672 q 403 -14 747 -14 m 403 114 q 551 164 507 114 q 594 329 594 214 q 551 493 594 443 q 403 543 507 543 q 256 493 300 543 q 213 329 213 443 q 256 164 213 214 q 403 114 300 114 z "},"ŏ":{"ha":807,"x_min":60,"x_max":747,"o":"m 401 725 q 258 778 310 725 q 206 921 206 831 l 308 921 q 333 844 308 872 q 401 815 357 815 q 473 844 447 815 q 499 921 499 872 l 601 921 q 548 778 601 831 q 401 725 494 725 m 403 -14 q 60 329 60 -14 q 403 672 60 672 q 747 329 747 672 q 403 -14 747 -14 m 403 114 q 551 164 507 114 q 594 329 594 214 q 551 493 594 443 q 403 543 507 543 q 256 493 300 543 q 213 329 213 443 q 256 164 213 214 q 403 114 300 114 z "},"ǒ":{"ha":807,"x_min":60,"x_max":747,"o":"m 176 947 l 300 947 l 403 807 l 508 947 l 629 947 l 456 724 l 350 724 l 176 947 m 403 -14 q 60 329 60 -14 q 403 672 60 672 q 747 329 747 672 q 403 -14 747 -14 m 403 114 q 551 164 507 114 q 594 329 594 214 q 551 493 594 443 q 403 543 507 543 q 256 493 300 543 q 213 329 213 443 q 256 164 213 214 q 403 114 300 114 z "},"ô":{"ha":807,"x_min":60,"x_max":747,"o":"m 350 947 l 456 947 l 629 724 l 508 724 l 403 864 l 300 724 l 176 724 l 350 947 m 403 -14 q 60 329 60 -14 q 403 672 60 672 q 747 329 747 672 q 403 -14 747 -14 m 403 114 q 551 164 507 114 q 594 329 594 214 q 551 493 594 443 q 403 543 507 543 q 256 493 300 543 q 213 329 213 443 q 256 164 213 214 q 403 114 300 114 z "},"ố":{"ha":807,"x_min":60,"x_max":747,"o":"m 619 1065 l 735 1065 l 638 881 l 531 881 l 619 1065 m 346 900 l 463 900 l 628 724 l 504 724 l 404 838 l 307 724 l 181 724 l 346 900 m 403 -14 q 60 329 60 -14 q 403 672 60 672 q 747 329 747 672 q 403 -14 747 -14 m 403 114 q 551 164 507 114 q 594 329 594 214 q 551 493 594 443 q 403 543 507 543 q 256 493 300 543 q 213 329 213 443 q 256 164 213 214 q 403 114 300 114 z "},"ộ":{"ha":807,"x_min":60,"x_max":747,"o":"m 350 947 l 456 947 l 629 724 l 508 724 l 403 864 l 300 724 l 176 724 l 350 947 m 403 -14 q 60 329 60 -14 q 403 672 60 672 q 747 329 747 672 q 403 -14 747 -14 m 403 114 q 551 164 507 114 q 594 329 594 214 q 551 493 594 443 q 403 543 507 543 q 256 493 300 543 q 213 329 213 443 q 256 164 213 214 q 403 114 300 114 m 338 -118 l 468 -118 l 468 -240 l 338 -240 l 338 -118 z "},"ồ":{"ha":807,"x_min":60,"x_max":747,"o":"m 65 1065 l 182 1065 l 271 881 l 164 881 l 65 1065 m 338 900 l 456 900 l 619 724 l 494 724 l 396 838 l 297 724 l 174 724 l 338 900 m 403 -14 q 60 329 60 -14 q 403 672 60 672 q 747 329 747 672 q 403 -14 747 -14 m 403 114 q 551 164 507 114 q 594 329 594 214 q 551 493 594 443 q 403 543 507 543 q 256 493 300 543 q 213 329 213 443 q 256 164 213 214 q 403 114 300 114 z "},"ổ":{"ha":807,"x_min":60,"x_max":767,"o":"m 553 943 q 638 958 617 946 q 660 997 660 971 q 644 1030 660 1019 q 594 1040 628 1040 q 517 1024 554 1040 l 517 1097 q 624 1114 564 1114 q 728 1085 690 1114 q 767 1006 767 1056 q 741 933 767 960 q 660 899 715 907 l 660 851 l 553 851 l 553 943 m 356 900 l 474 900 l 638 724 l 514 724 l 415 838 l 317 724 l 192 724 l 356 900 m 403 -14 q 60 329 60 -14 q 403 672 60 672 q 747 329 747 672 q 403 -14 747 -14 m 403 114 q 551 164 507 114 q 594 329 594 214 q 551 493 594 443 q 403 543 507 543 q 256 493 300 543 q 213 329 213 443 q 256 164 213 214 q 403 114 300 114 z "},"ỗ":{"ha":807,"x_min":60,"x_max":747,"o":"m 511 960 q 460 967 485 960 q 400 988 436 974 q 363 1001 393 990 q 307 1011 333 1011 q 192 964 235 1011 l 192 1063 q 241 1092 210 1081 q 306 1103 272 1103 q 356 1096 332 1103 q 413 1075 379 1089 q 466 1056 446 1063 q 510 1050 486 1050 q 617 1100 582 1050 l 617 1000 q 574 971 603 982 q 511 960 546 960 m 403 725 q 246 775 306 725 q 186 931 186 825 l 278 931 q 311 839 278 871 q 403 807 344 807 q 494 839 461 807 q 528 931 528 871 l 619 931 q 560 775 619 825 q 403 725 500 725 m 403 -14 q 60 329 60 -14 q 403 672 60 672 q 747 329 747 672 q 403 -14 747 -14 m 403 114 q 551 164 507 114 q 594 329 594 214 q 551 493 594 443 q 403 543 507 543 q 256 493 300 543 q 213 329 213 443 q 256 164 213 214 q 403 114 300 114 z "},"ö":{"ha":807,"x_min":60,"x_max":747,"o":"m 210 878 l 338 878 l 338 758 l 210 758 l 210 878 m 468 878 l 596 878 l 596 758 l 468 758 l 468 878 m 403 -14 q 60 329 60 -14 q 403 672 60 672 q 747 329 747 672 q 403 -14 747 -14 m 403 114 q 551 164 507 114 q 594 329 594 214 q 551 493 594 443 q 403 543 507 543 q 256 493 300 543 q 213 329 213 443 q 256 164 213 214 q 403 114 300 114 z "},"ọ":{"ha":807,"x_min":60,"x_max":747,"o":"m 403 -14 q 60 329 60 -14 q 403 672 60 672 q 747 329 747 672 q 403 -14 747 -14 m 403 114 q 551 164 507 114 q 594 329 594 214 q 551 493 594 443 q 403 543 507 543 q 256 493 300 543 q 213 329 213 443 q 256 164 213 214 q 403 114 300 114 m 338 -118 l 468 -118 l 468 -240 l 338 -240 l 338 -118 z "},"ò":{"ha":807,"x_min":60,"x_max":747,"o":"m 233 971 l 365 971 l 471 725 l 349 725 l 233 971 m 403 -14 q 60 329 60 -14 q 403 672 60 672 q 747 329 747 672 q 403 -14 747 -14 m 403 114 q 551 164 507 114 q 594 329 594 214 q 551 493 594 443 q 403 543 507 543 q 256 493 300 543 q 213 329 213 443 q 256 164 213 214 q 403 114 300 114 z "},"ỏ":{"ha":807,"x_min":60,"x_max":747,"o":"m 346 838 q 448 856 422 842 q 474 907 474 871 q 448 951 474 938 q 371 965 422 965 q 325 960 350 965 q 282 949 300 956 l 282 1031 q 340 1044 304 1039 q 411 1049 375 1049 q 541 1014 496 1049 q 586 919 586 979 q 558 830 586 861 q 464 789 531 799 l 464 724 l 346 724 l 346 838 m 403 -14 q 60 329 60 -14 q 403 672 60 672 q 747 329 747 672 q 403 -14 747 -14 m 403 114 q 551 164 507 114 q 594 329 594 214 q 551 493 594 443 q 403 543 507 543 q 256 493 300 543 q 213 329 213 443 q 256 164 213 214 q 403 114 300 114 z "},"ơ":{"ha":939,"x_min":60,"x_max":915,"o":"m 403 -14 q 60 329 60 -14 q 403 672 60 672 q 664 582 576 672 q 770 619 742 583 q 799 744 799 654 l 915 744 q 869 556 915 617 q 724 481 822 494 q 747 329 747 414 q 403 -14 747 -14 m 403 114 q 551 164 507 114 q 594 329 594 214 q 551 493 594 443 q 403 543 507 543 q 256 493 300 543 q 213 329 213 443 q 256 164 213 214 q 403 114 300 114 z "},"ớ":{"ha":939,"x_min":60,"x_max":915,"o":"m 456 971 l 589 971 l 472 725 l 351 725 l 456 971 m 403 -14 q 60 329 60 -14 q 403 672 60 672 q 664 582 576 672 q 770 619 742 583 q 799 744 799 654 l 915 744 q 869 556 915 617 q 724 481 822 494 q 747 329 747 414 q 403 -14 747 -14 m 403 114 q 551 164 507 114 q 594 329 594 214 q 551 493 594 443 q 403 543 507 543 q 256 493 300 543 q 213 329 213 443 q 256 164 213 214 q 403 114 300 114 z "},"ợ":{"ha":939,"x_min":60,"x_max":915,"o":"m 403 -14 q 60 329 60 -14 q 403 672 60 672 q 664 582 576 672 q 770 619 742 583 q 799 744 799 654 l 915 744 q 869 556 915 617 q 724 481 822 494 q 747 329 747 414 q 403 -14 747 -14 m 403 114 q 551 164 507 114 q 594 329 594 214 q 551 493 594 443 q 403 543 507 543 q 256 493 300 543 q 213 329 213 443 q 256 164 213 214 q 403 114 300 114 m 344 -118 l 475 -118 l 475 -240 l 344 -240 l 344 -118 z "},"ờ":{"ha":939,"x_min":60,"x_max":915,"o":"m 247 971 l 379 971 l 485 725 l 363 725 l 247 971 m 403 -14 q 60 329 60 -14 q 403 672 60 672 q 664 582 576 672 q 770 619 742 583 q 799 744 799 654 l 915 744 q 869 556 915 617 q 724 481 822 494 q 747 329 747 414 q 403 -14 747 -14 m 403 114 q 551 164 507 114 q 594 329 594 214 q 551 493 594 443 q 403 543 507 543 q 256 493 300 543 q 213 329 213 443 q 256 164 213 214 q 403 114 300 114 z "},"ở":{"ha":939,"x_min":60,"x_max":915,"o":"m 342 838 q 444 856 418 842 q 469 907 469 871 q 444 951 469 938 q 367 965 418 965 q 321 960 346 965 q 278 949 296 956 l 278 1031 q 335 1044 300 1039 q 407 1049 371 1049 q 537 1014 492 1049 q 582 919 582 979 q 554 830 582 861 q 460 789 526 799 l 460 724 l 342 724 l 342 838 m 403 -14 q 60 329 60 -14 q 403 672 60 672 q 664 582 576 672 q 770 619 742 583 q 799 744 799 654 l 915 744 q 869 556 915 617 q 724 481 822 494 q 747 329 747 414 q 403 -14 747 -14 m 403 114 q 551 164 507 114 q 594 329 594 214 q 551 493 594 443 q 403 543 507 543 q 256 493 300 543 q 213 329 213 443 q 256 164 213 214 q 403 114 300 114 z "},"ỡ":{"ha":939,"x_min":60,"x_max":915,"o":"m 522 743 q 472 750 496 743 q 407 772 449 757 q 352 791 372 785 q 311 797 332 797 q 190 747 235 797 l 190 858 q 241 888 208 876 q 308 900 274 900 q 360 893 336 900 q 419 872 385 886 q 474 853 451 860 q 521 846 496 846 q 632 897 593 846 l 632 786 q 588 755 618 767 q 522 743 558 743 m 403 -14 q 60 329 60 -14 q 403 672 60 672 q 664 582 576 672 q 770 619 742 583 q 799 744 799 654 l 915 744 q 869 556 915 617 q 724 481 822 494 q 747 329 747 414 q 403 -14 747 -14 m 403 114 q 551 164 507 114 q 594 329 594 214 q 551 493 594 443 q 403 543 507 543 q 256 493 300 543 q 213 329 213 443 q 256 164 213 214 q 403 114 300 114 z "},"ő":{"ha":807,"x_min":60,"x_max":747,"o":"m 292 951 l 429 951 l 310 724 l 188 724 l 292 951 m 593 951 l 731 951 l 611 724 l 489 724 l 593 951 m 403 -14 q 60 329 60 -14 q 403 672 60 672 q 747 329 747 672 q 403 -14 747 -14 m 403 114 q 551 164 507 114 q 594 329 594 214 q 551 493 594 443 q 403 543 507 543 q 256 493 300 543 q 213 329 213 443 q 256 164 213 214 q 403 114 300 114 z "},"ō":{"ha":807,"x_min":60,"x_max":747,"o":"m 192 869 l 606 869 l 606 771 l 192 771 l 192 869 m 403 -14 q 60 329 60 -14 q 403 672 60 672 q 747 329 747 672 q 403 -14 747 -14 m 403 114 q 551 164 507 114 q 594 329 594 214 q 551 493 594 443 q 403 543 507 543 q 256 493 300 543 q 213 329 213 443 q 256 164 213 214 q 403 114 300 114 z "},"ø":{"ha":807,"x_min":60,"x_max":747,"o":"m 233 14 q 60 329 60 85 q 403 672 60 672 q 476 668 443 672 l 501 733 l 604 733 l 571 643 q 747 329 747 574 q 403 -14 747 -14 q 326 -8 374 -14 l 303 -75 l 200 -75 l 233 14 m 429 542 l 403 543 q 256 493 300 543 q 213 329 213 443 q 228 210 213 256 q 281 142 244 165 l 429 542 m 403 114 q 551 164 507 114 q 594 329 594 214 q 522 515 594 471 l 374 115 q 403 114 382 114 z "},"ǿ":{"ha":807,"x_min":60,"x_max":747,"o":"m 419 971 l 553 971 l 436 725 l 315 725 l 419 971 m 233 14 q 60 329 60 85 q 403 672 60 672 q 476 668 443 672 l 501 733 l 604 733 l 571 643 q 747 329 747 574 q 403 -14 747 -14 q 326 -8 374 -14 l 303 -75 l 200 -75 l 233 14 m 429 542 l 403 543 q 256 493 300 543 q 213 329 213 443 q 228 210 213 256 q 281 142 244 165 l 429 542 m 403 114 q 551 164 507 114 q 594 329 594 214 q 522 515 594 471 l 374 115 q 403 114 382 114 z "},"õ":{"ha":807,"x_min":60,"x_max":747,"o":"m 514 757 q 464 764 488 757 q 399 786 440 771 q 344 805 364 799 q 303 811 324 811 q 182 761 226 811 l 182 872 q 233 902 200 890 q 300 914 265 914 q 352 907 328 914 q 411 886 376 900 q 465 867 443 874 q 513 860 488 860 q 624 911 585 860 l 624 800 q 580 769 610 781 q 514 757 550 757 m 403 -14 q 60 329 60 -14 q 403 672 60 672 q 747 329 747 672 q 403 -14 747 -14 m 403 114 q 551 164 507 114 q 594 329 594 214 q 551 493 594 443 q 403 543 507 543 q 256 493 300 543 q 213 329 213 443 q 256 164 213 214 q 403 114 300 114 z "},"œ":{"ha":1288,"x_min":60,"x_max":1228,"o":"m 1228 269 l 746 269 q 814 138 757 175 q 993 101 871 101 q 1095 111 1043 101 q 1188 136 1147 121 l 1188 25 q 963 -14 1100 -14 q 678 89 768 -14 q 403 -14 592 -14 q 60 329 60 -14 q 403 672 60 672 q 674 572 589 672 q 926 672 758 672 q 1150 596 1072 672 q 1228 392 1228 519 l 1228 269 m 1094 414 q 1056 522 1094 485 q 931 558 1017 558 q 788 514 829 558 q 746 371 746 469 l 746 368 l 1094 368 l 1094 414 m 403 114 q 551 164 507 114 q 594 329 594 214 q 551 493 594 443 q 403 543 507 543 q 256 493 300 543 q 213 329 213 443 q 256 164 213 214 q 403 114 300 114 z "},"p":{"ha":808,"x_min":88,"x_max":749,"o":"m 88 658 l 218 658 l 226 593 q 325 653 272 633 q 449 672 378 672 q 672 593 596 672 q 749 340 749 514 q 668 76 749 165 q 443 -14 588 -14 q 239 42 324 -14 l 239 -300 l 88 -300 l 88 658 m 404 100 q 549 160 501 100 q 596 342 596 219 q 553 508 596 458 q 408 557 510 557 q 239 488 307 557 l 239 158 q 404 100 306 100 z "},"þ":{"ha":808,"x_min":88,"x_max":749,"o":"m 88 972 l 239 972 l 239 615 q 447 672 322 672 q 670 588 592 672 q 749 329 749 503 q 669 71 749 156 q 443 -14 589 -14 q 239 42 324 -14 l 239 -300 l 88 -300 l 88 972 m 404 100 q 549 155 503 100 q 596 331 596 210 q 552 503 596 449 q 408 557 508 557 q 239 488 307 557 l 239 158 q 404 100 306 100 z "},"q":{"ha":876,"x_min":60,"x_max":850,"o":"m 746 -336 q 613 -292 657 -336 q 569 -153 569 -247 l 569 42 q 365 -14 485 -14 q 60 318 60 -14 q 139 583 60 493 q 361 672 218 672 q 484 653 432 672 q 582 593 536 633 l 592 658 l 721 658 l 721 -142 q 735 -202 721 -186 q 792 -218 750 -218 q 850 -210 817 -218 l 850 -319 q 746 -336 803 -336 m 404 100 q 569 158 503 100 l 569 488 q 401 557 501 557 q 258 498 303 557 q 213 319 213 439 q 258 150 213 200 q 404 100 304 100 z "},"r":{"ha":510,"x_min":88,"x_max":476,"o":"m 88 658 l 226 658 l 235 582 q 347 638 282 613 q 476 672 413 663 l 476 557 q 347 523 417 546 q 239 475 278 500 l 239 0 l 88 0 l 88 658 z "},"ŕ":{"ha":510,"x_min":88,"x_max":476,"o":"m 200 971 l 333 971 l 217 725 l 96 725 l 200 971 m 88 658 l 226 658 l 235 582 q 347 638 282 613 q 476 672 413 663 l 476 557 q 347 523 417 546 q 239 475 278 500 l 239 0 l 88 0 l 88 658 z "},"ř":{"ha":510,"x_min":-37,"x_max":476,"o":"m -37 947 l 86 947 l 189 807 l 294 947 l 415 947 l 242 724 l 136 724 l -37 947 m 88 658 l 226 658 l 235 582 q 347 638 282 613 q 476 672 413 663 l 476 557 q 347 523 417 546 q 239 475 278 500 l 239 0 l 88 0 l 88 658 z "},"ŗ":{"ha":510,"x_min":57,"x_max":476,"o":"m 88 658 l 226 658 l 235 582 q 347 638 282 613 q 476 672 413 663 l 476 557 q 347 523 417 546 q 239 475 278 500 l 239 0 l 88 0 l 88 658 m 97 -51 l 222 -51 l 158 -314 l 57 -314 l 97 -51 z "},"ṛ":{"ha":510,"x_min":88,"x_max":476,"o":"m 88 658 l 226 658 l 235 582 q 347 638 282 613 q 476 672 413 663 l 476 557 q 347 523 417 546 q 239 475 278 500 l 239 0 l 88 0 l 88 658 m 96 -118 l 226 -118 l 226 -240 l 96 -240 l 96 -118 z "},"ṝ":{"ha":515,"x_min":15,"x_max":482,"o":"m 15 864 l 429 864 l 429 765 l 15 765 l 15 864 m 93 658 l 232 658 l 240 582 q 353 638 288 613 q 482 672 418 663 l 482 557 q 353 523 422 546 q 244 475 283 500 l 244 0 l 93 0 l 93 658 m 103 -118 l 233 -118 l 233 -240 l 103 -240 l 103 -118 z "},"ṟ":{"ha":510,"x_min":-32,"x_max":476,"o":"m 88 658 l 226 658 l 235 582 q 347 638 282 613 q 476 672 413 663 l 476 557 q 347 523 417 546 q 239 475 278 500 l 239 0 l 88 0 l 88 658 m -32 -100 l 382 -100 l 382 -199 l -32 -199 l -32 -100 z "},"s":{"ha":644,"x_min":60,"x_max":583,"o":"m 307 -14 q 178 -5 240 -14 q 75 19 115 4 l 75 147 q 177 119 121 129 q 288 110 233 110 q 400 124 368 110 q 432 178 432 138 q 403 231 432 214 q 293 274 374 249 l 251 288 q 106 362 151 321 q 60 483 60 403 q 126 624 60 576 q 335 672 193 672 q 441 664 389 672 q 531 643 493 656 l 531 517 q 447 540 493 532 q 358 549 400 549 q 247 535 282 549 q 213 486 213 522 q 239 438 213 454 q 343 397 265 422 l 374 388 q 499 337 454 363 q 563 274 543 311 q 583 179 583 238 q 307 -14 583 -14 z "},"ś":{"ha":644,"x_min":60,"x_max":583,"o":"m 350 971 l 483 971 l 367 725 l 246 725 l 350 971 m 307 -14 q 178 -5 240 -14 q 75 19 115 4 l 75 147 q 177 119 121 129 q 288 110 233 110 q 400 124 368 110 q 432 178 432 138 q 403 231 432 214 q 293 274 374 249 l 251 288 q 106 362 151 321 q 60 483 60 403 q 126 624 60 576 q 335 672 193 672 q 441 664 389 672 q 531 643 493 656 l 531 517 q 447 540 493 532 q 358 549 400 549 q 247 535 282 549 q 213 486 213 522 q 239 438 213 454 q 343 397 265 422 l 374 388 q 499 337 454 363 q 563 274 543 311 q 583 179 583 238 q 307 -14 583 -14 z "},"š":{"ha":644,"x_min":60,"x_max":583,"o":"m 99 947 l 222 947 l 325 807 l 431 947 l 551 947 l 378 724 l 272 724 l 99 947 m 307 -14 q 178 -5 240 -14 q 75 19 115 4 l 75 147 q 177 119 121 129 q 288 110 233 110 q 400 124 368 110 q 432 178 432 138 q 403 231 432 214 q 293 274 374 249 l 251 288 q 106 362 151 321 q 60 483 60 403 q 126 624 60 576 q 335 672 193 672 q 441 664 389 672 q 531 643 493 656 l 531 517 q 447 540 493 532 q 358 549 400 549 q 247 535 282 549 q 213 486 213 522 q 239 438 213 454 q 343 397 265 422 l 374 388 q 499 337 454 363 q 563 274 543 311 q 583 179 583 238 q 307 -14 583 -14 z "},"ş":{"ha":644,"x_min":60,"x_max":583,"o":"m 583 179 q 527 45 583 93 q 363 -11 471 -3 l 344 -65 q 457 -98 418 -65 q 496 -190 496 -131 q 290 -333 496 -333 q 236 -330 268 -333 q 189 -322 204 -326 l 189 -240 q 275 -251 229 -251 q 367 -239 340 -251 q 393 -189 393 -226 q 367 -142 393 -153 q 281 -132 342 -132 l 225 -132 l 261 -12 q 75 19 149 -8 l 75 147 q 177 119 121 129 q 288 110 233 110 q 400 124 368 110 q 432 178 432 138 q 403 231 432 214 q 293 274 374 249 l 251 288 q 106 362 151 321 q 60 483 60 403 q 126 624 60 576 q 335 672 193 672 q 441 664 389 672 q 531 643 493 656 l 531 517 q 447 540 493 532 q 358 549 400 549 q 247 535 282 549 q 213 486 213 522 q 239 438 213 454 q 343 397 265 422 l 374 388 q 499 337 454 363 q 563 274 543 311 q 583 179 583 238 z "},"ŝ":{"ha":644,"x_min":60,"x_max":583,"o":"m 275 954 l 381 954 l 554 731 l 433 731 l 328 871 l 225 731 l 101 731 l 275 954 m 307 -14 q 178 -5 240 -14 q 75 19 115 4 l 75 147 q 177 119 121 129 q 288 110 233 110 q 400 124 368 110 q 432 178 432 138 q 403 231 432 214 q 293 274 374 249 l 251 288 q 106 362 151 321 q 60 483 60 403 q 126 624 60 576 q 335 672 193 672 q 441 664 389 672 q 531 643 493 656 l 531 517 q 447 540 493 532 q 358 549 400 549 q 247 535 282 549 q 213 486 213 522 q 239 438 213 454 q 343 397 265 422 l 374 388 q 499 337 454 363 q 563 274 543 311 q 583 179 583 238 q 307 -14 583 -14 z "},"ș":{"ha":644,"x_min":60,"x_max":583,"o":"m 307 -14 q 178 -5 240 -14 q 75 19 115 4 l 75 147 q 177 119 121 129 q 288 110 233 110 q 400 124 368 110 q 432 178 432 138 q 403 231 432 214 q 293 274 374 249 l 251 288 q 106 362 151 321 q 60 483 60 403 q 126 624 60 576 q 335 672 193 672 q 441 664 389 672 q 531 643 493 656 l 531 517 q 447 540 493 532 q 358 549 400 549 q 247 535 282 549 q 213 486 213 522 q 239 438 213 454 q 343 397 265 422 l 374 388 q 499 337 454 363 q 563 274 543 311 q 583 179 583 238 q 307 -14 583 -14 m 258 -69 l 392 -69 l 335 -310 l 219 -310 l 258 -69 z "},"ṡ":{"ha":644,"x_min":60,"x_max":583,"o":"m 263 879 l 390 879 l 390 757 l 263 757 l 263 879 m 307 -14 q 178 -5 240 -14 q 75 19 115 4 l 75 147 q 177 119 121 129 q 288 110 233 110 q 400 124 368 110 q 432 178 432 138 q 403 231 432 214 q 293 274 374 249 l 251 288 q 106 362 151 321 q 60 483 60 403 q 126 624 60 576 q 335 672 193 672 q 441 664 389 672 q 531 643 493 656 l 531 517 q 447 540 493 532 q 358 549 400 549 q 247 535 282 549 q 213 486 213 522 q 239 438 213 454 q 343 397 265 422 l 374 388 q 499 337 454 363 q 563 274 543 311 q 583 179 583 238 q 307 -14 583 -14 z "},"ṣ":{"ha":644,"x_min":60,"x_max":583,"o":"m 307 -14 q 178 -5 240 -14 q 75 19 115 4 l 75 147 q 177 119 121 129 q 288 110 233 110 q 400 124 368 110 q 432 178 432 138 q 403 231 432 214 q 293 274 374 249 l 251 288 q 106 362 151 321 q 60 483 60 403 q 126 624 60 576 q 335 672 193 672 q 441 664 389 672 q 531 643 493 656 l 531 517 q 447 540 493 532 q 358 549 400 549 q 247 535 282 549 q 213 486 213 522 q 239 438 213 454 q 343 397 265 422 l 374 388 q 499 337 454 363 q 563 274 543 311 q 583 179 583 238 q 307 -14 583 -14 m 268 -118 l 399 -118 l 399 -240 l 268 -240 l 268 -118 z "},"ß":{"ha":875,"x_min":81,"x_max":815,"o":"m 531 -14 q 331 17 413 -14 l 331 144 q 503 114 400 114 q 620 154 578 114 q 663 268 663 194 q 622 385 663 347 q 490 424 581 424 l 382 424 l 382 539 l 489 539 q 603 579 567 539 q 639 692 639 619 q 592 803 639 764 q 433 843 544 843 q 280 791 333 843 q 226 632 226 739 l 226 0 l 81 0 l 81 636 q 124 810 81 733 q 248 929 168 886 q 433 972 328 972 q 624 934 546 972 q 742 833 703 896 q 781 692 781 769 q 750 563 781 618 q 669 482 719 508 q 776 403 738 461 q 815 260 815 344 q 741 58 815 129 q 531 -14 667 -14 z "},"ə":{"ha":746,"x_min":60,"x_max":686,"o":"m 361 -14 q 138 63 215 -14 q 60 267 60 139 l 60 388 l 542 388 q 474 519 531 482 q 294 556 417 556 q 191 547 243 556 q 100 521 139 538 l 100 632 q 325 672 192 672 q 593 586 500 672 q 686 326 686 500 q 604 76 686 165 q 361 -14 522 -14 m 357 99 q 501 144 460 99 q 542 289 542 189 l 193 289 l 193 244 q 232 136 193 174 q 357 99 271 99 z "},"t":{"ha":504,"x_min":32,"x_max":471,"o":"m 339 -14 q 182 41 235 -14 q 129 196 129 96 l 129 540 l 32 540 l 32 658 l 129 658 l 129 810 l 279 856 l 279 658 l 454 658 l 444 540 l 279 540 l 279 204 q 305 124 279 147 q 392 101 331 101 q 471 115 429 101 l 471 8 q 339 -14 417 -14 z "},"ŧ":{"ha":513,"x_min":32,"x_max":479,"o":"m 347 -14 q 190 41 243 -14 q 138 196 138 96 l 138 288 l 32 288 l 32 392 l 138 392 l 138 540 l 40 540 l 40 658 l 138 658 l 138 810 l 288 856 l 288 658 l 463 658 l 453 540 l 288 540 l 288 392 l 454 392 l 454 288 l 288 288 l 288 204 q 313 124 288 147 q 400 101 339 101 q 479 115 438 101 l 479 8 q 347 -14 425 -14 z "},"ť":{"ha":586,"x_min":32,"x_max":594,"o":"m 469 1039 l 594 1039 l 531 776 l 429 776 l 469 1039 m 339 -14 q 182 41 235 -14 q 129 196 129 96 l 129 540 l 32 540 l 32 658 l 129 658 l 129 810 l 279 856 l 279 658 l 454 658 l 444 540 l 279 540 l 279 204 q 305 124 279 147 q 392 101 331 101 q 471 115 429 101 l 471 8 q 339 -14 417 -14 z "},"ţ":{"ha":519,"x_min":32,"x_max":500,"o":"m 349 -65 q 461 -98 422 -65 q 500 -190 500 -131 q 294 -333 500 -333 q 240 -330 272 -333 q 193 -322 208 -326 l 193 -240 q 279 -251 233 -251 q 371 -239 344 -251 q 397 -189 397 -226 q 372 -142 397 -153 q 285 -132 346 -132 l 229 -132 l 268 -6 q 164 63 199 11 q 129 196 129 114 l 129 540 l 32 540 l 32 658 l 129 658 l 129 810 l 279 856 l 279 658 l 454 658 l 444 540 l 279 540 l 279 204 q 305 124 279 147 q 392 101 331 101 q 471 115 429 101 l 471 8 q 367 -14 426 -10 l 349 -65 z "},"ț":{"ha":504,"x_min":32,"x_max":471,"o":"m 339 -14 q 182 41 235 -14 q 129 196 129 96 l 129 540 l 32 540 l 32 658 l 129 658 l 129 810 l 279 856 l 279 658 l 454 658 l 444 540 l 279 540 l 279 204 q 305 124 279 147 q 392 101 331 101 q 471 115 429 101 l 471 8 q 339 -14 417 -14 m 260 -62 l 385 -62 l 321 -325 l 219 -325 l 260 -62 z "},"ẗ":{"ha":504,"x_min":32,"x_max":471,"o":"m 33 1013 l 161 1013 l 161 893 l 33 893 l 33 1013 m 292 1013 l 419 1013 l 419 893 l 292 893 l 292 1013 m 339 -14 q 182 41 235 -14 q 129 196 129 96 l 129 540 l 32 540 l 32 658 l 129 658 l 129 810 l 279 856 l 279 658 l 454 658 l 444 540 l 279 540 l 279 204 q 305 124 279 147 q 392 101 331 101 q 471 115 429 101 l 471 8 q 339 -14 417 -14 z "},"ṭ":{"ha":504,"x_min":32,"x_max":471,"o":"m 339 -14 q 182 41 235 -14 q 129 196 129 96 l 129 540 l 32 540 l 32 658 l 129 658 l 129 810 l 279 856 l 279 658 l 454 658 l 444 540 l 279 540 l 279 204 q 305 124 279 147 q 392 101 331 101 q 471 115 429 101 l 471 8 q 339 -14 417 -14 m 247 -108 l 378 -108 l 378 -231 l 247 -231 l 247 -108 z "},"ṯ":{"ha":504,"x_min":32,"x_max":485,"o":"m 339 -14 q 182 41 235 -14 q 129 196 129 96 l 129 540 l 32 540 l 32 658 l 129 658 l 129 810 l 279 856 l 279 658 l 454 658 l 444 540 l 279 540 l 279 204 q 305 124 279 147 q 392 101 331 101 q 471 115 429 101 l 471 8 q 339 -14 417 -14 m 71 -90 l 485 -90 l 485 -189 l 71 -189 l 71 -90 z "},"u":{"ha":803,"x_min":81,"x_max":714,"o":"m 325 -14 q 144 52 207 -14 q 81 243 81 118 l 81 658 l 232 658 l 232 243 q 268 135 232 169 q 379 100 304 100 q 481 120 433 100 q 564 176 528 140 l 564 658 l 714 658 l 714 0 l 576 0 l 569 68 q 325 -14 465 -14 z "},"ú":{"ha":803,"x_min":81,"x_max":714,"o":"m 419 971 l 553 971 l 436 725 l 315 725 l 419 971 m 325 -14 q 144 52 207 -14 q 81 243 81 118 l 81 658 l 232 658 l 232 243 q 268 135 232 169 q 379 100 304 100 q 481 120 433 100 q 564 176 528 140 l 564 658 l 714 658 l 714 0 l 576 0 l 569 68 q 325 -14 465 -14 z "},"ŭ":{"ha":803,"x_min":81,"x_max":714,"o":"m 400 725 q 256 778 308 725 q 204 921 204 831 l 307 921 q 331 844 307 872 q 400 815 356 815 q 472 844 446 815 q 497 921 497 872 l 600 921 q 547 778 600 831 q 400 725 493 725 m 325 -14 q 144 52 207 -14 q 81 243 81 118 l 81 658 l 232 658 l 232 243 q 268 135 232 169 q 379 100 304 100 q 481 120 433 100 q 564 176 528 140 l 564 658 l 714 658 l 714 0 l 576 0 l 569 68 q 325 -14 465 -14 z "},"ǔ":{"ha":803,"x_min":81,"x_max":714,"o":"m 171 947 l 294 947 l 397 807 l 503 947 l 624 947 l 450 724 l 344 724 l 171 947 m 325 -14 q 144 52 207 -14 q 81 243 81 118 l 81 658 l 232 658 l 232 243 q 268 135 232 169 q 379 100 304 100 q 481 120 433 100 q 564 176 528 140 l 564 658 l 714 658 l 714 0 l 576 0 l 569 68 q 325 -14 465 -14 z "},"û":{"ha":803,"x_min":81,"x_max":714,"o":"m 343 947 l 449 947 l 622 724 l 501 724 l 396 864 l 293 724 l 169 724 l 343 947 m 325 -14 q 144 52 207 -14 q 81 243 81 118 l 81 658 l 232 658 l 232 243 q 268 135 232 169 q 379 100 304 100 q 481 120 433 100 q 564 176 528 140 l 564 658 l 714 658 l 714 0 l 576 0 l 569 68 q 325 -14 465 -14 z "},"ü":{"ha":803,"x_min":81,"x_max":714,"o":"m 201 875 l 329 875 l 329 756 l 201 756 l 201 875 m 460 875 l 588 875 l 588 756 l 460 756 l 460 875 m 325 -14 q 144 52 207 -14 q 81 243 81 118 l 81 658 l 232 658 l 232 243 q 268 135 232 169 q 379 100 304 100 q 481 120 433 100 q 564 176 528 140 l 564 658 l 714 658 l 714 0 l 576 0 l 569 68 q 325 -14 465 -14 z "},"ǘ":{"ha":803,"x_min":81,"x_max":714,"o":"m 419 1038 l 535 1038 l 442 861 l 335 861 l 419 1038 m 192 842 l 317 842 l 317 725 l 192 725 l 192 842 m 468 842 l 592 842 l 592 725 l 468 725 l 468 842 m 325 -14 q 144 52 207 -14 q 81 243 81 118 l 81 658 l 232 658 l 232 243 q 268 135 232 169 q 379 100 304 100 q 481 120 433 100 q 564 176 528 140 l 564 658 l 714 658 l 714 0 l 576 0 l 569 68 q 325 -14 465 -14 z "},"ǚ":{"ha":803,"x_min":81,"x_max":714,"o":"m 190 1024 l 308 1024 l 401 915 l 496 1024 l 611 1024 l 456 857 l 346 857 l 190 1024 m 197 840 l 322 840 l 322 724 l 197 724 l 197 840 m 474 840 l 597 840 l 597 724 l 474 724 l 474 840 m 325 -14 q 144 52 207 -14 q 81 243 81 118 l 81 658 l 232 658 l 232 243 q 268 135 232 169 q 379 100 304 100 q 481 120 433 100 q 564 176 528 140 l 564 658 l 714 658 l 714 0 l 576 0 l 569 68 q 325 -14 465 -14 z "},"ǜ":{"ha":803,"x_min":81,"x_max":714,"o":"m 258 1038 l 375 1038 l 458 861 l 351 861 l 258 1038 m 201 842 l 326 842 l 326 725 l 201 725 l 201 842 m 478 842 l 601 842 l 601 725 l 478 725 l 478 842 m 325 -14 q 144 52 207 -14 q 81 243 81 118 l 81 658 l 232 658 l 232 243 q 268 135 232 169 q 379 100 304 100 q 481 120 433 100 q 564 176 528 140 l 564 658 l 714 658 l 714 0 l 576 0 l 569 68 q 325 -14 465 -14 z "},"ǖ":{"ha":803,"x_min":81,"x_max":714,"o":"m 197 1032 l 611 1032 l 611 933 l 197 933 l 197 1032 m 210 867 l 338 867 l 338 747 l 210 747 l 210 867 m 468 867 l 596 867 l 596 747 l 468 747 l 468 867 m 325 -14 q 144 52 207 -14 q 81 243 81 118 l 81 658 l 232 658 l 232 243 q 268 135 232 169 q 379 100 304 100 q 481 120 433 100 q 564 176 528 140 l 564 658 l 714 658 l 714 0 l 576 0 l 569 68 q 325 -14 465 -14 z "},"ụ":{"ha":803,"x_min":81,"x_max":714,"o":"m 325 -14 q 144 52 207 -14 q 81 243 81 118 l 81 658 l 232 658 l 232 243 q 268 135 232 169 q 379 100 304 100 q 481 120 433 100 q 564 176 528 140 l 564 658 l 714 658 l 714 0 l 576 0 l 569 68 q 325 -14 465 -14 m 324 -118 l 454 -118 l 454 -240 l 324 -240 l 324 -118 z "},"ù":{"ha":803,"x_min":81,"x_max":714,"o":"m 236 971 l 368 971 l 474 725 l 351 725 l 236 971 m 325 -14 q 144 52 207 -14 q 81 243 81 118 l 81 658 l 232 658 l 232 243 q 268 135 232 169 q 379 100 304 100 q 481 120 433 100 q 564 176 528 140 l 564 658 l 714 658 l 714 0 l 576 0 l 569 68 q 325 -14 465 -14 z "},"ủ":{"ha":803,"x_min":81,"x_max":714,"o":"m 336 838 q 438 856 413 842 q 464 907 464 871 q 438 951 464 938 q 361 965 413 965 q 315 960 340 965 q 272 949 290 956 l 272 1031 q 330 1044 294 1039 q 401 1049 365 1049 q 531 1014 486 1049 q 576 919 576 979 q 549 830 576 861 q 454 789 521 799 l 454 724 l 336 724 l 336 838 m 325 -14 q 144 52 207 -14 q 81 243 81 118 l 81 658 l 232 658 l 232 243 q 268 135 232 169 q 379 100 304 100 q 481 120 433 100 q 564 176 528 140 l 564 658 l 714 658 l 714 0 l 576 0 l 569 68 q 325 -14 465 -14 z "},"ư":{"ha":975,"x_min":81,"x_max":944,"o":"m 325 -14 q 144 52 207 -14 q 81 243 81 118 l 81 658 l 232 658 l 232 243 q 268 135 232 169 q 379 100 304 100 q 481 120 433 100 q 564 176 528 140 l 564 658 l 714 658 l 714 582 q 803 624 779 588 q 828 744 828 660 l 944 744 q 888 545 944 608 q 714 478 832 482 l 714 0 l 576 0 l 569 68 q 325 -14 465 -14 z "},"ứ":{"ha":975,"x_min":81,"x_max":944,"o":"m 447 971 l 581 971 l 464 725 l 343 725 l 447 971 m 325 -14 q 144 52 207 -14 q 81 243 81 118 l 81 658 l 232 658 l 232 243 q 268 135 232 169 q 379 100 304 100 q 481 120 433 100 q 564 176 528 140 l 564 658 l 714 658 l 714 582 q 803 624 779 588 q 828 744 828 660 l 944 744 q 888 545 944 608 q 714 478 832 482 l 714 0 l 576 0 l 569 68 q 325 -14 465 -14 z "},"ự":{"ha":975,"x_min":81,"x_max":944,"o":"m 325 -14 q 144 52 207 -14 q 81 243 81 118 l 81 658 l 232 658 l 232 243 q 268 135 232 169 q 379 100 304 100 q 481 120 433 100 q 564 176 528 140 l 564 658 l 714 658 l 714 582 q 803 624 779 588 q 828 744 828 660 l 944 744 q 888 545 944 608 q 714 478 832 482 l 714 0 l 576 0 l 569 68 q 325 -14 465 -14 m 331 -118 l 461 -118 l 461 -240 l 331 -240 l 331 -118 z "},"ừ":{"ha":975,"x_min":81,"x_max":944,"o":"m 238 971 l 369 971 l 475 725 l 353 725 l 238 971 m 325 -14 q 144 52 207 -14 q 81 243 81 118 l 81 658 l 232 658 l 232 243 q 268 135 232 169 q 379 100 304 100 q 481 120 433 100 q 564 176 528 140 l 564 658 l 714 658 l 714 582 q 803 624 779 588 q 828 744 828 660 l 944 744 q 888 545 944 608 q 714 478 832 482 l 714 0 l 576 0 l 569 68 q 325 -14 465 -14 z "},"ử":{"ha":975,"x_min":81,"x_max":944,"o":"m 344 838 q 447 856 421 842 q 472 907 472 871 q 447 951 472 938 q 369 965 421 965 q 324 960 349 965 q 281 949 299 956 l 281 1031 q 338 1044 303 1039 q 410 1049 374 1049 q 540 1014 494 1049 q 585 919 585 979 q 557 830 585 861 q 463 789 529 799 l 463 724 l 344 724 l 344 838 m 325 -14 q 144 52 207 -14 q 81 243 81 118 l 81 658 l 232 658 l 232 243 q 268 135 232 169 q 379 100 304 100 q 481 120 433 100 q 564 176 528 140 l 564 658 l 714 658 l 714 582 q 803 624 779 588 q 828 744 828 660 l 944 744 q 888 545 944 608 q 714 478 832 482 l 714 0 l 576 0 l 569 68 q 325 -14 465 -14 z "},"ữ":{"ha":975,"x_min":81,"x_max":944,"o":"m 519 743 q 469 750 493 743 q 404 772 446 757 q 349 791 369 785 q 308 797 329 797 q 188 747 232 797 l 188 858 q 238 888 206 876 q 306 900 271 900 q 358 893 333 900 q 417 872 382 886 q 471 853 449 860 q 518 846 493 846 q 629 897 590 846 l 629 786 q 585 755 615 767 q 519 743 556 743 m 325 -14 q 144 52 207 -14 q 81 243 81 118 l 81 658 l 232 658 l 232 243 q 268 135 232 169 q 379 100 304 100 q 481 120 433 100 q 564 176 528 140 l 564 658 l 714 658 l 714 582 q 803 624 779 588 q 828 744 828 660 l 944 744 q 888 545 944 608 q 714 478 832 482 l 714 0 l 576 0 l 569 68 q 325 -14 465 -14 z "},"ű":{"ha":803,"x_min":81,"x_max":714,"o":"m 250 951 l 388 951 l 268 724 l 146 724 l 250 951 m 551 951 l 689 951 l 569 724 l 447 724 l 551 951 m 325 -14 q 144 52 207 -14 q 81 243 81 118 l 81 658 l 232 658 l 232 243 q 268 135 232 169 q 379 100 304 100 q 481 120 433 100 q 564 176 528 140 l 564 658 l 714 658 l 714 0 l 576 0 l 569 68 q 325 -14 465 -14 z "},"ū":{"ha":803,"x_min":81,"x_max":714,"o":"m 190 869 l 604 869 l 604 771 l 190 771 l 190 869 m 325 -14 q 144 52 207 -14 q 81 243 81 118 l 81 658 l 232 658 l 232 243 q 268 135 232 169 q 379 100 304 100 q 481 120 433 100 q 564 176 528 140 l 564 658 l 714 658 l 714 0 l 576 0 l 569 68 q 325 -14 465 -14 z "},"ų":{"ha":804,"x_min":81,"x_max":729,"o":"m 660 -211 q 697 -207 678 -211 q 729 -196 717 -203 l 729 -287 q 682 -301 711 -296 q 622 -306 653 -306 q 516 -274 558 -306 q 474 -182 474 -243 q 501 -81 474 -129 q 576 0 529 -33 l 569 68 q 325 -14 465 -14 q 144 52 207 -14 q 81 243 81 118 l 81 658 l 232 658 l 232 243 q 268 135 232 169 q 379 100 304 100 q 481 120 433 100 q 564 176 528 140 l 564 658 l 714 658 l 714 0 l 690 0 q 619 -75 644 -35 q 594 -156 594 -115 q 610 -199 594 -186 q 660 -211 626 -211 z "},"ů":{"ha":803,"x_min":81,"x_max":714,"o":"m 390 724 q 274 769 318 724 q 229 881 229 814 q 274 994 229 949 q 390 1039 318 1039 q 509 994 464 1039 q 554 881 554 949 q 509 769 554 814 q 390 724 464 724 m 390 799 q 451 822 428 799 q 475 881 475 846 q 451 939 475 915 q 390 963 428 963 q 331 939 354 963 q 308 881 308 915 q 331 822 308 846 q 390 799 354 799 m 325 -14 q 144 52 207 -14 q 81 243 81 118 l 81 658 l 232 658 l 232 243 q 268 135 232 169 q 379 100 304 100 q 481 120 433 100 q 564 176 528 140 l 564 658 l 714 658 l 714 0 l 576 0 l 569 68 q 325 -14 465 -14 z "},"ũ":{"ha":803,"x_min":81,"x_max":714,"o":"m 508 746 q 458 753 482 746 q 393 775 435 760 q 338 794 358 788 q 297 800 318 800 q 176 750 221 800 l 176 861 q 227 891 194 879 q 294 903 260 903 q 347 896 322 903 q 406 875 371 889 q 460 856 438 863 q 507 849 482 849 q 618 900 579 849 l 618 789 q 574 758 604 769 q 508 746 544 746 m 325 -14 q 144 52 207 -14 q 81 243 81 118 l 81 658 l 232 658 l 232 243 q 268 135 232 169 q 379 100 304 100 q 481 120 433 100 q 564 176 528 140 l 564 658 l 714 658 l 714 0 l 576 0 l 569 68 q 325 -14 465 -14 z "},"v":{"ha":803,"x_min":60,"x_max":742,"o":"m 60 658 l 217 658 l 401 147 l 586 658 l 742 658 l 483 0 l 319 0 l 60 658 z "},"w":{"ha":1036,"x_min":60,"x_max":976,"o":"m 60 658 l 211 658 l 325 179 l 454 578 l 454 658 l 569 658 l 713 179 l 826 658 l 976 658 l 804 0 l 661 0 l 521 431 l 378 0 l 233 0 l 60 658 z "},"ẃ":{"ha":1036,"x_min":60,"x_max":976,"o":"m 554 971 l 688 971 l 571 725 l 450 725 l 554 971 m 60 658 l 211 658 l 325 179 l 454 578 l 454 658 l 569 658 l 713 179 l 826 658 l 976 658 l 804 0 l 661 0 l 521 431 l 378 0 l 233 0 l 60 658 z "},"ŵ":{"ha":1036,"x_min":60,"x_max":976,"o":"m 467 947 l 572 947 l 746 724 l 625 724 l 519 864 l 417 724 l 293 724 l 467 947 m 60 658 l 211 658 l 325 179 l 454 578 l 454 658 l 569 658 l 713 179 l 826 658 l 976 658 l 804 0 l 661 0 l 521 431 l 378 0 l 233 0 l 60 658 z "},"ẅ":{"ha":1036,"x_min":60,"x_max":976,"o":"m 328 875 l 456 875 l 456 756 l 328 756 l 328 875 m 586 875 l 714 875 l 714 756 l 586 756 l 586 875 m 60 658 l 211 658 l 325 179 l 454 578 l 454 658 l 569 658 l 713 179 l 826 658 l 976 658 l 804 0 l 661 0 l 521 431 l 378 0 l 233 0 l 60 658 z "},"ẁ":{"ha":1036,"x_min":60,"x_max":976,"o":"m 332 971 l 464 971 l 569 725 l 447 725 l 332 971 m 60 658 l 211 658 l 325 179 l 454 578 l 454 658 l 569 658 l 713 179 l 826 658 l 976 658 l 804 0 l 661 0 l 521 431 l 378 0 l 233 0 l 60 658 z "},"x":{"ha":788,"x_min":60,"x_max":726,"o":"m 311 335 l 69 658 l 232 658 l 393 439 l 554 658 l 717 658 l 476 335 l 726 0 l 563 0 l 393 229 l 224 0 l 60 0 l 311 335 z "},"y":{"ha":831,"x_min":60,"x_max":797,"o":"m 236 -244 q 108 -225 161 -244 l 108 -112 q 193 -126 147 -126 q 261 -113 235 -126 q 307 -72 288 -100 q 353 8 326 -44 l 60 658 l 217 658 l 428 169 l 642 658 l 797 658 l 529 38 q 405 -174 469 -104 q 236 -244 340 -244 z "},"ý":{"ha":831,"x_min":60,"x_max":797,"o":"m 460 971 l 593 971 l 476 725 l 356 725 l 460 971 m 236 -244 q 108 -225 161 -244 l 108 -112 q 193 -126 147 -126 q 261 -113 235 -126 q 307 -72 288 -100 q 353 8 326 -44 l 60 658 l 217 658 l 428 169 l 642 658 l 797 658 l 529 38 q 405 -174 469 -104 q 236 -244 340 -244 z "},"ŷ":{"ha":831,"x_min":60,"x_max":797,"o":"m 376 947 l 482 947 l 656 724 l 535 724 l 429 864 l 326 724 l 203 724 l 376 947 m 236 -244 q 108 -225 161 -244 l 108 -112 q 193 -126 147 -126 q 261 -113 235 -126 q 307 -72 288 -100 q 353 8 326 -44 l 60 658 l 217 658 l 428 169 l 642 658 l 797 658 l 529 38 q 405 -174 469 -104 q 236 -244 340 -244 z "},"ÿ":{"ha":831,"x_min":60,"x_max":797,"o":"m 239 892 l 367 892 l 367 772 l 239 772 l 239 892 m 497 892 l 625 892 l 625 772 l 497 772 l 497 892 m 236 -244 q 108 -225 161 -244 l 108 -112 q 193 -126 147 -126 q 261 -113 235 -126 q 307 -72 288 -100 q 353 8 326 -44 l 60 658 l 217 658 l 428 169 l 642 658 l 797 658 l 529 38 q 405 -174 469 -104 q 236 -244 340 -244 z "},"ẏ":{"ha":831,"x_min":60,"x_max":797,"o":"m 364 879 l 492 879 l 492 757 l 364 757 l 364 879 m 236 -244 q 108 -225 161 -244 l 108 -112 q 193 -126 147 -126 q 261 -113 235 -126 q 307 -72 288 -100 q 353 8 326 -44 l 60 658 l 217 658 l 428 169 l 642 658 l 797 658 l 529 38 q 405 -174 469 -104 q 236 -244 340 -244 z "},"ỵ":{"ha":831,"x_min":60,"x_max":797,"o":"m 236 -244 q 108 -225 161 -244 l 108 -112 q 193 -126 147 -126 q 261 -113 235 -126 q 307 -72 288 -100 q 353 8 326 -44 l 60 658 l 217 658 l 428 169 l 642 658 l 797 658 l 529 38 q 405 -174 469 -104 q 236 -244 340 -244 m 561 -101 l 692 -101 l 692 -224 l 561 -224 l 561 -101 z "},"ỳ":{"ha":831,"x_min":60,"x_max":797,"o":"m 258 971 l 390 971 l 496 725 l 374 725 l 258 971 m 236 -244 q 108 -225 161 -244 l 108 -112 q 193 -126 147 -126 q 261 -113 235 -126 q 307 -72 288 -100 q 353 8 326 -44 l 60 658 l 217 658 l 428 169 l 642 658 l 797 658 l 529 38 q 405 -174 469 -104 q 236 -244 340 -244 z "},"ỷ":{"ha":831,"x_min":60,"x_max":797,"o":"m 371 838 q 473 856 447 842 q 499 907 499 871 q 473 951 499 938 q 396 965 447 965 q 350 960 375 965 q 307 949 325 956 l 307 1031 q 365 1044 329 1039 q 436 1049 400 1049 q 566 1014 521 1049 q 611 919 611 979 q 583 830 611 861 q 489 789 556 799 l 489 724 l 371 724 l 371 838 m 236 -244 q 108 -225 161 -244 l 108 -112 q 193 -126 147 -126 q 261 -113 235 -126 q 307 -72 288 -100 q 353 8 326 -44 l 60 658 l 217 658 l 428 169 l 642 658 l 797 658 l 529 38 q 405 -174 469 -104 q 236 -244 340 -244 z "},"ỹ":{"ha":831,"x_min":60,"x_max":797,"o":"m 538 746 q 488 753 511 746 q 422 775 464 760 q 367 794 388 788 q 326 800 347 800 q 206 750 250 800 l 206 861 q 256 891 224 879 q 324 903 289 903 q 376 896 351 903 q 435 875 400 889 q 489 856 467 863 q 536 849 511 849 q 647 900 608 849 l 647 789 q 603 758 633 769 q 538 746 574 746 m 236 -244 q 108 -225 161 -244 l 108 -112 q 193 -126 147 -126 q 261 -113 235 -126 q 307 -72 288 -100 q 353 8 326 -44 l 60 658 l 217 658 l 428 169 l 642 658 l 797 658 l 529 38 q 405 -174 469 -104 q 236 -244 340 -244 z "},"z":{"ha":676,"x_min":60,"x_max":615,"o":"m 60 79 l 419 535 l 76 535 l 76 658 l 606 658 l 606 565 l 253 117 l 615 117 l 615 0 l 60 0 l 60 79 z "},"ź":{"ha":676,"x_min":60,"x_max":615,"o":"m 381 971 l 514 971 l 397 725 l 276 725 l 381 971 m 60 79 l 419 535 l 76 535 l 76 658 l 606 658 l 606 565 l 253 117 l 615 117 l 615 0 l 60 0 l 60 79 z "},"ž":{"ha":676,"x_min":60,"x_max":615,"o":"m 104 947 l 228 947 l 331 807 l 436 947 l 557 947 l 383 724 l 278 724 l 104 947 m 60 79 l 419 535 l 76 535 l 76 658 l 606 658 l 606 565 l 253 117 l 615 117 l 615 0 l 60 0 l 60 79 z "},"ż":{"ha":676,"x_min":60,"x_max":615,"o":"m 278 879 l 406 879 l 406 757 l 278 757 l 278 879 m 60 79 l 419 535 l 76 535 l 76 658 l 606 658 l 606 565 l 253 117 l 615 117 l 615 0 l 60 0 l 60 79 z "},"ẓ":{"ha":676,"x_min":60,"x_max":615,"o":"m 60 79 l 419 535 l 76 535 l 76 658 l 606 658 l 606 565 l 253 117 l 615 117 l 615 0 l 60 0 l 60 79 m 271 -118 l 401 -118 l 401 -240 l 271 -240 l 271 -118 z "},"ﬁ":{"ha":736,"x_min":32,"x_max":649,"o":"m 128 540 l 32 540 l 32 658 l 128 658 l 128 726 q 160 846 128 793 q 252 928 193 899 q 390 958 311 958 q 553 935 494 958 l 553 822 q 501 835 535 831 q 435 839 468 839 q 316 811 354 839 q 278 724 278 783 l 278 658 l 649 658 l 649 0 l 497 0 l 497 540 l 278 540 l 278 0 l 128 0 l 128 540 z "},"ﬂ":{"ha":736,"x_min":32,"x_max":649,"o":"m 128 540 l 32 540 l 32 658 l 128 658 l 128 729 q 196 894 128 831 q 378 958 264 958 q 524 938 460 958 l 649 938 l 649 0 l 497 0 l 497 540 l 278 540 l 278 0 l 128 0 l 128 540 m 497 658 l 497 829 q 411 842 460 842 q 278 725 278 842 l 278 658 l 497 658 z "},"ª":{"ha":476,"x_min":60,"x_max":415,"o":"m 192 528 q 97 555 133 528 q 60 638 60 582 q 208 758 60 758 l 322 758 l 322 771 q 303 821 322 807 q 225 835 283 835 q 107 815 165 835 l 107 886 q 244 908 168 908 q 371 874 326 908 q 415 769 415 840 l 415 536 l 332 536 l 326 572 q 269 538 300 549 q 192 528 238 528 m 219 593 q 322 642 288 593 l 322 696 l 225 696 q 166 684 183 696 q 149 642 149 672 q 167 604 149 615 q 219 593 185 593 z "},"º":{"ha":504,"x_min":60,"x_max":443,"o":"m 251 528 q 60 718 60 528 q 108 860 60 811 q 251 908 156 908 q 443 718 443 908 q 251 528 443 528 m 251 600 q 325 628 303 600 q 347 718 347 657 q 325 806 347 778 q 251 835 303 835 q 177 806 200 835 q 154 718 154 778 q 177 628 154 657 q 251 600 200 600 z "},"ⁿ":{"ha":497,"x_min":67,"x_max":436,"o":"m 67 900 l 156 900 l 158 863 q 303 907 221 907 q 401 874 365 907 q 436 775 436 840 l 436 536 l 343 536 l 343 757 q 326 817 343 800 q 267 833 310 833 q 210 822 239 833 q 161 792 181 810 l 161 536 l 67 536 l 67 900 z "},"Δ":{"ha":901,"x_min":60,"x_max":840,"o":"m 60 83 l 379 894 l 518 894 l 840 82 l 840 0 l 60 0 l 60 83 m 692 117 l 449 733 l 206 117 l 692 117 z "},"Ω":{"ha":1061,"x_min":60,"x_max":1000,"o":"m 69 114 l 269 114 q 115 276 171 176 q 60 506 60 375 q 116 744 60 640 q 278 907 172 849 q 531 965 385 965 q 781 907 675 965 q 944 744 888 849 q 1000 506 1000 640 q 945 274 1000 374 q 792 114 890 175 l 990 114 l 990 0 l 608 0 l 608 117 q 847 500 847 246 q 808 676 847 600 q 698 794 769 751 q 531 836 626 836 q 363 794 435 836 q 252 675 292 751 q 213 500 213 599 q 451 117 213 247 l 451 0 l 69 0 l 69 114 z "},"μ":{"ha":810,"x_min":88,"x_max":721,"o":"m 88 658 l 239 658 l 239 243 q 275 135 239 169 q 386 100 311 100 q 488 120 440 100 q 571 176 535 140 l 571 658 l 721 658 l 721 0 l 583 0 l 576 68 q 332 -14 472 -14 q 239 7 276 -14 l 239 -199 l 88 -199 l 88 658 z "},"π":{"ha":933,"x_min":46,"x_max":890,"o":"m 757 -14 q 603 42 656 -14 q 550 199 550 99 l 550 542 l 289 542 l 289 0 l 139 0 l 139 542 l 46 542 l 46 658 l 793 658 l 793 542 l 701 542 l 701 204 q 726 126 701 147 q 810 104 750 104 q 890 118 847 104 l 890 8 q 757 -14 833 -14 z "},"ก":{"ha":851,"x_min":60,"x_max":763,"o":"m 100 271 q 210 443 100 410 l 60 481 l 60 636 q 215 728 122 692 q 419 764 307 764 q 676 693 590 764 q 763 465 763 622 l 763 0 l 611 0 l 611 469 q 567 603 611 565 q 414 642 522 642 q 285 622 346 642 q 190 571 225 603 l 190 546 l 349 506 l 349 406 q 272 361 294 392 q 250 269 250 331 l 250 0 l 100 0 l 100 271 z "},"ถ":{"ha":851,"x_min":60,"x_max":763,"o":"m 235 0 q 136 39 172 0 q 100 140 100 78 l 100 271 q 210 443 100 410 l 60 481 l 60 636 q 215 728 122 692 q 419 764 307 764 q 676 693 590 764 q 763 465 763 622 l 763 0 l 611 0 l 611 469 q 567 603 611 565 q 414 642 522 642 q 285 622 346 642 q 190 571 225 603 l 190 546 l 349 506 l 349 406 q 272 361 294 392 q 250 269 250 331 l 250 179 q 264 133 250 147 q 308 119 278 119 l 385 119 l 385 0 l 235 0 z "},"ภ":{"ha":899,"x_min":67,"x_max":810,"o":"m 67 119 l 118 119 q 159 133 147 119 q 171 178 171 146 l 171 271 q 192 380 171 338 q 269 443 213 422 l 117 481 l 117 636 q 270 727 178 690 q 475 764 363 764 q 725 692 640 764 q 810 465 810 619 l 810 0 l 660 0 l 660 469 q 617 603 660 564 q 471 642 574 642 q 341 622 401 642 q 247 571 281 603 l 247 546 l 410 506 l 410 406 q 341 362 358 390 q 324 269 324 333 l 324 169 q 160 0 324 0 l 67 0 l 67 119 z "},"ฤ":{"ha":851,"x_min":60,"x_max":763,"o":"m 611 469 q 567 603 611 565 q 414 642 522 642 q 285 622 346 642 q 190 571 225 603 l 190 546 l 349 506 l 349 406 q 272 361 294 392 q 250 269 250 331 l 250 179 q 264 133 250 147 q 308 119 278 119 l 385 119 l 385 0 l 235 0 q 136 39 172 0 q 100 140 100 78 l 100 271 q 210 443 100 410 l 60 481 l 60 636 q 215 728 122 692 q 419 764 307 764 q 676 693 590 764 q 763 465 763 622 l 763 -222 l 611 -222 l 611 469 z "},"ฦ":{"ha":899,"x_min":67,"x_max":810,"o":"m 660 469 q 617 603 660 564 q 471 642 574 642 q 341 622 401 642 q 247 571 281 603 l 247 546 l 410 506 l 410 406 q 341 362 358 390 q 324 269 324 333 l 324 169 q 160 0 324 0 l 67 0 l 67 119 l 118 119 q 159 133 147 119 q 171 178 171 146 l 171 271 q 192 380 171 338 q 269 443 213 422 l 117 481 l 117 636 q 270 727 178 690 q 475 764 363 764 q 725 692 640 764 q 810 465 810 619 l 810 -222 l 660 -222 l 660 469 z "},"ฎ":{"ha":899,"x_min":67,"x_max":810,"o":"m 233 -153 q 469 -103 340 -103 q 576 -113 526 -103 q 660 -143 626 -124 l 660 469 q 617 603 660 564 q 471 642 574 642 q 341 622 401 642 q 247 571 281 603 l 247 546 l 410 506 l 410 406 q 341 362 358 390 q 324 269 324 333 l 324 169 q 160 0 324 0 l 67 0 l 67 119 l 118 119 q 159 133 147 119 q 171 178 171 146 l 171 271 q 192 380 171 338 q 269 443 213 422 l 117 481 l 117 636 q 270 727 178 690 q 475 764 363 764 q 725 692 640 764 q 810 465 810 619 l 810 -269 l 660 -269 q 454 -224 575 -224 q 339 -237 397 -224 q 233 -274 281 -250 l 233 -153 z "},"ฏ":{"ha":899,"x_min":67,"x_max":810,"o":"m 606 -271 q 515 -253 557 -271 q 450 -207 472 -236 q 324 -269 415 -269 l 189 -269 l 197 -149 l 296 -149 q 359 -135 336 -149 q 397 -89 382 -122 l 496 -89 q 528 -137 508 -121 q 583 -154 549 -154 q 642 -133 624 -154 q 660 -69 660 -112 l 660 469 q 617 603 660 564 q 471 642 574 642 q 341 622 401 642 q 247 571 281 603 l 247 546 l 410 506 l 410 406 q 341 362 358 390 q 324 269 324 333 l 324 169 q 160 0 324 0 l 67 0 l 67 119 l 118 119 q 159 133 147 119 q 171 178 171 146 l 171 271 q 192 380 171 338 q 269 443 213 422 l 117 481 l 117 636 q 270 727 178 690 q 475 764 363 764 q 725 692 640 764 q 810 465 810 619 l 810 -78 q 756 -220 810 -169 q 606 -271 701 -271 z "},"ญ":{"ha":1347,"x_min":60,"x_max":1258,"o":"m 931 -85 q 781 -70 856 -85 q 651 -25 707 -56 l 651 96 q 785 51 707 67 q 928 36 863 36 q 1076 58 1024 36 q 1128 117 1128 79 q 1108 163 1128 143 q 925 118 1033 118 q 679 194 763 118 q 596 424 596 271 l 596 469 q 553 603 596 565 q 410 642 511 642 q 284 622 343 642 q 190 571 225 603 l 190 546 l 349 506 l 349 406 q 272 361 294 392 q 250 269 250 331 l 250 179 q 264 133 250 147 q 308 119 278 119 l 385 119 l 385 0 l 235 0 q 136 39 172 0 q 100 140 100 78 l 100 271 q 210 443 100 410 l 60 481 l 60 636 q 213 728 122 692 q 415 764 304 764 q 661 693 579 764 q 743 465 743 622 l 743 418 q 787 282 743 325 q 925 239 831 239 q 1063 282 1019 239 q 1107 418 1107 325 l 1107 750 l 1257 750 l 1257 424 q 1206 238 1257 307 q 1258 108 1258 188 q 1174 -35 1258 15 q 931 -85 1089 -85 z "},"ข":{"ha":807,"x_min":57,"x_max":718,"o":"m 396 -14 q 156 59 239 -14 q 74 267 74 132 l 74 340 q 93 423 74 385 q 150 511 113 461 q 186 563 175 544 q 197 600 197 582 q 188 628 197 621 q 153 636 178 636 l 57 636 l 69 750 l 244 750 q 350 649 350 750 q 334 572 350 606 q 286 489 318 539 q 240 411 256 444 q 224 339 224 378 l 224 254 q 268 143 224 179 q 396 107 313 107 q 567 258 567 107 l 567 750 l 718 750 l 718 268 q 633 60 718 135 q 396 -14 547 -14 z "},"ฃ":{"ha":801,"x_min":57,"x_max":713,"o":"m 393 -14 q 155 56 236 -14 q 74 258 74 125 l 74 308 q 100 400 74 354 q 172 503 126 446 q 219 567 204 544 q 233 608 233 590 q 206 639 233 639 q 160 618 181 639 l 160 563 l 57 563 l 57 750 l 163 750 l 163 711 q 209 740 185 729 q 268 750 233 750 q 347 723 319 750 q 374 643 374 696 q 354 563 374 600 q 297 472 335 526 q 243 385 261 419 q 225 313 225 351 l 225 254 q 393 107 225 107 q 519 144 476 107 q 561 258 561 181 l 561 750 l 713 750 l 713 268 q 628 60 713 135 q 393 -14 544 -14 z "},"ช":{"ha":808,"x_min":58,"x_max":719,"o":"m 396 -14 q 157 59 239 -14 q 75 267 75 132 l 75 340 q 94 423 75 385 q 151 511 114 461 q 188 563 176 544 q 199 600 199 582 q 189 628 199 621 q 154 636 179 636 l 58 636 l 71 750 l 246 750 q 351 649 351 750 q 335 572 351 606 q 288 489 319 539 q 241 411 257 444 q 225 339 225 378 l 225 254 q 396 107 225 107 q 568 258 568 107 l 568 350 q 547 441 568 415 q 469 467 525 467 l 431 467 l 438 576 l 465 576 q 545 603 522 576 q 568 693 568 631 l 568 764 l 719 764 l 719 696 q 698 585 719 625 q 619 522 676 544 q 699 456 679 497 q 719 346 719 415 l 719 268 q 633 60 719 135 q 396 -14 547 -14 z "},"ซ":{"ha":808,"x_min":58,"x_max":719,"o":"m 396 -14 q 158 56 240 -14 q 75 257 75 126 l 75 313 q 101 403 75 358 q 174 504 128 449 q 221 569 207 547 q 235 608 235 590 q 207 639 235 639 q 161 618 182 639 l 161 563 l 58 563 l 58 750 l 164 750 l 164 711 q 210 740 186 729 q 269 750 235 750 q 348 723 321 750 q 375 643 375 696 q 356 563 375 600 q 299 472 336 526 q 244 385 263 419 q 226 313 226 351 l 226 254 q 270 143 226 179 q 396 107 314 107 q 569 258 569 107 l 569 350 q 547 441 569 415 q 469 467 525 467 l 431 467 l 438 576 l 465 576 q 546 604 522 576 q 569 693 569 632 l 569 764 l 719 764 l 719 696 q 699 585 719 626 q 621 522 678 544 q 699 456 679 497 q 719 346 719 415 l 719 268 q 634 60 719 135 q 396 -14 549 -14 z "},"ค":{"ha":854,"x_min":88,"x_max":765,"o":"m 88 475 q 172 689 88 614 q 428 764 256 764 q 683 689 600 764 q 765 475 765 614 l 765 0 l 614 0 l 614 489 q 428 642 614 642 q 286 604 333 642 q 239 489 239 567 l 239 335 q 385 385 300 385 l 475 385 l 481 264 l 381 264 q 239 217 296 264 l 239 0 l 88 0 l 88 475 z "},"ฅ":{"ha":854,"x_min":88,"x_max":765,"o":"m 88 549 q 134 708 88 653 q 271 764 181 764 q 426 692 372 764 q 499 746 454 728 q 590 764 543 764 q 726 712 686 764 q 765 547 765 660 l 765 0 l 615 0 l 615 550 q 601 613 615 592 q 551 635 588 635 q 501 620 522 635 q 463 578 481 606 l 390 578 q 360 620 376 606 q 318 635 343 635 q 258 613 278 635 q 238 550 238 590 l 238 335 q 383 385 299 385 l 475 385 l 481 264 l 381 264 q 238 217 297 264 l 238 0 l 88 0 l 88 549 z "},"ศ":{"ha":883,"x_min":88,"x_max":835,"o":"m 88 475 q 172 689 88 614 q 428 764 256 764 q 558 750 496 764 l 835 750 l 828 632 l 724 632 q 756 563 747 600 q 765 475 765 525 l 765 0 l 614 0 l 614 489 q 428 642 614 642 q 286 604 333 642 q 239 489 239 567 l 239 335 q 385 385 300 385 l 475 385 l 481 264 l 381 264 q 239 217 296 264 l 239 0 l 88 0 l 88 475 z "},"ด":{"ha":893,"x_min":60,"x_max":804,"o":"m 367 -14 q 143 80 226 -14 q 60 364 60 174 q 157 659 60 554 q 443 764 254 764 q 647 722 565 764 q 766 610 728 679 q 804 458 804 542 l 804 0 l 653 0 l 653 451 q 603 592 653 542 q 440 642 554 642 q 263 572 319 642 q 206 364 206 503 q 252 167 206 226 q 393 107 299 107 q 489 118 457 107 l 489 3 q 367 -14 442 -14 z "},"ต":{"ha":897,"x_min":60,"x_max":808,"o":"m 367 -14 q 143 80 226 -14 q 60 364 60 174 q 124 660 60 557 q 307 764 189 764 q 395 746 361 764 q 457 692 429 728 q 533 744 486 724 q 629 764 581 764 q 763 711 717 764 q 808 563 808 658 l 808 0 l 657 0 l 657 540 q 642 619 657 596 q 583 642 626 642 q 531 626 554 642 q 497 578 508 610 l 414 578 q 378 627 396 613 q 328 642 360 642 q 233 571 260 642 q 206 364 206 500 q 252 167 206 226 q 393 107 299 107 q 489 118 457 107 l 489 3 q 367 -14 442 -14 z "},"ท":{"ha":840,"x_min":88,"x_max":751,"o":"m 88 750 l 225 750 l 233 668 q 500 764 346 764 q 685 693 618 764 q 751 494 751 622 l 751 0 l 601 0 l 601 488 q 563 605 601 568 q 446 642 525 642 q 332 617 386 642 q 239 551 278 592 l 239 0 l 88 0 l 88 750 z "},"ฑ":{"ha":835,"x_min":58,"x_max":746,"o":"m 113 296 q 131 383 113 339 q 183 486 150 426 q 222 558 210 531 q 235 608 235 586 q 207 639 235 639 q 161 618 182 639 l 161 563 l 58 563 l 58 750 l 164 750 l 164 711 q 209 740 186 729 q 267 750 232 750 q 349 708 322 750 q 427 749 382 733 q 521 764 472 764 q 692 701 639 764 q 746 506 746 638 l 746 0 l 596 0 l 596 504 q 572 610 596 579 q 481 642 547 642 q 420 630 453 642 q 368 600 388 618 q 357 540 368 568 q 321 463 346 511 q 278 373 292 410 q 264 290 264 336 l 264 0 l 113 0 l 113 296 z "},"น":{"ha":840,"x_min":88,"x_max":751,"o":"m 343 -14 q 155 58 222 -14 q 88 258 88 129 l 88 750 l 239 750 l 239 265 q 276 144 239 182 q 393 107 313 107 q 508 132 453 107 q 601 197 564 157 l 601 750 l 751 750 l 751 0 l 614 0 l 607 82 q 343 -14 496 -14 z "},"ม":{"ha":840,"x_min":88,"x_max":751,"o":"m 496 -14 q 351 10 414 -14 q 233 82 288 35 l 225 0 l 88 0 l 88 750 l 239 750 l 239 197 q 332 132 278 157 q 446 107 386 107 q 563 144 525 107 q 601 265 601 182 l 601 750 l 751 750 l 751 258 q 684 58 751 129 q 496 -14 617 -14 z "},"ฌ":{"ha":1329,"x_min":60,"x_max":1240,"o":"m 992 -14 q 853 10 913 -14 q 738 82 793 35 l 729 0 l 596 0 l 596 469 q 553 603 596 565 q 410 642 511 642 q 284 622 343 642 q 190 571 225 603 l 190 546 l 349 506 l 349 406 q 272 361 294 392 q 250 269 250 331 l 250 179 q 264 133 250 147 q 308 119 278 119 l 385 119 l 385 0 l 235 0 q 136 39 172 0 q 100 140 100 78 l 100 271 q 210 443 100 410 l 60 481 l 60 636 q 213 728 122 692 q 415 764 304 764 q 661 693 579 764 q 743 465 743 622 l 743 197 q 833 131 782 156 q 942 107 885 107 q 1055 144 1019 107 q 1090 265 1090 181 l 1090 750 l 1240 750 l 1240 258 q 1176 57 1240 128 q 992 -14 1111 -14 z "},"ณ":{"ha":1333,"x_min":60,"x_max":1244,"o":"m 844 -14 q 660 57 725 -14 q 596 258 596 128 l 596 469 q 553 603 596 565 q 410 642 511 642 q 284 622 343 642 q 190 571 225 603 l 190 546 l 349 506 l 349 406 q 272 361 294 392 q 250 269 250 331 l 250 179 q 264 133 250 147 q 308 119 278 119 l 385 119 l 385 0 l 235 0 q 136 39 172 0 q 100 140 100 78 l 100 271 q 210 443 100 410 l 60 481 l 60 636 q 213 728 122 692 q 415 764 304 764 q 661 693 579 764 q 743 465 743 622 l 743 265 q 780 144 743 181 q 894 107 817 107 q 1003 131 951 107 q 1093 197 1054 156 l 1093 750 l 1244 750 l 1244 0 l 1107 0 l 1099 82 q 985 10 1046 35 q 844 -14 925 -14 z "},"ฒ":{"ha":1374,"x_min":60,"x_max":1285,"o":"m 367 -14 q 143 80 226 -14 q 60 364 60 174 q 122 660 60 556 q 297 764 185 764 q 385 746 351 764 q 446 692 418 728 q 520 744 475 725 q 614 764 565 764 q 744 712 701 764 q 786 563 786 660 l 786 197 q 876 132 825 157 q 986 107 928 107 q 1098 144 1063 107 q 1133 265 1133 181 l 1133 750 l 1285 750 l 1285 258 q 1220 57 1285 128 q 1036 -14 1156 -14 q 896 10 957 -14 q 781 82 835 35 l 774 0 l 640 0 l 640 540 q 626 619 640 596 q 571 642 613 642 q 519 626 542 642 q 486 578 497 610 l 403 578 q 367 627 385 613 q 318 642 350 642 q 230 571 254 642 q 206 364 206 500 q 252 167 206 226 q 393 107 299 107 q 489 118 457 107 l 489 3 q 367 -14 442 -14 z "},"ฆ":{"ha":835,"x_min":65,"x_max":746,"o":"m 490 -14 q 345 10 408 -14 q 228 82 282 35 l 219 0 l 82 0 l 82 290 q 108 384 82 336 q 181 496 133 432 q 228 567 214 543 q 242 608 242 590 q 214 639 242 639 q 168 618 189 639 l 168 563 l 65 563 l 65 750 l 171 750 l 171 711 q 217 740 193 729 q 276 750 242 750 q 355 723 328 750 q 382 643 382 696 q 363 563 382 601 q 306 463 344 524 q 251 369 269 406 q 233 294 233 333 l 233 197 q 326 132 272 157 q 440 107 381 107 q 558 144 519 107 q 596 265 596 182 l 596 750 l 746 750 l 746 258 q 678 58 746 129 q 490 -14 611 -14 z "},"ธ":{"ha":731,"x_min":60,"x_max":682,"o":"m 376 -14 q 210 1 290 -14 q 74 42 131 17 l 74 324 l 213 324 l 213 132 q 367 107 281 107 q 496 133 454 107 q 538 224 538 158 q 513 298 538 272 q 448 336 488 324 q 307 372 408 349 q 176 410 226 390 q 92 467 125 429 q 60 567 60 504 q 143 714 60 664 q 382 764 226 764 q 529 753 456 764 q 644 728 603 743 l 644 603 q 532 631 599 621 q 403 642 465 642 q 256 628 310 642 q 203 571 203 614 q 238 516 203 533 q 356 481 274 499 q 394 472 374 476 q 439 460 415 467 q 574 413 524 436 q 653 344 624 389 q 682 224 682 300 q 601 47 682 107 q 376 -14 519 -14 z "},"ร":{"ha":700,"x_min":60,"x_max":639,"o":"m 333 -14 q 190 -4 258 -14 q 78 24 121 6 l 78 150 q 190 118 129 129 q 306 107 251 107 q 450 125 407 107 q 493 197 493 143 q 476 251 493 231 q 431 283 460 271 q 340 315 401 296 l 286 333 q 116 419 172 372 q 60 550 60 465 q 136 708 60 651 q 361 764 213 764 q 485 754 422 764 q 590 731 547 744 l 590 606 q 490 632 546 622 q 383 642 433 642 q 251 623 296 642 q 206 554 206 604 q 224 506 206 525 q 275 473 243 486 q 374 438 307 460 l 414 425 q 586 337 533 385 q 639 197 639 289 q 558 38 639 90 q 333 -14 478 -14 z "},"จ":{"ha":790,"x_min":60,"x_max":731,"o":"m 386 -14 q 322 -9 357 -14 q 267 4 288 -4 l 156 300 l 60 300 l 67 414 l 251 414 l 367 106 q 525 168 465 101 q 585 382 585 235 q 559 537 585 481 q 475 617 533 593 q 314 642 417 642 q 76 606 186 642 l 76 722 q 354 764 207 764 q 640 667 549 764 q 731 382 731 571 q 684 167 731 257 q 559 32 638 78 q 386 -14 481 -14 z "},"ว":{"ha":690,"x_min":49,"x_max":638,"o":"m 274 -14 q 49 28 144 -14 l 49 147 q 238 107 143 107 q 388 133 333 107 q 467 218 443 160 q 492 375 492 276 q 433 581 492 519 q 236 642 374 642 q 49 601 140 642 l 49 722 q 269 764 147 764 q 546 665 454 764 q 638 375 638 567 q 549 85 638 183 q 274 -14 460 -14 z "},"ง":{"ha":783,"x_min":32,"x_max":724,"o":"m 382 -14 q 243 4 293 -14 l 32 518 l 179 518 l 350 101 q 523 169 468 96 q 578 399 578 243 q 561 542 578 490 q 506 615 544 593 q 396 636 467 636 l 343 636 l 343 750 l 415 750 q 649 665 575 750 q 724 400 724 579 q 631 88 724 189 q 382 -14 539 -14 z "},"ฐ":{"ha":839,"x_min":53,"x_max":790,"o":"m 379 -14 q 315 -9 350 -14 q 260 4 281 -4 l 149 300 l 53 300 l 60 414 l 244 414 l 360 106 q 518 168 458 101 q 578 382 578 235 q 552 537 578 481 q 468 617 526 593 q 307 642 410 642 q 69 606 179 642 l 69 722 q 347 764 200 764 q 481 750 414 764 l 790 750 l 783 632 l 654 632 q 724 382 724 544 q 677 167 724 257 q 552 32 631 78 q 379 -14 474 -14 m 494 -271 q 403 -253 446 -271 q 339 -207 361 -236 q 213 -269 304 -269 l 78 -269 l 86 -149 l 185 -149 q 248 -135 225 -149 q 286 -89 271 -122 l 385 -89 q 417 -137 397 -121 q 472 -154 438 -154 q 531 -133 513 -154 q 549 -69 549 -112 l 549 -57 l 699 -57 l 699 -78 q 644 -220 699 -169 q 494 -271 590 -271 z "},"ฉ":{"ha":810,"x_min":60,"x_max":721,"o":"m 310 -14 q 131 52 192 -14 q 69 246 69 118 l 69 417 l 219 417 l 219 260 q 252 142 219 178 q 368 107 285 107 q 569 199 488 107 l 569 458 q 547 569 569 529 q 472 625 524 608 q 331 642 421 642 q 194 630 272 642 q 60 600 117 618 l 60 717 q 206 751 122 738 q 369 764 289 764 q 636 689 551 764 q 721 457 721 614 l 721 0 l 583 0 l 575 82 q 458 11 522 36 q 310 -14 394 -14 z "},"ล":{"ha":825,"x_min":64,"x_max":736,"o":"m 319 -14 q 134 42 204 -14 q 64 215 64 99 q 139 387 64 326 q 356 447 214 447 l 585 447 l 585 494 q 567 582 585 550 q 507 628 549 614 q 392 642 465 642 q 147 606 260 642 l 147 722 q 276 752 204 740 q 417 764 347 764 q 658 695 581 764 q 736 481 736 626 l 736 0 l 585 0 l 585 331 l 365 331 q 247 304 285 331 q 208 215 208 278 q 243 131 208 156 q 360 107 278 107 q 456 118 415 107 l 456 3 q 319 -14 396 -14 z "},"ส":{"ha":846,"x_min":64,"x_max":797,"o":"m 319 -14 q 134 42 204 -14 q 64 215 64 97 q 138 387 64 326 q 356 447 213 447 l 585 447 l 585 494 q 542 609 585 576 q 390 642 500 642 q 146 606 258 642 l 146 722 q 275 752 203 740 q 417 764 347 764 q 546 750 483 764 l 797 750 l 789 632 l 701 632 q 727 566 719 603 q 735 481 735 529 l 735 0 l 585 0 l 585 331 l 364 331 q 247 304 285 331 q 208 215 208 278 q 243 131 208 156 q 360 107 278 107 q 454 118 417 107 l 454 3 q 319 -14 397 -14 z "},"บ":{"ha":863,"x_min":88,"x_max":774,"o":"m 431 -14 q 177 63 267 -14 q 88 292 88 140 l 88 750 l 239 750 l 239 286 q 287 151 239 194 q 431 107 335 107 q 575 151 526 107 q 624 286 624 194 l 624 750 l 774 750 l 774 292 q 685 63 774 140 q 431 -14 596 -14 z "},"ป":{"ha":863,"x_min":88,"x_max":774,"o":"m 431 -14 q 177 63 267 -14 q 88 292 88 140 l 88 750 l 239 750 l 239 286 q 287 151 239 194 q 431 107 335 107 q 575 151 526 107 q 624 286 624 194 l 624 972 l 774 972 l 774 292 q 685 63 774 140 q 431 -14 596 -14 z "},"ษ":{"ha":882,"x_min":88,"x_max":856,"o":"m 431 -14 q 176 63 265 -14 q 88 292 88 140 l 88 750 l 238 750 l 238 286 q 286 151 238 194 q 431 107 335 107 q 574 151 526 107 q 622 286 622 194 l 622 385 l 443 385 l 443 500 l 622 500 l 622 750 l 774 750 l 774 500 l 856 500 l 844 385 l 774 385 l 774 292 q 684 63 774 140 q 431 -14 594 -14 z "},"ย":{"ha":829,"x_min":56,"x_max":740,"o":"m 401 -14 q 149 43 242 -14 q 56 221 56 100 q 83 322 56 278 q 160 390 110 365 q 87 448 114 407 q 60 547 60 489 q 124 708 60 651 q 294 764 188 764 q 417 746 365 764 l 417 631 q 322 642 376 642 q 206 547 206 642 q 336 449 206 449 l 415 449 l 422 336 l 333 336 q 201 221 201 336 q 249 135 201 164 q 394 107 296 107 q 542 147 493 107 q 590 267 590 186 l 590 750 l 740 750 l 740 285 q 656 60 740 133 q 401 -14 571 -14 z "},"ผ":{"ha":894,"x_min":88,"x_max":806,"o":"m 88 610 q 122 711 88 672 q 219 750 157 750 l 363 750 l 369 633 l 297 633 q 248 617 263 633 q 233 565 233 601 l 233 203 l 417 521 l 478 521 l 661 203 l 661 750 l 806 750 l 806 0 l 657 0 l 447 371 l 236 0 l 88 0 l 88 610 z "},"ฝ":{"ha":894,"x_min":88,"x_max":806,"o":"m 88 610 q 122 711 88 672 q 219 750 157 750 l 363 750 l 369 633 l 297 633 q 248 617 263 633 q 233 565 233 601 l 233 203 l 417 521 l 478 521 l 661 203 l 661 972 l 806 972 l 806 0 l 657 0 l 447 371 l 236 0 l 88 0 l 88 610 z "},"ฟ":{"ha":1008,"x_min":49,"x_max":1003,"o":"m 49 750 l 197 750 l 308 214 l 444 643 l 444 750 l 553 750 l 704 214 l 856 972 l 1003 972 l 788 0 l 649 0 l 510 478 l 360 0 l 222 0 l 49 750 z "},"พ":{"ha":1008,"x_min":49,"x_max":960,"o":"m 49 750 l 197 750 l 308 214 l 444 643 l 444 750 l 553 750 l 704 214 l 813 750 l 960 750 l 788 0 l 649 0 l 510 478 l 360 0 l 222 0 l 49 750 z "},"ห":{"ha":839,"x_min":88,"x_max":750,"o":"m 88 750 l 239 750 l 239 514 l 456 514 q 567 547 535 514 q 600 653 600 581 l 600 750 l 750 750 l 750 657 q 638 458 750 499 q 720 392 697 438 q 743 276 743 346 l 743 0 l 593 0 l 593 258 q 563 369 593 339 q 450 399 532 399 l 239 399 l 239 0 l 88 0 l 88 750 z "},"ฬ":{"ha":1008,"x_min":49,"x_max":1001,"o":"m 49 750 l 197 750 l 310 214 l 444 588 l 444 694 l 551 694 l 701 214 l 788 606 q 793 657 793 632 q 775 710 793 694 q 718 725 757 725 l 663 725 l 681 838 l 742 838 q 820 856 794 838 q 856 922 846 875 l 867 972 l 1001 972 l 988 904 q 950 817 976 847 q 879 778 924 788 q 931 676 931 749 q 924 615 931 643 l 786 0 l 649 0 l 510 433 l 360 0 l 222 0 l 49 750 z "},"อ":{"ha":799,"x_min":69,"x_max":739,"o":"m 368 -14 q 205 1 283 -14 q 69 42 126 17 l 69 428 l 367 428 l 374 313 l 215 313 l 215 131 q 368 107 279 107 q 500 133 451 107 q 571 216 549 158 q 593 372 593 274 q 568 534 593 476 q 487 617 543 592 q 329 642 431 642 q 81 606 193 642 l 81 722 q 215 753 139 742 q 367 764 290 764 q 649 666 560 764 q 739 372 739 568 q 649 83 739 179 q 368 -14 560 -14 z "},"ฮ":{"ha":838,"x_min":69,"x_max":789,"o":"m 368 -14 q 205 1 283 -14 q 69 42 126 17 l 69 428 l 367 428 l 374 313 l 215 313 l 215 131 q 368 107 279 107 q 500 133 451 107 q 571 216 549 158 q 593 372 593 274 q 568 534 593 476 q 487 617 543 592 q 329 642 431 642 q 81 606 193 642 l 81 722 q 215 753 139 742 q 367 764 290 764 q 497 750 432 764 l 789 750 l 782 632 l 671 632 q 739 372 739 543 q 649 83 739 179 q 368 -14 560 -14 z "},"า":{"ha":611,"x_min":18,"x_max":522,"o":"m 371 472 q 358 569 371 533 q 310 623 346 604 q 208 642 275 642 q 112 632 164 642 q 18 606 60 622 l 18 722 q 121 752 61 740 q 238 764 181 764 q 455 699 388 764 q 522 492 522 633 l 522 0 l 371 0 l 371 472 z "},"ำ":{"ha":611,"x_min":-322,"x_max":522,"o":"m -165 831 q -277 874 -232 831 q -322 981 -322 917 q -277 1089 -322 1046 q -165 1132 -232 1132 q -55 1089 -100 1132 q -10 981 -10 1046 q -55 874 -10 917 q -165 831 -100 831 m -165 917 q -120 936 -139 917 q -101 981 -101 956 q -120 1028 -101 1008 q -165 1047 -139 1047 q -212 1028 -193 1047 q -232 981 -232 1008 q -212 936 -232 956 q -165 917 -192 917 m 371 472 q 358 569 371 533 q 310 623 346 604 q 208 642 275 642 q 112 632 164 642 q 18 606 60 622 l 18 722 q 121 752 61 740 q 238 764 181 764 q 455 699 388 764 q 522 492 522 633 l 522 0 l 371 0 l 371 472 z "},"ๅ":{"ha":611,"x_min":18,"x_max":522,"o":"m 371 472 q 358 569 371 533 q 310 623 346 604 q 208 642 275 642 q 112 632 164 642 q 18 606 60 622 l 18 722 q 121 752 61 740 q 238 764 181 764 q 455 699 388 764 q 522 492 522 633 l 522 -222 l 371 -222 l 371 472 z "},"ะ":{"ha":450,"x_min":60,"x_max":393,"o":"m 60 640 l 189 640 l 189 572 l 393 572 l 388 460 l 60 460 l 60 640 m 60 263 l 189 263 l 189 193 l 393 193 l 388 82 l 60 82 l 60 263 z "},"เ":{"ha":426,"x_min":90,"x_max":365,"o":"m 236 0 q 90 144 90 0 l 90 750 l 240 750 l 240 182 q 255 135 240 150 q 301 119 269 119 l 365 119 l 365 0 l 236 0 z "},"แ":{"ha":753,"x_min":88,"x_max":693,"o":"m 233 0 q 88 144 88 0 l 88 750 l 239 750 l 239 182 q 253 135 239 150 q 300 119 268 119 l 356 119 l 356 0 l 233 0 m 571 0 q 425 144 425 0 l 425 750 l 575 750 l 575 182 q 590 135 575 150 q 636 119 604 119 l 693 119 l 693 0 l 571 0 z "},"ไ":{"ha":418,"x_min":-3,"x_max":399,"o":"m 256 0 q 110 144 110 0 l 110 624 q 215 844 110 774 l -3 844 l -3 964 l 399 964 l 399 850 q 292 762 324 821 q 260 601 260 703 l 260 182 q 272 132 260 144 q 321 119 283 119 l 385 119 l 385 0 l 256 0 z "},"ใ":{"ha":408,"x_min":-10,"x_max":389,"o":"m 215 0 q 69 144 69 0 l 69 465 q 98 588 69 539 q 176 688 126 636 q 220 738 207 719 q 233 779 233 757 q 212 833 233 818 q 142 847 190 847 q -10 806 67 847 l -10 917 q 85 955 31 942 q 193 968 140 968 q 340 926 290 968 q 389 808 389 885 q 369 726 389 761 q 308 649 349 692 q 242 558 264 596 q 219 461 219 519 l 219 182 q 231 132 219 144 q 281 119 243 119 l 344 119 l 344 0 l 215 0 z "},"โ":{"ha":438,"x_min":-3,"x_max":415,"o":"m 286 0 q 172 44 203 0 q 140 176 140 88 l 140 642 q 107 774 140 728 q -3 849 74 821 l -3 964 l 410 964 l 410 844 l 188 844 q 267 764 243 813 q 290 628 290 715 l 290 182 q 302 132 290 144 q 351 119 314 119 l 415 119 l 415 0 l 286 0 z "},"ℊ":{"ha":810,"x_min":60,"x_max":721,"o":"m 369 -244 q 278 -240 332 -244 q 197 -231 224 -236 l 197 -110 q 268 -123 225 -118 q 344 -128 311 -128 q 569 6 569 -128 l 569 56 q 365 0 488 0 q 60 315 60 0 q 99 507 60 426 q 206 630 138 588 q 361 672 274 672 q 484 653 432 672 q 582 593 536 633 l 592 658 l 721 658 l 721 29 q 631 -170 721 -96 q 369 -244 540 -244 m 404 114 q 569 172 503 114 l 569 488 q 401 557 501 557 q 261 494 310 557 q 213 317 213 432 q 233 192 213 236 q 295 131 254 149 q 404 114 336 114 z "},"⁄":{"ha":213,"x_min":-190,"x_max":401,"o":"m 250 919 l 401 919 l -36 0 l -190 0 l 250 919 z "},"½":{"ha":904,"x_min":60,"x_max":829,"o":"m 160 807 l 60 786 l 60 868 l 264 908 l 264 514 l 160 514 l 160 807 m 604 894 l 746 894 l 272 0 l 131 0 l 604 894 m 532 53 q 572 103 550 82 q 638 160 594 124 q 704 221 688 201 q 721 263 721 240 q 703 300 721 289 q 644 311 686 311 q 543 290 596 311 l 543 372 q 606 388 569 381 q 678 394 643 394 q 787 361 747 394 q 826 276 826 328 q 810 213 826 239 q 754 149 794 186 l 725 124 q 681 82 696 99 l 829 82 l 829 0 l 532 0 l 532 53 z "},"⅓":{"ha":918,"x_min":60,"x_max":839,"o":"m 160 807 l 60 786 l 60 868 l 264 908 l 264 514 l 160 514 l 160 807 m 604 894 l 746 894 l 272 0 l 131 0 l 604 894 m 663 -12 q 593 -7 631 -12 q 536 6 556 -1 l 536 81 q 638 63 585 63 q 708 73 688 63 q 729 110 729 83 q 709 147 729 136 q 647 158 689 158 l 593 158 l 599 226 l 643 226 q 702 238 683 226 q 721 276 721 250 q 701 308 721 299 q 639 318 681 318 q 543 300 594 318 l 543 375 q 597 388 563 382 q 665 393 631 393 q 791 364 751 393 q 831 283 831 335 q 774 192 831 215 q 823 161 807 183 q 839 106 839 139 q 663 -12 839 -12 z "},"⅔":{"ha":950,"x_min":60,"x_max":844,"o":"m 60 567 q 100 617 78 596 q 165 674 122 638 q 232 735 215 715 q 249 776 249 754 q 231 814 249 803 q 172 825 214 825 q 71 804 124 825 l 71 886 q 134 901 97 894 q 206 908 171 908 q 315 875 275 908 q 354 790 354 842 q 338 726 354 753 q 282 663 322 700 l 253 638 q 208 596 224 613 l 357 596 l 357 514 l 60 514 l 60 567 m 610 894 l 753 894 l 278 0 l 136 0 l 610 894 m 668 -12 q 599 -7 638 -12 q 542 6 561 -1 l 542 81 q 643 63 590 63 q 714 73 693 63 q 735 110 735 83 q 715 147 735 136 q 653 158 694 158 l 599 158 l 604 226 l 649 226 q 708 238 689 226 q 726 276 726 250 q 706 308 726 299 q 644 318 686 318 q 549 300 600 318 l 549 375 q 602 388 568 382 q 671 393 636 393 q 797 364 757 393 q 836 283 836 335 q 779 192 836 215 q 828 161 813 183 q 844 106 844 139 q 668 -12 844 -12 z "},"¼":{"ha":894,"x_min":60,"x_max":833,"o":"m 160 807 l 60 786 l 60 868 l 264 908 l 264 514 l 160 514 l 160 807 m 604 894 l 746 894 l 272 0 l 131 0 l 604 894 m 688 75 l 488 75 l 488 147 l 681 394 l 792 394 l 792 149 l 833 149 l 833 75 l 792 75 l 792 0 l 688 0 l 688 75 m 710 150 l 710 308 l 589 150 l 710 150 z "},"¾":{"ha":917,"x_min":60,"x_max":840,"o":"m 186 503 q 116 508 153 503 q 60 521 79 513 l 60 594 q 161 575 107 575 q 232 586 211 575 q 253 625 253 597 q 171 674 253 674 l 117 674 l 122 740 l 167 740 q 226 753 207 740 q 244 792 244 765 q 224 824 244 814 q 163 833 204 833 q 67 815 113 833 l 67 890 q 122 903 88 897 q 189 908 156 908 q 354 797 354 908 q 340 742 354 767 q 297 707 326 718 q 363 621 363 689 q 186 503 363 503 m 610 894 l 753 894 l 279 0 l 138 0 l 610 894 m 694 75 l 493 75 l 493 147 l 688 394 l 797 394 l 797 149 l 840 149 l 840 75 l 797 75 l 797 0 l 694 0 l 694 75 m 717 150 l 717 308 l 594 150 l 717 150 z "},"⅛":{"ha":924,"x_min":60,"x_max":847,"o":"m 160 807 l 60 786 l 60 868 l 264 908 l 264 514 l 160 514 l 160 807 m 604 894 l 746 894 l 272 0 l 131 0 l 604 894 m 678 -14 q 553 15 600 -14 q 507 99 507 44 q 572 193 507 165 q 518 281 518 219 q 561 362 518 332 q 678 392 604 392 q 794 362 751 392 q 836 281 836 332 q 824 228 836 250 q 781 189 813 206 q 832 153 817 175 q 847 99 847 131 q 801 15 847 44 q 678 -14 754 -14 m 692 219 q 733 241 722 229 q 743 278 743 253 q 678 326 743 326 q 611 278 611 326 q 621 245 611 257 q 654 228 631 233 l 692 219 m 678 50 q 733 63 714 50 q 753 100 753 75 q 741 133 753 122 q 697 151 729 144 l 657 161 q 615 140 628 151 q 603 101 603 128 q 678 50 603 50 z "},"⅜":{"ha":933,"x_min":60,"x_max":847,"o":"m 186 503 q 116 508 153 503 q 60 521 79 513 l 60 596 q 161 576 107 576 q 232 588 211 576 q 253 625 253 599 q 171 674 253 674 l 117 674 l 122 740 l 167 740 q 226 753 207 740 q 244 792 244 765 q 224 823 244 814 q 163 832 204 832 q 67 814 113 832 l 67 890 q 122 903 88 897 q 189 908 156 908 q 354 797 354 908 q 340 742 354 767 q 297 707 326 718 q 363 621 363 689 q 186 503 363 503 m 604 894 l 747 894 l 274 0 l 132 0 l 604 894 m 678 -14 q 553 15 600 -14 q 507 99 507 44 q 572 193 507 165 q 518 281 518 219 q 561 362 518 332 q 678 392 604 392 q 794 362 751 392 q 836 281 836 332 q 824 228 836 250 q 781 189 813 206 q 832 153 817 175 q 847 99 847 131 q 801 15 847 44 q 678 -14 754 -14 m 692 219 q 733 241 722 229 q 743 278 743 253 q 678 326 743 326 q 611 278 611 326 q 621 245 611 257 q 654 228 631 233 l 692 219 m 678 50 q 733 63 714 50 q 753 100 753 75 q 741 133 753 122 q 697 151 729 144 l 657 161 q 615 140 628 151 q 603 101 603 128 q 678 50 603 50 z "},"⅝":{"ha":913,"x_min":60,"x_max":840,"o":"m 181 503 q 113 507 147 503 q 60 519 79 511 l 60 599 q 160 581 101 581 q 234 592 211 581 q 257 633 257 604 q 239 675 257 664 q 174 686 221 686 l 61 686 l 61 749 l 71 894 l 332 894 l 326 818 l 161 818 l 157 754 l 218 754 q 360 632 360 754 q 314 538 360 572 q 181 503 268 503 m 597 894 l 740 894 l 265 0 l 124 0 l 597 894 m 671 -14 q 547 15 593 -14 q 500 99 500 44 q 565 193 500 165 q 511 281 511 219 q 554 362 511 332 q 671 392 597 392 q 787 362 744 392 q 829 281 829 332 q 817 228 829 250 q 774 189 806 206 q 825 153 810 175 q 840 99 840 131 q 794 15 840 44 q 671 -14 747 -14 m 685 219 q 726 241 715 229 q 736 278 736 253 q 671 326 736 326 q 604 278 604 326 q 614 245 604 257 q 647 228 624 233 l 685 219 m 671 50 q 726 63 707 50 q 746 100 746 75 q 734 133 746 122 q 690 151 722 144 l 650 161 q 608 140 621 151 q 596 101 596 128 q 671 50 596 50 z "},"⅞":{"ha":926,"x_min":60,"x_max":849,"o":"m 254 813 l 60 813 l 60 894 l 368 894 l 368 825 l 235 514 l 126 514 l 254 813 m 606 894 l 749 894 l 274 0 l 132 0 l 606 894 m 679 -14 q 555 15 601 -14 q 508 99 508 44 q 574 193 508 165 q 519 281 519 219 q 563 362 519 332 q 679 392 606 392 q 795 362 753 392 q 838 281 838 332 q 826 228 838 250 q 782 189 814 206 q 833 153 818 175 q 849 99 849 131 q 802 15 849 44 q 679 -14 756 -14 m 693 219 q 734 241 724 229 q 744 278 744 253 q 679 326 744 326 q 613 278 613 326 q 622 245 613 257 q 656 228 632 233 l 693 219 m 679 50 q 735 63 715 50 q 754 100 754 75 q 742 133 754 122 q 699 151 731 144 l 658 161 q 617 140 629 151 q 604 101 604 128 q 679 50 604 50 z "},"₀":{"ha":500,"x_min":57,"x_max":442,"o":"m 250 -178 q 106 -126 154 -178 q 57 18 57 -75 q 250 228 57 228 q 442 18 442 228 q 394 -126 442 -75 q 250 -178 346 -178 m 250 -96 q 320 -68 300 -96 q 340 18 340 -40 q 322 115 340 86 q 250 144 303 144 q 178 115 199 144 q 158 18 158 85 q 179 -68 158 -40 q 250 -96 200 -96 z "},"₁":{"ha":297,"x_min":44,"x_max":249,"o":"m 144 126 l 44 106 l 44 188 l 249 228 l 249 -167 l 144 -167 l 144 126 z "}}}
